<svg width="17" height="21" viewBox="0 0 17 21" fill="none" xmlns="http://www.w3.org/2000/svg">
<path d="M16.0172 14.6692C15.8403 14.4923 15.5972 14.4036 15.3541 14.4036V9.39453C15.3541 7.11547 13.6485 5.91547 12.5635 5.38266C12.7419 5.21172 12.8541 4.97297 12.8541 4.70703C12.8541 4.34516 12.6456 4.03422 12.345 3.87797L12.5003 3.79578C12.5147 3.78828 12.5285 3.77922 12.5416 3.76953C12.8978 3.50203 13.1666 2.96484 13.1666 2.51953V1.89453C13.1666 1.37766 12.746 0.957031 12.2291 0.957031H7.85408C7.33721 0.957031 6.91658 1.37766 6.91658 1.89453V2.51953C6.91658 2.96484 7.18533 3.50203 7.54158 3.76953C7.55471 3.77922 7.56846 3.78828 7.58283 3.79578L7.73814 3.87797C7.43752 4.03422 7.22908 4.34516 7.22908 4.70703C7.22908 4.97297 7.34127 5.21172 7.51971 5.38266C6.43471 5.91547 4.72908 7.11547 4.72908 9.39453V13.7695C4.29939 13.7695 3.74564 13.9986 3.44127 14.303L0.133145 17.6111C0.010957 17.7333 0.010957 17.9308 0.133145 18.053L2.94564 20.8655C3.00658 20.9264 3.08658 20.957 3.16658 20.957C3.24658 20.957 3.32658 20.9264 3.38752 20.8655L5.17096 19.082H12.5416C12.7919 19.082 13.0275 18.9845 13.2044 18.8073L16.0169 15.9948C16.1941 15.818 16.2916 15.5823 16.2916 15.332C16.2916 15.0817 16.1941 14.8461 16.0172 14.6692ZM8.16658 5.01953C7.99439 5.01953 7.85408 4.87953 7.85408 4.70703C7.85408 4.53453 7.99439 4.39453 8.16658 4.39453H11.9166C12.0888 4.39453 12.2291 4.53453 12.2291 4.70703C12.2291 4.87953 12.0888 5.01953 11.9166 5.01953H8.16658ZM7.54158 2.51953V1.89453C7.54158 1.72203 7.68189 1.58203 7.85408 1.58203H12.2291C12.4013 1.58203 12.5416 1.72203 12.5416 1.89453V2.51953C12.5416 2.75766 12.3731 3.10141 12.1835 3.25609L11.2138 3.76953H8.86908L7.89939 3.25609C7.71002 3.10141 7.54158 2.75766 7.54158 2.51953ZM5.35408 9.39453C5.35408 6.68641 8.14283 5.75828 8.52346 5.64453H11.5591C11.9166 5.75453 14.7291 6.70891 14.7291 9.39453V14.6386C14.7169 14.6495 14.7028 14.6577 14.6913 14.6692L12.1531 17.207H8.79158C8.44689 17.207 8.16658 16.9267 8.16658 16.582C8.16658 16.2373 8.44689 15.957 8.79158 15.957H10.3541C11.0435 15.957 11.6041 15.3964 11.6041 14.707V14.082C11.6041 13.9092 11.4641 13.7695 11.2916 13.7695H5.35408V9.39453ZM15.575 15.553L12.7625 18.3655C12.7044 18.4239 12.6238 18.457 12.5416 18.457H5.04158C4.95877 18.457 4.87908 18.4898 4.82064 18.5486L3.16658 20.2027L0.795957 17.832L3.88314 14.7448C4.06658 14.5614 4.46971 14.3945 4.72908 14.3945H10.9791V14.707C10.9791 15.0517 10.6988 15.332 10.3541 15.332H8.79158C8.10221 15.332 7.54158 15.8927 7.54158 16.582C7.54158 17.2714 8.10221 17.832 8.79158 17.832H12.2825C12.3653 17.832 12.445 17.7992 12.5035 17.7405L15.1331 15.1111C15.251 14.9927 15.4569 14.9927 15.575 15.1111C15.6969 15.233 15.6969 15.4311 15.575 15.553Z" fill="#E1704D"/>
</svg>
