<svg width="60" height="60" viewBox="0 0 60 60" fill="none" xmlns="http://www.w3.org/2000/svg">
<rect width="60" height="60" rx="10" fill="url(#paint0_linear_418_3)" fill-opacity="0.08"/>
<path d="M33.75 24C33.75 24.9946 33.3549 25.9484 32.6516 26.6517C31.9484 27.3549 30.9945 27.75 30 27.75C29.0054 27.75 28.0516 27.3549 27.3483 26.6517C26.6451 25.9484 26.25 24.9946 26.25 24C26.25 23.0054 26.6451 22.0516 27.3483 21.3483C28.0516 20.6451 29.0054 20.25 30 20.25C30.9945 20.25 31.9484 20.6451 32.6516 21.3483C33.3549 22.0516 33.75 23.0054 33.75 24ZM22.501 38.118C22.5331 36.1504 23.3373 34.2742 24.7402 32.894C26.143 31.5139 28.0321 30.7405 30 30.7405C31.9679 30.7405 33.857 31.5139 35.2598 32.894C36.6626 34.2742 37.4668 36.1504 37.499 38.118C35.1464 39.1968 32.5881 39.7535 30 39.75C27.324 39.75 24.784 39.166 22.501 38.118Z" stroke="#F26E24" stroke-width="2" stroke-linecap="round" stroke-linejoin="round"/>
<defs>
<linearGradient id="paint0_linear_418_3" x1="30" y1="0" x2="30" y2="60" gradientUnits="userSpaceOnUse">
<stop stop-color="white"/>
<stop offset="1" stop-color="#021E3F"/>
</linearGradient>
</defs>
</svg>
