<?xml version="1.0" encoding="UTF-8"?>
<svg id="a" data-name="Layer 1" xmlns="http://www.w3.org/2000/svg" viewBox="0 0 16 16">
  <path d="M7.22096,10.41732l.14064-.78416c.39251-.60199.6097-.71411-.04157-1.21409.15155-.19706.35551-.32893.54621-.47965.05236-.04138.00031-.2169.1793-.15194.05543.12586.54095.50328.54467.5415.03147.32327-.36302.44594-.37276.57644-.00757.10131.39053.55626.44285.80324.04951.23376.01604.47378.02316.70869l.78337-3.01946,2.77659.97026c.94926.70784.89458,4.75953.92455,5.9502l-10.24452.05411c-.14978-.1042-.10074-1.12479-.09564-1.37543.01888-.92751.2049-3.95039.83141-4.53117.20451-.18959,2.64669-1.10311,2.82268-1.0649.09322.02024.1347.14952.15272.23877l.58636,2.7776Z" style="fill: #f58667;"/>
  <path d="M9.87574,4.15641c.09004.15335.41024.0832.34901.62887-.07909.70474-.52983.63073-.6728.82126-.3003.4002-.22434,1.37015-.38069,1.54632-.07813.08803-1.06802.54333-1.21262.53397-.12189-.00789-1.13581-.50987-1.17908-.58239-.12148-.20365-.0564-1.13469-.33177-1.49763-.07724-.1018-.29242-.06735-.44665-.25894-.10476-.13013-.25166-.55668-.24052-.72483.02518-.3799.359-.40877.38803-.51464.09573-.34904-.07465-.9394.04464-1.39602.23281-.89116,1.33457-1.1761,2.13935-1.06036.30075.04325,1.34288.73532,1.44565.99115.17524.43622-.03208,1.29264.09743,1.51322Z" style="fill: #f58667;"/>
  <path d="M2.34492,12.56285H.68741c.03693-1.12206.00167-2.28615.12894-3.39677.05023-.43828.20597-1.66252.37873-1.99435.27545-.52909,1.55819-.65378,2.07951-.92372.11347.01635.62775,1.40651.61832,1.49157-.00456.04108-.49586.28668-.66766.48731-.82275.96078-.82024,3.11949-.88032,4.33596Z" style="fill: #f58667;"/>
  <path d="M13.36251,5.83401c-.02711.03673-.61929.2017-.82158.39847-.34739.33791-.49237,1.37773-.96093,1.34288-.52459-.03902-.60514-1.72714-1.4348-1.64374.24656-.3094.54128-.72366.58023-1.13183.06389-.66939-.60571-.9496-.36126-1.91408.20314-.80148,1.73845-.86857,2.25934-.35771.68287.66971.34188,1.65954.45509,2.46994.02714.19428.32016.78696.2839.83608Z" style="fill: #f58667;"/>
  <path d="M13.65499,12.56285c-.08071-1.18768-.04659-3.18802-.73775-4.18606-.07422-.10718-.91617-.7442-.57167-.78788.34463-.04369.75938.03501,1.1144.00043-.19806-.30366-.41253-.60333-.58761-.92268-.03967-.07237-.20166-.16586-.04521-.24726.48532.25431,1.42649.44967,1.83201.77494.57294.45955.65667,4.46313.65334,5.36851h-1.65751Z" style="fill: #f58667;"/>
  <path d="M3.2908,5.08334c-.03521-.0575-.18958-.08288-.25032-.18264-.36607-.60118.00407-.6453.07941-1.06956.0911-.51303-.16695-.79839.29316-1.2665.3604-.36666.99825-.43599,1.47163-.29268.04871.01475.65282.36412.67901.39333.13776.15364.13754.85073.09456,1.07214-.03607.18584-.24523.34302-.33263.6222-.1355.43285.23392,1.24443-.04788,1.62965-.0892.12195-.85515.54346-1.0074.51174-.06319-.01317-.77091-.52244-.80042-.57195-.1243-.2085-.05881-.64927-.17912-.84574Z" style="fill: #f58667;"/>
</svg>