<svg width="21" height="21" viewBox="0 0 21 21" fill="none" xmlns="http://www.w3.org/2000/svg">
<path d="M3.52112 18.0218C3.35196 18.0218 3.21484 17.8847 3.21484 17.7156V16.073C3.21484 15.9038 3.35192 15.7667 3.52112 15.7667C3.69028 15.7667 3.82736 15.9038 3.82736 16.073V17.7156C3.82736 17.8847 3.69028 18.0218 3.52112 18.0218Z" fill="#E1704D"/>
<path d="M9.2345 19.794C9.06534 19.794 8.92822 19.6569 8.92822 19.4878V17.8023C8.92822 17.6332 9.06534 17.4961 9.2345 17.4961C9.4037 17.4961 9.54078 17.6332 9.54078 17.8023V19.4878C9.54082 19.6569 9.4037 19.794 9.2345 19.794Z" fill="#E1704D"/>
<path d="M12.1256 19.794C11.9564 19.794 11.8193 19.6569 11.8193 19.4878V17.8023C11.8193 17.6332 11.9564 17.4961 12.1256 17.4961C12.2948 17.4961 12.4319 17.6332 12.4319 17.8023V19.4878C12.4319 19.6569 12.2948 19.794 12.1256 19.794Z" fill="#E1704D"/>
<path d="M10.6803 14.9076C9.71422 14.9076 8.92822 14.1216 8.92822 13.1556C8.92822 12.1895 9.71422 11.4034 10.6803 11.4034C11.6463 11.4034 12.4323 12.1894 12.4323 13.1556C12.4323 14.1216 11.6463 14.9076 10.6803 14.9076ZM10.6803 12.016C10.052 12.016 9.54078 12.5273 9.54078 13.1556C9.54078 13.784 10.052 14.2951 10.6803 14.2951C11.3086 14.2951 11.8197 13.784 11.8197 13.1556C11.8197 12.5273 11.3086 12.016 10.6803 12.016Z" fill="#E1704D"/>
<path d="M12.8295 19.7939H8.53107C8.05395 19.7939 7.65259 19.4366 7.59743 18.9629L7.40695 17.3318C7.34115 16.768 7.51979 16.2017 7.89723 15.7777C8.27455 15.3534 8.81663 15.1104 9.38431 15.1104C9.46387 15.1104 9.54031 15.1412 9.59739 15.1967C10.2047 15.7848 11.1558 15.7848 11.7633 15.1967C11.8204 15.1412 11.8968 15.1104 11.9764 15.1104C12.544 15.1104 13.086 15.3535 13.4633 15.7774C13.8408 16.2014 14.0194 16.768 13.9536 17.3318L13.7632 18.9629C13.7079 19.4366 13.3065 19.7939 12.8295 19.7939ZM9.27091 15.7277C8.91991 15.7566 8.59079 15.9196 8.35471 16.1849C8.09355 16.4783 7.96987 16.8704 8.01543 17.2609L8.20591 18.892C8.22503 19.0569 8.36491 19.1813 8.53107 19.1813H12.8295C12.9957 19.1813 13.1356 19.0569 13.1548 18.8918L13.3451 17.2609C13.3907 16.8704 13.267 16.4783 13.0058 16.1847C12.7698 15.9196 12.4408 15.7566 12.0898 15.7277C11.2757 16.4259 10.0848 16.4264 9.27091 15.7277Z" fill="#E1704D"/>
<path d="M14.9478 18.0218C14.7787 18.0218 14.6416 17.8847 14.6416 17.7156V16.0304C14.6416 15.8612 14.7787 15.7241 14.9478 15.7241C15.117 15.7241 15.2541 15.8612 15.2541 16.0304V17.7156C15.2542 17.8847 15.117 18.0218 14.9478 18.0218Z" fill="#E1704D"/>
<path d="M17.8394 18.0218C17.6703 18.0218 17.5332 17.8847 17.5332 17.7156V16.0304C17.5332 15.8612 17.6703 15.7241 17.8394 15.7241C18.0086 15.7241 18.1457 15.8612 18.1457 16.0304V17.7156C18.1457 17.8847 18.0086 18.0218 17.8394 18.0218Z" fill="#E1704D"/>
<path d="M16.3936 13.1356C15.4275 13.1356 14.6416 12.3496 14.6416 11.3834C14.6416 10.4175 15.4275 9.63147 16.3936 9.63147C17.3596 9.63147 18.1456 10.4175 18.1456 11.3834C18.1456 12.3496 17.3596 13.1356 16.3936 13.1356ZM16.3936 10.244C15.7652 10.244 15.2542 10.7551 15.2542 11.3835C15.2542 12.0118 15.7652 12.5231 16.3936 12.5231C17.0219 12.5231 17.5331 12.0118 17.5331 11.3835C17.5331 10.7551 17.0219 10.244 16.3936 10.244Z" fill="#E1704D"/>
<path d="M18.5426 18.0218H14.4668C14.2976 18.0218 14.1606 17.8847 14.1606 17.7155C14.1606 17.5464 14.2976 17.4093 14.4668 17.4093H18.5426C18.7088 17.4093 18.8486 17.2849 18.8679 17.1197L19.0584 15.4889C19.1039 15.0984 18.9802 14.7062 18.719 14.4126C18.4829 14.1473 18.1539 13.9843 17.8029 13.9553C16.9889 14.654 15.7981 14.654 14.984 13.9553C14.3455 14.008 13.8168 14.5016 13.7311 15.1448C13.7086 15.3123 13.5563 15.4288 13.387 15.408C13.2193 15.3855 13.1016 15.2316 13.1238 15.0639C13.2549 14.08 14.1034 13.338 15.0974 13.338C15.177 13.338 15.2535 13.3689 15.3106 13.4244C15.9179 14.013 16.869 14.013 17.4763 13.4244C17.5335 13.3689 17.6099 13.338 17.6895 13.338C18.257 13.338 18.7991 13.5811 19.1764 14.0053C19.5539 14.4293 19.7326 14.9959 19.6668 15.5597L19.4764 17.1908C19.421 17.6646 19.0194 18.0218 18.5426 18.0218Z" fill="#E1704D"/>
<path d="M6.41273 18.0218C6.24357 18.0218 6.10645 17.8847 6.10645 17.7156V16.0304C6.10645 15.8612 6.24357 15.7241 6.41273 15.7241C6.58189 15.7241 6.71901 15.8612 6.71901 16.0304V17.7156C6.71901 17.8847 6.58189 18.0218 6.41273 18.0218Z" fill="#E1704D"/>
<path d="M4.9668 13.1356C4.00072 13.1356 3.21484 12.3496 3.21484 11.3834C3.21484 10.4175 4.00072 9.63147 4.9668 9.63147C5.93288 9.63147 6.71888 10.4175 6.71888 11.3834C6.71888 12.3496 5.93288 13.1356 4.9668 13.1356ZM4.9668 10.244C4.33848 10.244 3.82736 10.7551 3.82736 11.3835C3.82736 12.0118 4.33848 12.5231 4.9668 12.5231C5.59512 12.5231 6.10632 12.0118 6.10632 11.3835C6.10632 10.7551 5.59512 10.244 4.9668 10.244Z" fill="#E1704D"/>
<path d="M6.89345 18.0218H2.81765C2.34077 18.0218 1.93929 17.6645 1.88389 17.191L1.69357 15.5597C1.62777 14.9959 1.80649 14.4293 2.18385 14.0051C2.56129 13.5811 3.10325 13.338 3.67077 13.338C3.75033 13.338 3.82681 13.3689 3.88397 13.4244C4.49133 14.013 5.44269 14.013 6.04961 13.4244C6.10681 13.3689 6.18325 13.338 6.26281 13.338C7.25689 13.338 8.10533 14.08 8.23645 15.0639C8.25869 15.2317 8.14097 15.3855 7.97325 15.408C7.80313 15.4286 7.65141 15.3123 7.62917 15.1448C7.54349 14.5016 7.01457 14.008 6.37621 13.9553C5.56245 14.654 4.37133 14.654 3.55737 13.9553C3.20637 13.9843 2.87749 14.1473 2.64141 14.4123C2.38013 14.7062 2.25641 15.0983 2.30201 15.4888L2.49237 17.1199C2.51165 17.2848 2.65149 17.4092 2.81765 17.4092H6.89345C7.06261 17.4092 7.19969 17.5463 7.19969 17.7155C7.19969 17.8847 7.06261 18.0218 6.89345 18.0218Z" fill="#E1704D"/>
<path d="M8.86567 7.45644C8.76291 7.45644 8.66255 7.40476 8.60463 7.31072C8.25675 6.7458 8.07275 6.07152 8.07275 5.36088C8.07275 4.65048 8.25675 3.9762 8.60463 3.41116C8.69355 3.26724 8.88219 3.2226 9.02611 3.311C9.17003 3.39976 9.21491 3.58844 9.12627 3.73248C8.83783 4.20084 8.68527 4.76388 8.68527 5.36088C8.68527 5.95808 8.83779 6.52112 9.12627 6.9896C9.21491 7.13368 9.17003 7.3222 9.02611 7.41096C8.97595 7.44184 8.92043 7.45644 8.86567 7.45644Z" fill="#E1704D"/>
<path d="M10.7262 4.29684C10.557 4.29684 10.4199 4.15976 10.4199 3.99068V3.71424C10.4199 3.54508 10.557 3.40796 10.7262 3.40796C10.8954 3.40796 11.0324 3.54508 11.0324 3.71424V3.99072C11.0325 4.15976 10.8954 4.29684 10.7262 4.29684Z" fill="#E1704D"/>
<path d="M10.7258 7.03225C10.1527 7.03225 9.68652 6.58817 9.68652 6.04213C9.68652 5.87297 9.8236 5.73585 9.9928 5.73585C10.162 5.73585 10.2991 5.87293 10.2991 6.04213C10.2991 6.25029 10.4905 6.41973 10.7258 6.41973C10.961 6.41973 11.1524 6.25029 11.1524 6.04213C11.1524 5.83397 10.961 5.66457 10.7258 5.66457C10.1527 5.66457 9.68652 5.22045 9.68652 4.67445C9.68652 4.12865 10.1527 3.68445 10.7258 3.68445C11.2987 3.68445 11.765 4.12865 11.765 4.67445C11.765 4.84361 11.6278 4.98073 11.4587 4.98073C11.2895 4.98073 11.1524 4.84361 11.1524 4.67445C11.1524 4.46629 10.961 4.29713 10.7258 4.29713C10.4905 4.29713 10.2991 4.46629 10.2991 4.67445C10.2991 4.88261 10.4905 5.05205 10.7258 5.05205C11.2987 5.05205 11.765 5.49613 11.765 6.04213C11.765 6.58817 11.2988 7.03225 10.7258 7.03225Z" fill="#E1704D"/>
<path d="M10.7262 7.34564C10.557 7.34564 10.4199 7.20852 10.4199 7.03936V6.72592C10.4199 6.55676 10.557 6.41968 10.7262 6.41968C10.8954 6.41968 11.0324 6.55676 11.0324 6.72592V7.03936C11.0325 7.20852 10.8954 7.34564 10.7262 7.34564Z" fill="#E1704D"/>
<path d="M7.00734 5.66713H6.1261C5.95694 5.66713 5.81982 5.53005 5.81982 5.36085C5.81982 5.19165 5.9569 5.05457 6.1261 5.05457H7.00734C7.1765 5.05457 7.31358 5.19165 7.31358 5.36085C7.31358 5.53005 7.1765 5.66713 7.00734 5.66713Z" fill="#E1704D"/>
<path d="M7.38674 4.48679H6.5055C6.3363 4.48679 6.19922 4.34971 6.19922 4.18055C6.19922 4.01139 6.3363 3.87427 6.5055 3.87427H7.38674C7.5559 3.87427 7.69302 4.01139 7.69302 4.18055C7.69302 4.34971 7.5559 4.48679 7.38674 4.48679Z" fill="#E1704D"/>
<path d="M7.38674 6.84775H6.5055C6.3363 6.84775 6.19922 6.71063 6.19922 6.54151C6.19922 6.37231 6.3363 6.23523 6.5055 6.23523H7.38674C7.5559 6.23523 7.69302 6.37231 7.69302 6.54151C7.69302 6.71063 7.5559 6.84775 7.38674 6.84775Z" fill="#E1704D"/>
<path d="M3.86004 4.68059C3.80224 4.68059 3.74484 4.67843 3.68812 4.67387C3.51944 4.66075 3.39344 4.51331 3.40672 4.34463C3.42 4.17595 3.56716 4.04867 3.73596 4.06327C3.77688 4.06639 3.81828 4.06803 3.86 4.06803C4.70812 4.06803 5.39816 3.37811 5.39816 2.52999C5.39816 2.50091 5.39732 2.47195 5.39576 2.44323C5.38632 2.27443 5.51564 2.12991 5.68456 2.12047C5.85132 2.11115 5.99788 2.24023 6.00732 2.40915C6.0096 2.44923 6.01068 2.48943 6.01068 2.52999C6.01076 3.71587 5.046 4.68059 3.86004 4.68059Z" fill="#E1704D"/>
<path d="M17.5921 4.68062C16.4062 4.68062 15.4414 3.71586 15.4414 2.53006C15.4414 2.4895 15.4425 2.4493 15.4448 2.40922C15.4542 2.2403 15.5998 2.11046 15.7675 2.12054C15.9364 2.12998 16.0658 2.27454 16.0563 2.4433C16.0548 2.47202 16.0539 2.50098 16.0539 2.53006C16.0539 3.37818 16.744 4.0681 17.5921 4.0681C17.6338 4.0681 17.6752 4.06642 17.7162 4.06334C17.8854 4.0485 18.0322 4.17602 18.0454 4.3447C18.0587 4.51338 17.9327 4.66082 17.764 4.67394C17.7073 4.67846 17.6499 4.68062 17.5921 4.68062Z" fill="#E1704D"/>
<path d="M15.7503 8.60182C15.589 8.60182 15.4539 8.4757 15.4448 8.31254C15.4425 8.27234 15.4414 8.23238 15.4414 8.1917C15.4414 7.00586 16.4062 6.04114 17.5921 6.04114C17.6499 6.04114 17.7073 6.0433 17.764 6.04786C17.9327 6.06102 18.0587 6.20842 18.0454 6.3771C18.0323 6.54578 17.8856 6.67474 17.7162 6.65846C17.6753 6.65534 17.6339 6.6537 17.5921 6.6537C16.744 6.6537 16.054 7.34374 16.054 8.19174C16.054 8.22094 16.0548 8.24986 16.0564 8.27858C16.0657 8.44754 15.9365 8.59206 15.7676 8.60138C15.7618 8.60154 15.7561 8.60182 15.7503 8.60182Z" fill="#E1704D"/>
<path d="M5.7018 8.6019C5.69604 8.6019 5.69028 8.60162 5.68456 8.60138C5.51564 8.59206 5.38644 8.44754 5.39576 8.27858C5.39732 8.24986 5.39816 8.2209 5.39816 8.19174C5.39816 7.34378 4.70812 6.6537 3.86 6.6537C3.81824 6.6537 3.77684 6.65538 3.73596 6.65846C3.56704 6.6745 3.42 6.54578 3.40672 6.3771C3.39344 6.20842 3.51944 6.06102 3.68812 6.04786C3.7448 6.0433 3.80224 6.04114 3.86004 6.04114C5.046 6.04114 6.01076 7.0059 6.01076 8.1917C6.01076 8.23238 6.00968 8.27234 6.0074 8.31254C5.99824 8.47578 5.8632 8.6019 5.7018 8.6019Z" fill="#E1704D"/>
<path d="M17.5275 8.60164H3.92471C3.63831 8.60164 3.40527 8.3686 3.40527 8.0822V2.6396C3.40527 2.3532 3.63831 2.12012 3.92471 2.12012H17.5275C17.814 2.12012 18.0471 2.35316 18.0471 2.6396V8.0822C18.0471 8.3686 17.814 8.60164 17.5275 8.60164ZM4.01779 7.98912H17.4346V2.73268H4.01779V7.98912Z" fill="#E1704D"/>
<path d="M15.3262 5.66713H14.4449C14.2758 5.66713 14.1387 5.53005 14.1387 5.36085C14.1387 5.19165 14.2758 5.05457 14.4449 5.05457H15.3262C15.4953 5.05457 15.6324 5.19165 15.6324 5.36085C15.6324 5.53005 15.4953 5.66713 15.3262 5.66713Z" fill="#E1704D"/>
<path d="M14.9463 4.48679H14.065C13.8959 4.48679 13.7588 4.34971 13.7588 4.18055C13.7588 4.01139 13.8959 3.87427 14.065 3.87427H14.9463C15.1155 3.87427 15.2526 4.01139 15.2526 4.18055C15.2526 4.34971 15.1155 4.48679 14.9463 4.48679Z" fill="#E1704D"/>
<path d="M14.9463 6.84775H14.065C13.8959 6.84775 13.7588 6.71063 13.7588 6.54151C13.7588 6.37231 13.8959 6.23523 14.065 6.23523H14.9463C15.1155 6.23523 15.2526 6.37231 15.2526 6.54151C15.2526 6.71063 15.1155 6.84775 14.9463 6.84775Z" fill="#E1704D"/>
<path d="M12.5864 7.45637C12.5316 7.45637 12.476 7.44177 12.4259 7.41093C12.282 7.32217 12.2371 7.13361 12.3258 6.98957C12.6142 6.52109 12.7668 5.95809 12.7668 5.36085C12.7668 4.76385 12.6142 4.20085 12.3258 3.73245C12.2371 3.58841 12.282 3.39973 12.4259 3.31097C12.5703 3.22293 12.7587 3.26717 12.8474 3.41113C13.1953 3.97617 13.3793 4.65045 13.3793 5.36085C13.3793 6.07149 13.1953 6.74573 12.8474 7.31069C12.7895 7.40469 12.6891 7.45637 12.5864 7.45637Z" fill="#E1704D"/>
</svg>
