<?xml version="1.0" encoding="UTF-8"?>
<svg id="a" data-name="Layer 1" xmlns="http://www.w3.org/2000/svg" viewBox="0 0 16 16">
  <path d="M9.51126,3.48668c1.23189.9091,1.09573,3.03279-.16613,3.87708,1.40704.49227,2.44486,1.77212,2.68123,3.24172.04012.24943.1197,1.05468-.02831,1.23737-.19198.23695-1.241.68816-1.56731.80108-1.89911.65717-3.8814.54913-5.6946-.31843-.23549-.11268-.80775-.39265-.83723-.63533-.07514-.61842.06145-1.4415.29321-2.0196.06457-.16106.77151-1.18872.70459-1.27281-.08729-.10971-.56024.66124-.57906.69426-.45345.79582-.64127,1.71524-.6072,2.62599-.078.08283-1.66382-.61068-1.79683-.79567-.20002-.27818.07805-1.49466.21185-1.84585.34842-.91454,1.17094-1.67576,2.09737-1.96882-.6558-.5439-.99515-1.19527-.88909-2.07294.09644-.79807.8848-1.61472,1.68939-1.70395.17947-.0199,1.07915-.03289,1.12102.16169.01234.05736-.50053.78793-.57911,1.02051-.36748,1.0876.00728,1.98857.70698,2.81843-.01534.06539-.91659.52061-1.12261.73553-.07639.0797-.33967.36515-.23568.32753.06132-.02218.25471-.23032.31009-.27647.20337-.16948.5254-.34246.77203-.48517.20054-.11604.42665-.14383.59476-.30029-2.59458-2.01181.23522-5.82762,2.92063-3.84587Z" style="fill: #f58667;"/>
  <path d="M12.22609,10.78986c-.14694-1.45504-1.20919-2.89349-2.56082-3.42622-.06321-.08669.30231-.38428.37358-.4897.70065-1.03637.66303-2.1149-.06317-3.11993-.05004-.06925-.17877-.10336-.18545-.13712-.05016-.25339.35883-.2723.54487-.28817,2.22877-.19005,3.08775,2.4086,1.44298,3.77893.47574.0189.94196.63433,1.24918.76855.18911.08263.05042-.14208-.03199-.22446-.16575-.16568-.93043-.5743-.96081-.64013-.04232-.0917.17873-.1614.25556-.2554.42191-.51618.59659-1.31228.41747-1.95383-.06365-.22797-.22017-.4023-.22494-.6388,1.62729.19851,2.12735,2.00467.89615,3.07211.81685.20491,1.4879.97402,1.72507,1.76491.07489.24972.19707.97891.12086,1.20247-.04766.13981-.9201.58217-1.01347.49089.04281-.83339-.13446-1.61765-.6001-2.31346-.04297-.06421-.41668-.57663-.50021-.49086-.02522.0259.39603.6044.43964.67626.16355.26951.27478.42618.37183.78383.14318.52769.197,1.00476.16161,1.555-.03015.12417-1.59112.828-1.85783.81348-.02159-.30001.0298-.63326,0-.92836Z" style="fill: #f58667;"/>
  <path d="M3.45434,4.16361c-.28849.80825-.41675,1.52235.03028,2.30667.07199.1263.47655.55673.41813.63721-1.5099.54238-2.20137,2.11642-2.20823,3.64986-.19164-.13557-.79695-.30541-.89728-.51127-.08884-.18229-.02833-.78981.01051-1.01474.15473-.89603.8799-1.73432,1.75036-1.99584.04916-.17279-.11089-.11869-.19234-.22008-.92981-1.15767-.39937-2.6708,1.08856-2.85181Z" style="fill: #f58667;"/>
</svg>