<svg width="21" height="21" viewBox="0 0 21 21" fill="none" xmlns="http://www.w3.org/2000/svg">
<g clip-path="url(#clip0_1_3031)">
<path d="M11.9839 9.40896C12.0463 9.40896 12.1062 9.38417 12.1503 9.34005C12.1944 9.29592 12.2192 9.23607 12.2192 9.17367C12.2192 9.11127 12.1944 9.05142 12.1503 9.00729C12.1062 8.96317 12.0463 8.93838 11.9839 8.93838H8.25526V8.08385C8.25535 8.01482 8.28281 7.94866 8.33162 7.89985C8.38042 7.85105 8.44659 7.82359 8.51561 7.82349H10.8154C10.8778 7.82349 10.9377 7.7987 10.9818 7.75458C11.0259 7.71045 11.0507 7.6506 11.0507 7.5882C11.0507 7.5258 11.0259 7.46595 10.9818 7.42182C10.9377 7.37769 10.8778 7.35291 10.8154 7.35291H8.51543C8.32165 7.35314 8.13587 7.43022 7.99884 7.56725C7.86181 7.70428 7.78473 7.89006 7.78449 8.08385V10.5237H4.67008C4.47627 10.5239 4.29044 10.601 4.15338 10.738C4.01631 10.875 3.9392 11.0608 3.93896 11.2546V16.4247C3.93896 16.4871 3.96375 16.547 4.00788 16.5911C4.05201 16.6352 4.11186 16.66 4.17426 16.66C4.23666 16.66 4.29651 16.6352 4.34064 16.5911C4.38476 16.547 4.40955 16.4871 4.40955 16.4247V15.7504H7.62255C7.68496 15.7504 7.7448 15.7256 7.78893 15.6815C7.83306 15.6373 7.85785 15.5775 7.85785 15.5151C7.85785 15.4527 7.83306 15.3928 7.78893 15.3487C7.7448 15.3046 7.68496 15.2798 7.62255 15.2798H4.40955V14.165H9.34955V14.546C9.34955 14.6084 9.37434 14.6682 9.41847 14.7123C9.46259 14.7565 9.52244 14.7813 9.58485 14.7813C9.64725 14.7813 9.7071 14.7565 9.75122 14.7123C9.79535 14.6682 9.82014 14.6084 9.82014 14.546V11.2546C9.81991 11.0608 9.74282 10.8751 9.60579 10.738C9.46876 10.601 9.28298 10.5239 9.0892 10.5237H8.25526V9.40896H11.9839ZM9.34955 11.2546V13.6944H4.40955V12.5797H8.59779C8.66019 12.5797 8.72004 12.5549 8.76417 12.5108C8.80829 12.4666 8.83308 12.4068 8.83308 12.3444C8.83308 12.282 8.80829 12.2221 8.76417 12.178C8.72004 12.1339 8.66019 12.1091 8.59779 12.1091H4.40955V11.2546C4.40965 11.1856 4.43711 11.1194 4.48592 11.0706C4.53472 11.0218 4.60089 10.9944 4.66991 10.9943H9.08902C9.15807 10.9943 9.2243 11.0218 9.27315 11.0706C9.32199 11.1194 9.34947 11.1856 9.34955 11.2546Z" fill="#E1704D"/>
<path d="M20.3725 14.2488C20.3725 14.1864 20.3477 14.1266 20.3036 14.0824C20.2595 14.0383 20.1996 14.0135 20.1372 14.0135H16.2122C16.1498 14.0135 16.0899 14.0383 16.0458 14.0824C16.0017 14.1266 15.9769 14.1864 15.9769 14.2488V14.7189H15.6918C15.5516 14.7193 15.4135 14.6859 15.2891 14.6214C14.7873 14.3567 14.2328 14.2075 13.6659 14.1845V10.2625C13.6659 10.2001 13.6412 10.1403 13.597 10.0961C13.5529 10.052 13.4931 10.0272 13.4307 10.0272C13.3683 10.0272 13.3084 10.052 13.2643 10.0961C13.2202 10.1403 13.1954 10.2001 13.1954 10.2625V10.5238H10.549C10.4866 10.5238 10.4268 10.5485 10.3826 10.5927C10.3385 10.6368 10.3137 10.6966 10.3137 10.759C10.3137 10.8214 10.3385 10.8813 10.3826 10.9254C10.4268 10.9696 10.4866 10.9943 10.549 10.9943H13.1954V12.1091H10.549C10.4866 12.1091 10.4268 12.1339 10.3826 12.178C10.3385 12.2221 10.3137 12.282 10.3137 12.3444C10.3137 12.4068 10.3385 12.4667 10.3826 12.5108C10.4268 12.5549 10.4866 12.5797 10.549 12.5797H13.1954V13.6945H10.549C10.4866 13.6945 10.4268 13.7192 10.3826 13.7634C10.3385 13.8075 10.3137 13.8673 10.3137 13.9298C10.3137 13.9922 10.3385 14.052 10.3826 14.0961C10.4268 14.1403 10.4866 14.165 10.549 14.165H13.1954V14.1768C12.7023 14.1945 11.8511 14.309 11.0718 14.8239C10.7213 15.053 10.311 15.1737 9.8923 15.1709H9.3563C9.06942 15.1709 8.79428 15.2849 8.59142 15.4878C8.38856 15.6906 8.2746 15.9657 8.2746 16.2526C8.2746 16.5395 8.38856 16.8147 8.59142 17.0175C8.79428 17.2204 9.06942 17.3343 9.3563 17.3343H10.2704C10.2077 17.3778 10.14 17.4226 10.0676 17.4672C9.34031 17.9145 8.46566 18.056 7.63442 17.8609C7.00113 17.717 6.0776 17.4825 5.27389 17.1827C4.98027 17.0751 4.65861 17.0715 4.36268 17.1726C4.06675 17.2737 3.81447 17.4733 3.64801 17.738C3.59804 17.8173 3.56448 17.9059 3.5493 17.9984C3.53412 18.0909 3.53763 18.1855 3.55962 18.2767C3.58161 18.3678 3.62164 18.4537 3.67735 18.5291C3.73305 18.6045 3.8033 18.668 3.88395 18.7158C5.31811 19.5534 6.89179 20.125 8.52918 20.4031C8.82749 20.454 9.12958 20.4794 9.43218 20.479C9.5616 20.479 9.69165 20.4745 9.82236 20.4654C10.7659 20.3994 12.6023 20.179 14.2997 19.4448C14.5861 19.3192 14.8953 19.2538 15.2081 19.2529H15.9769V20.2588C15.9769 20.3212 16.0017 20.381 16.0458 20.4251C16.0899 20.4693 16.1498 20.494 16.2122 20.494H20.1372C20.1996 20.494 20.2595 20.4693 20.3036 20.4251C20.3477 20.381 20.3725 20.3212 20.3725 20.2588C20.3725 20.1963 20.3477 20.1365 20.3036 20.0924C20.2595 20.0482 20.1996 20.0235 20.1372 20.0235H16.4475V14.4841H20.1372C20.1996 14.4841 20.2595 14.4593 20.3036 14.4152C20.3477 14.3711 20.3725 14.3112 20.3725 14.2488ZM15.2078 18.7816C14.8308 18.7825 14.458 18.861 14.1127 19.0123C12.4795 19.7186 10.7029 19.9313 9.78913 19.9953C9.39469 20.0237 8.99826 20.0047 8.60836 19.9386C7.02812 19.6706 5.50931 19.1192 4.12513 18.3111C4.09823 18.2953 4.07479 18.2742 4.05622 18.2491C4.03764 18.2241 4.02431 18.1955 4.01701 18.1652C4.00972 18.1351 4.00857 18.1039 4.01362 18.0734C4.01867 18.0429 4.02983 18.0137 4.04642 17.9876C4.12708 17.8593 4.23891 17.7536 4.37146 17.6803C4.50401 17.6069 4.65298 17.5683 4.80448 17.5681C4.90853 17.568 5.01175 17.5866 5.10924 17.623C5.9373 17.9319 6.88265 18.172 7.52989 18.3192C8.48152 18.5419 9.48261 18.3793 10.3148 17.8668C10.5684 17.7108 10.8075 17.5324 11.0292 17.3337H12.3496C12.412 17.3337 12.4718 17.3089 12.516 17.2648C12.5601 17.2206 12.5849 17.1608 12.5849 17.0984C12.5849 17.036 12.5601 16.9761 12.516 16.932C12.4718 16.8879 12.412 16.8631 12.3496 16.8631H9.3563C9.19422 16.8631 9.03878 16.7987 8.92418 16.6841C8.80957 16.5695 8.74518 16.4141 8.74518 16.252C8.74518 16.0899 8.80957 15.9345 8.92418 15.8199C9.03878 15.7053 9.19422 15.6409 9.3563 15.6409H9.89218C10.4032 15.6438 10.9037 15.496 11.3311 15.2161C12.3493 14.5435 13.5529 14.6514 13.5646 14.6522C13.5724 14.653 13.5802 14.6534 13.5881 14.6534C14.2399 14.6534 14.7964 14.8946 15.0701 15.038C15.262 15.1379 15.4752 15.1899 15.6915 15.1895H15.9767V18.7816H15.2078Z" fill="#E1704D"/>
<path d="M4.10259 6.69314L4.60335 6.40714C4.63938 6.38657 4.66933 6.35683 4.69016 6.32095C4.71099 6.28506 4.72196 6.24431 4.72196 6.20282C4.72196 6.16133 4.71099 6.12058 4.69016 6.08469C4.66933 6.04881 4.63938 6.01907 4.60335 5.9985L4.10259 5.71256C3.81609 5.5488 3.59708 5.28861 3.48459 4.97838L3.10576 3.93232C3.08929 3.88688 3.05922 3.84761 3.01964 3.81986C2.98006 3.79211 2.93289 3.77722 2.88456 3.77722C2.83622 3.77722 2.78905 3.79211 2.74948 3.81986C2.7099 3.84761 2.67983 3.88688 2.66335 3.93232L2.29212 4.95767C2.17597 5.27878 1.94562 5.54586 1.64506 5.70791L1.11176 5.99579C1.07442 6.01596 1.04323 6.04585 1.0215 6.08229C0.999758 6.11874 0.988281 6.16038 0.988281 6.20282C0.988281 6.24526 0.999758 6.2869 1.0215 6.32335C1.04323 6.3598 1.07442 6.38968 1.11176 6.40985L1.64512 6.69809C1.94568 6.8601 2.17604 7.12717 2.29217 7.44826L2.66353 8.47361C2.68 8.51906 2.71007 8.55832 2.74965 8.58608C2.78923 8.61383 2.8364 8.62871 2.88473 8.62871C2.93307 8.62871 2.98024 8.61383 3.01981 8.58608C3.05939 8.55832 3.08946 8.51906 3.10594 8.47361L3.48476 7.4275C3.59714 7.11721 3.8161 6.85695 4.10259 6.69314ZM3.04212 7.26697L2.88459 7.70226L2.73447 7.28779C2.57907 6.85805 2.27082 6.50061 1.86859 6.28373L1.71876 6.20285L1.86859 6.12173C2.27075 5.90488 2.57898 5.54754 2.73447 5.11791L2.88459 4.7035L3.04212 5.13879C3.1927 5.55391 3.48583 5.90206 3.86923 6.12114L4.01223 6.20279L3.86923 6.28438C3.48577 6.50351 3.19264 6.85175 3.04212 7.26697Z" fill="#E1704D"/>
<path d="M17.9757 8.88441L17.6949 9.65941C17.612 9.88886 17.4474 10.0797 17.2327 10.1955L16.8295 10.4132C16.7922 10.4333 16.761 10.4632 16.7393 10.4997C16.7175 10.5361 16.7061 10.5778 16.7061 10.6202C16.7061 10.6626 16.7175 10.7043 16.7393 10.7407C16.761 10.7772 16.7922 10.8071 16.8295 10.8272L17.2327 11.0449C17.4474 11.1607 17.612 11.3515 17.6949 11.5809L17.9757 12.356C17.9921 12.4014 18.0222 12.4407 18.0618 12.4685C18.1014 12.4962 18.1485 12.5111 18.1969 12.5111C18.2452 12.5111 18.2924 12.4962 18.3319 12.4685C18.3715 12.4407 18.4016 12.4014 18.4181 12.356L18.7044 11.5654C18.7848 11.3437 18.9413 11.1578 19.146 11.0408L19.5245 10.8246C19.5606 10.8041 19.5905 10.7743 19.6113 10.7385C19.6322 10.7026 19.6431 10.6618 19.6431 10.6203C19.6431 10.5788 19.6322 10.5381 19.6113 10.5022C19.5905 10.4663 19.5606 10.4366 19.5245 10.416L19.146 10.1998C18.9413 10.0828 18.7848 9.89695 18.7044 9.6753L18.4181 8.88459C18.4016 8.83915 18.3715 8.79988 18.3319 8.77213C18.2924 8.74438 18.2452 8.72949 18.1969 8.72949C18.1485 8.72949 18.1014 8.74438 18.0618 8.77213C18.0222 8.79988 17.9921 8.83915 17.9757 8.88459V8.88441ZM18.1968 9.65559L18.2619 9.83541C18.3804 10.162 18.611 10.4359 18.9127 10.6084L18.9334 10.6201L18.9127 10.6319C18.611 10.8043 18.3804 11.0782 18.2619 11.4049L18.1968 11.5846L18.1374 11.4205C18.0151 11.0825 17.7727 10.8013 17.4562 10.6306L17.4367 10.6201L17.4562 10.6095C17.7727 10.4388 18.0151 10.1576 18.1374 9.81959L18.1968 9.65559Z" fill="#E1704D"/>
<path d="M18.8457 2.22378C18.8457 2.18922 18.838 2.15509 18.8233 2.12381C18.8086 2.09253 18.7872 2.06487 18.7607 2.0428C18.7341 2.02072 18.7029 2.00478 18.6695 1.99609C18.6361 1.98741 18.6011 1.9862 18.5671 1.99255C18.5428 1.99707 16.1207 2.43666 15.1123 1.47931C15.0669 1.44126 15.0095 1.42041 14.9503 1.42041C14.8911 1.42041 14.8337 1.44126 14.7883 1.47931C13.7819 2.43484 11.358 1.99543 11.3332 1.99231C11.1771 1.97372 11.0548 2.03713 11.0548 2.2236V5.94831C11.0515 6.41875 11.1375 6.88554 11.3081 7.32396C12.2646 9.74125 14.7996 10.2385 14.9071 10.2585H14.9077C14.9216 10.2611 14.9357 10.2624 14.9498 10.2624H14.951C14.9647 10.2624 14.9783 10.2611 14.9918 10.2587H14.9931C15.1005 10.2387 17.6355 9.74137 18.592 7.32407C18.7627 6.88567 18.8487 6.41887 18.8454 5.94843L18.8457 2.22378ZM14.9499 8.22543C14.7058 8.16713 13.4932 7.82172 13.0215 6.6296C12.9322 6.39939 12.8874 6.15434 12.8894 5.90743V3.84149C13.3646 3.89396 14.3352 3.9356 14.9503 3.51172C15.5655 3.93525 16.536 3.89407 17.0112 3.84149V5.90743C17.0133 6.15434 16.9684 6.3994 16.8791 6.6296C16.4097 7.81613 15.1935 8.16637 14.9499 8.22543ZM11.746 7.15113C11.5972 6.76781 11.5224 6.35977 11.5256 5.9486V2.49819C12.1537 2.58084 13.6931 2.70366 14.715 2.11455V3.10207C14.1837 3.5029 13.0915 3.41249 12.6974 3.33949C12.6634 3.33314 12.6284 3.33435 12.595 3.34304C12.5615 3.35172 12.5304 3.36768 12.5038 3.38976C12.4772 3.41184 12.4558 3.4395 12.4411 3.47079C12.4264 3.50208 12.4188 3.53622 12.4188 3.57078V5.90743C12.4168 6.21364 12.4729 6.51745 12.584 6.80278C13.084 8.06655 14.2517 8.5176 14.7151 8.65043V9.72396C14.061 9.52831 12.4304 8.88055 11.746 7.15113ZM18.3754 5.9486C18.3785 6.35977 18.3037 6.76782 18.155 7.15113C17.4726 8.87519 15.8407 9.52631 15.1859 9.72355V8.65037C15.6491 8.51766 16.8168 8.06678 17.317 6.80278C17.4282 6.51745 17.4842 6.21363 17.4821 5.90743V3.57078C17.4821 3.53622 17.4745 3.50209 17.4598 3.47081C17.4451 3.43953 17.4238 3.41186 17.3972 3.38978C17.3706 3.3677 17.3395 3.35175 17.306 3.34306C17.2726 3.33436 17.2376 3.33315 17.2037 3.33949C16.8098 3.41302 15.7182 3.50419 15.186 3.10137V2.11413C16.2079 2.70325 17.7472 2.58055 18.3755 2.49784L18.3754 5.9486Z" fill="#E1704D"/>
<path d="M17.5707 15.7504C17.7007 15.7504 17.806 15.645 17.806 15.5151C17.806 15.3851 17.7007 15.2798 17.5707 15.2798C17.4408 15.2798 17.3354 15.3851 17.3354 15.5151C17.3354 15.645 17.4408 15.7504 17.5707 15.7504Z" fill="#E1704D"/>
<path d="M18.7153 15.7504C18.8452 15.7504 18.9506 15.645 18.9506 15.5151C18.9506 15.3851 18.8452 15.2798 18.7153 15.2798C18.5853 15.2798 18.48 15.3851 18.48 15.5151C18.48 15.645 18.5853 15.7504 18.7153 15.7504Z" fill="#E1704D"/>
</g>
<defs>
<clipPath id="clip0_1_3031">
<rect width="20" height="20" fill="white" transform="translate(0.680176 0.957031)"/>
</clipPath>
</defs>
</svg>
