<svg width="60" height="60" viewBox="0 0 60 60" fill="none" xmlns="http://www.w3.org/2000/svg">
<rect width="60" height="60" rx="10" fill="url(#paint0_linear_418_29)" fill-opacity="0.08"/>
<g clip-path="url(#clip0_418_29)">
<mask id="path-2-inside-1_418_29" fill="white">
<path d="M31.1895 19.0984C31.9081 19.0821 32.5145 19.1065 33.0527 19.156C33.6014 19.2076 34.0724 19.2832 34.5186 19.3708C34.7102 19.4083 34.921 19.4542 35.1289 19.4988C35.7747 19.6374 36.4067 19.7737 37.0879 19.7957C37.984 19.8253 39.0309 19.6644 39.5557 19.5837L40.0898 19.5017C40.1071 19.4991 40.1246 19.4991 40.1416 19.4988C40.1478 19.4986 40.154 19.4977 40.1602 19.4978H40.1709C40.1905 19.4989 40.2096 19.5027 40.2285 19.5066C40.2314 19.5072 40.2344 19.5069 40.2373 19.5076C40.2544 19.5114 40.2708 19.5172 40.2871 19.5232C40.2962 19.5265 40.3056 19.5289 40.3145 19.533C40.3268 19.5386 40.3379 19.5466 40.3496 19.5535C40.3598 19.5594 40.371 19.564 40.3809 19.571C41.5338 20.3915 42.6341 21.7992 43.5176 23.4119C44.4371 25.0917 45.1298 27.0066 45.4092 28.7175C45.4226 28.8002 45.4083 28.8806 45.375 28.9509C45.3714 28.9587 45.3665 28.9658 45.3623 28.9734C45.3537 28.9888 45.3455 29.0042 45.335 29.0183C45.3341 29.0195 45.3339 29.0211 45.333 29.0222C44.8372 29.675 44.2855 30.2457 43.6787 30.7302C43.2281 31.0894 42.7451 31.4028 42.2324 31.6716C42.3344 31.7886 42.4239 31.9168 42.498 32.0544C42.6565 32.3494 42.7471 32.6863 42.7471 33.0427C42.7471 33.619 42.5132 34.1416 42.1357 34.5193C41.758 34.897 41.2337 35.1316 40.6572 35.1316C40.6129 35.1316 40.5685 35.1305 40.5234 35.1277C40.5432 35.2463 40.5537 35.3663 40.5537 35.4871C40.5537 36.106 40.3015 36.668 39.8955 37.074L39.8936 37.075L39.8877 37.0828C39.4818 37.4844 38.9235 37.7331 38.3076 37.7332C38.1168 37.7332 37.9298 37.7094 37.751 37.6628V37.7166C37.751 38.2929 37.5172 38.8164 37.1396 39.1941C36.762 39.5718 36.2385 39.8063 35.6621 39.8064C35.4492 39.8064 35.2424 39.7737 35.0479 39.7136C35.004 40.1911 34.7921 40.6205 34.4717 40.9402C34.1117 41.3007 33.6128 41.5241 33.0635 41.5242C32.5259 41.5242 31.5135 41.4416 30.3896 41.199C29.6973 41.0491 28.9609 40.8377 28.2627 40.5476L27.7822 41.1492L27.7803 41.1501H27.7822C27.4017 41.6248 26.8609 41.9014 26.2979 41.9636C25.7363 42.0251 25.1491 41.8734 24.6738 41.4929L24.6729 41.4919L24.6719 41.4929C24.2171 41.1283 23.9459 40.6172 23.8691 40.0798C23.6052 40.2386 23.3142 40.3362 23.0107 40.3699C22.4535 40.4313 21.86 40.2856 21.3516 39.9597C21.3064 39.9301 21.256 39.8939 21.2031 39.8523H21.2021C20.7483 39.4952 20.5221 38.984 20.4824 38.4558C20.4758 38.367 20.4757 38.2776 20.4795 38.1882C20.3043 38.2521 20.1227 38.2971 19.9385 38.3171C19.3557 38.3821 18.7471 38.2298 18.2959 37.8904L18.2549 37.8591L18.25 37.8552C17.7615 37.4656 17.5105 36.9204 17.4658 36.364C17.433 35.9549 17.5126 35.5368 17.6914 35.1707C17.1644 35.2013 16.6237 35.049 16.1797 34.6941L16.1787 34.6921V34.6931C15.7042 34.3133 15.4275 33.7736 15.3652 33.2107C15.303 32.6491 15.4545 32.0617 15.835 31.5857L15.8369 31.5847L16.0156 31.3601C15.8975 31.0731 15.7816 30.8344 15.6133 30.6013C15.399 30.3057 15.0862 29.9923 14.5635 29.5701C14.4391 29.4697 14.3918 29.3098 14.4277 29.1638C14.4271 29.1402 14.4279 29.1158 14.4316 29.0916C14.769 26.9486 15.4557 25.134 16.4268 23.5808C17.4 22.024 18.6558 20.7285 20.1299 19.6257C20.3067 19.4943 20.5572 19.5301 20.6895 19.7068C20.6928 19.7113 20.6951 19.7168 20.6982 19.7214C21.1005 20.2686 21.5208 20.5585 22.1035 20.7068C22.7149 20.8627 23.5176 20.8761 24.6387 20.863C25.2493 20.2452 25.7199 19.9035 26.7002 19.6365C27.2582 19.4844 27.9709 19.3616 28.7148 19.2732C29.5416 19.1749 30.4271 19.1147 31.1895 19.0984ZM26.832 37.199C26.5305 37.2321 26.2399 37.362 26.0107 37.5808L24.792 39.1277C24.6673 39.3765 24.6225 39.6537 24.6523 39.9216C24.6919 40.2823 24.8685 40.6285 25.1719 40.8718L25.1709 40.8728C25.4735 41.1146 25.8493 41.2101 26.21 41.1707C26.5714 41.131 26.9175 40.9536 27.1602 40.6501L27.1611 40.6511L27.8096 39.8406C27.8228 39.8206 27.8383 39.8028 27.8545 39.7859L28.0928 39.488C28.3354 39.1853 28.4312 38.8082 28.3916 38.446C28.3512 38.0855 28.1747 37.7393 27.8721 37.4968C27.5701 37.2552 27.1933 37.1594 26.832 37.199ZM20.3037 20.5017C19.0374 21.4948 17.954 22.6436 17.1055 24.0017C16.2051 25.4424 15.5639 27.1209 15.2393 29.0964C15.7173 29.4968 16.0289 29.8171 16.2598 30.1365C16.3865 30.312 16.486 30.4826 16.5752 30.6609L17.2549 29.8123L17.2559 29.8113H17.2549C17.6347 29.3367 18.1753 29.06 18.7383 28.9978C19.2998 28.9356 19.8871 29.0871 20.3623 29.4675L20.3633 29.4685L20.3643 29.4675C20.783 29.8033 21.0472 30.2634 21.1465 30.7537L21.3564 30.491L21.3789 30.4656C21.7566 30.0051 22.2881 29.7364 22.8398 29.6755L23.0479 29.6619C23.535 29.6539 24.027 29.8051 24.4385 30.1238C24.5248 30.1705 24.6051 30.223 24.6787 30.281L24.6797 30.283V30.281C25.0574 30.5823 25.2631 31.0232 25.3154 31.4978C25.3569 31.8688 25.3031 32.2633 25.166 32.6248C25.7073 32.5774 26.27 32.7269 26.7295 33.0886L26.7305 33.0867L26.7422 33.0964C26.7554 33.1062 26.7674 33.1175 26.7793 33.1287C27.205 33.5543 27.4735 34.0961 27.5352 34.6511C27.5946 35.19 27.4621 35.7386 27.0938 36.2068L26.9463 36.3923C27.4447 36.3826 27.9504 36.5406 28.3691 36.8757C28.8451 37.2562 29.1222 37.7969 29.1846 38.3591C29.243 38.8864 29.1094 39.4341 28.7783 39.8933C29.3664 40.1214 29.9783 40.2924 30.5576 40.4177C31.6165 40.6469 32.5634 40.7253 33.0635 40.7253C33.3923 40.7253 33.6916 40.5904 33.9072 40.3748C34.1228 40.159 34.2568 39.8605 34.2568 39.531C34.2568 39.4592 34.2508 39.3923 34.2412 39.3308C32.1288 38.7812 30.0443 37.8086 27.9912 36.4099C27.8087 36.2861 27.762 36.037 27.8857 35.8552C28.0103 35.6736 28.2587 35.6263 28.4404 35.7507C30.4915 37.1469 32.5652 38.1017 34.6602 38.616C34.662 38.6164 34.6642 38.6175 34.666 38.6179C34.7116 38.6295 34.7547 38.6502 34.7949 38.6785C34.799 38.6813 34.8037 38.6833 34.8076 38.6863C34.8137 38.6909 34.8203 38.6949 34.8262 38.7C34.9392 38.7967 35.071 38.8744 35.2158 38.9275C35.3537 38.9784 35.5051 39.0066 35.6621 39.0066C36.0184 39.0065 36.3406 38.8619 36.5732 38.6287C36.8067 38.396 36.9512 38.073 36.9512 37.7166C36.9512 37.607 36.9393 37.5034 36.916 37.408L36.915 37.407C36.9029 37.3568 36.8866 37.3078 36.8682 37.2595C35.718 36.8862 34.5021 36.3844 33.2236 35.7556C31.8862 35.0964 30.4833 34.3013 29.0186 33.3699C28.8319 33.2518 28.7767 33.0048 28.8945 32.8181C29.0126 32.6321 29.2596 32.577 29.4463 32.6951C30.8955 33.6166 32.2736 34.3993 33.5771 35.0408C34.8705 35.6772 36.1004 36.1802 37.2627 36.5476C37.2912 36.5553 37.3189 36.5665 37.3457 36.5808C37.3571 36.5868 37.3674 36.5944 37.3779 36.6013C37.3875 36.6077 37.3981 36.6136 37.4072 36.6208C37.5329 36.721 37.6762 36.8006 37.8301 36.8542C37.9772 36.9059 38.1386 36.9333 38.3076 36.9333C38.7036 36.9333 39.0623 36.7753 39.3232 36.5193L39.3301 36.5115L39.332 36.5105C39.5923 36.2488 39.7539 35.8867 39.7539 35.4871C39.7539 35.3606 39.7385 35.2411 39.7109 35.1316L39.7031 35.1052C39.6818 35.026 39.6515 34.9502 39.6172 34.8767C38.2443 34.3928 35.3723 32.8874 31.0029 30.3582C30.8129 30.2478 30.7482 30.0044 30.8584 29.8142C30.9686 29.6234 31.2121 29.5585 31.4023 29.6677C35.9001 32.272 38.7744 33.7746 40.0215 34.1736C40.0282 34.1757 40.0345 34.1789 40.041 34.1814C40.0533 34.1861 40.0662 34.19 40.0781 34.196C40.1644 34.2392 40.2583 34.2743 40.3594 34.2976C40.4533 34.3202 40.5535 34.3327 40.6572 34.3328C41.0137 34.3328 41.3369 34.1882 41.5703 33.9548C41.803 33.7214 41.9473 33.3985 41.9473 33.0427C41.9472 32.8207 41.8921 32.6127 41.7959 32.4324C41.6948 32.2442 41.5467 32.0837 41.3691 31.9656C41.3649 31.9628 41.3615 31.9588 41.3574 31.9558C41.3489 31.9497 41.3392 31.9451 41.3311 31.9382C41.3049 31.9161 41.2782 31.8939 41.252 31.8718C41.2483 31.8686 41.2447 31.8654 41.2412 31.8621C39.659 30.5264 38.0689 29.1907 36.1543 27.8738C34.2354 26.5533 31.9688 25.2347 29.6963 23.9177C29.1849 24.0068 28.6626 24.1263 28.0352 24.6023C27.673 24.8774 27.2497 25.2877 26.8154 25.7107C26.377 26.1364 25.9249 26.5753 25.4814 26.9275C25.0104 27.3017 24.5465 27.5804 24.0967 27.7332C23.6101 27.8979 23.1377 27.9178 22.6865 27.7615H22.6846L22.5039 27.6882C22.0869 27.4944 21.713 27.1429 21.502 26.6726C21.3018 26.2249 21.2487 25.672 21.4453 25.0525C21.8007 23.9361 22.9943 22.6121 23.8809 21.6638C23.073 21.6581 22.4401 21.6169 21.9062 21.4812C21.2522 21.3149 20.7572 21.0175 20.3037 20.5017ZM25.2041 33.4216C24.8674 33.4583 24.545 33.6152 24.3096 33.8826L24.0635 34.1921L21.5986 37.321L21.5977 37.3201L21.5967 37.321C21.5755 37.3479 21.5502 37.3852 21.5234 37.4275C21.3446 37.7054 21.2536 38.0583 21.2783 38.3962C21.3024 38.7152 21.434 39.0195 21.6963 39.2253L21.6953 39.2263H21.6963C21.7168 39.2433 21.7466 39.2646 21.7832 39.2878C22.138 39.516 22.5461 39.6187 22.9229 39.5779C23.2595 39.5404 23.5757 39.3837 23.8027 39.0945L24.1416 38.6638C24.197 38.568 24.2578 38.4735 24.3291 38.3845L25.2607 37.2205H25.2627L25.2607 37.2195C25.3101 37.1579 25.3626 37.0996 25.417 37.0447L26.4658 35.7136C26.6964 35.4208 26.7797 35.0764 26.7422 34.739C26.7011 34.3678 26.5165 33.9986 26.2217 33.7009C25.9239 33.474 25.5563 33.3827 25.2041 33.4216ZM22.9268 30.4685V30.4675L22.9258 30.4685C22.5742 30.5067 22.2369 30.6763 21.9971 30.9656L21.9805 30.9871L18.5654 35.2712L18.5527 35.2878L18.5439 35.3005C18.3346 35.5792 18.2334 35.9436 18.2617 36.3015C18.2901 36.6501 18.4458 36.9908 18.7471 37.2312L18.7637 37.2439L18.7764 37.2537C19.0649 37.4708 19.464 37.5673 19.8516 37.5242C20.2045 37.4853 20.544 37.3282 20.7725 37.0417L23.3105 33.8562L23.6338 33.446L23.6611 33.4148C23.6652 33.4098 23.6697 33.4051 23.6738 33.4001L24.1865 32.7576C24.2466 32.6819 24.2996 32.6013 24.3428 32.5193L24.3545 32.4919C24.4958 32.2091 24.5557 31.884 24.5225 31.5857C24.4921 31.3121 24.3822 31.0645 24.1836 30.906V30.905C24.1421 30.872 24.0965 30.8415 24.0459 30.8162C24.0184 30.8035 23.9905 30.7861 23.9658 30.7664C23.6631 30.5252 23.2868 30.4282 22.9268 30.4685ZM18.8252 29.7908C18.4738 29.8297 18.1354 29.999 17.8936 30.2888C17.8809 30.3071 17.867 30.3244 17.8516 30.3406L16.4814 32.0515C16.4681 32.0726 16.4522 32.0928 16.4346 32.1111C16.2089 32.4082 16.12 32.7727 16.1582 33.1228C16.1971 33.4743 16.3663 33.8126 16.6562 34.0544C16.6732 34.0664 16.6896 34.0797 16.7051 34.0945C17.0022 34.3201 17.3669 34.4098 17.7178 34.3708C18.0784 34.3312 18.4252 34.1549 18.667 33.8523L20.1084 32.0505C20.334 31.7528 20.4237 31.388 20.3848 31.0378C20.3458 30.6865 20.1756 30.3497 19.8857 30.1072C19.8681 30.0952 19.8518 30.081 19.8369 30.0662C19.5392 29.8414 19.1759 29.7526 18.8252 29.7908ZM31.2061 19.8943C30.4818 19.9099 29.6248 19.9693 28.8086 20.0662C28.0894 20.1517 27.4138 20.2662 26.9082 20.4041C25.8956 20.6806 25.5173 21.0825 24.7061 21.946L24.7041 21.95L24.6963 21.9587L24.6924 21.9607L24.6738 21.9812C23.825 22.8845 22.534 24.261 22.2051 25.2937C22.0736 25.7081 22.1046 26.0662 22.2305 26.3484C22.3769 26.6742 22.6518 26.907 22.9473 27.0095H22.9463C23.2186 27.1029 23.5197 27.0845 23.8408 26.9763C24.2001 26.8546 24.5844 26.6217 24.9854 26.3035C25.4026 25.9725 25.8376 25.5489 26.2598 25.1394C26.7075 24.7037 27.143 24.2804 27.5547 23.9685C28.3878 23.3371 29.0364 23.2197 29.6807 23.1101C29.7094 23.1031 29.739 23.1004 29.7705 23.1003V23.1023C29.8384 23.1023 29.9078 23.1192 29.9707 23.156L29.9863 23.1638C32.3064 24.5084 34.6269 25.8545 36.6074 27.2175C38.4873 28.5116 40.0428 29.8094 41.5801 31.1062C42.1551 30.8318 42.6896 30.4976 43.1816 30.1052C43.6978 29.693 44.1682 29.2153 44.5928 28.6755C44.3104 27.095 43.6654 25.3416 42.8174 23.7937C42.0228 22.3423 41.0536 21.0774 40.0469 20.3162L39.6865 20.3718L39.6738 20.3738C39.1291 20.4573 38.0426 20.6244 37.0625 20.5925C36.3017 20.5678 35.6398 20.425 34.9639 20.28C34.7745 20.239 34.5824 20.1974 34.3662 20.155C33.9299 20.0695 33.4811 19.9959 32.9805 19.95C32.4698 19.9026 31.8929 19.8794 31.2061 19.8943Z"/>
</mask>
<path d="M31.1895 19.0984L31.2535 22.0977L31.2573 22.0976L31.1895 19.0984ZM33.0527 19.156L33.3338 16.1692L33.3275 16.1686L33.0527 19.156ZM34.5186 19.3708L33.9401 22.3145L33.9427 22.3151L34.5186 19.3708ZM35.1289 19.4988L35.7586 16.5656L35.7575 16.5654L35.1289 19.4988ZM37.0879 19.7957L37.1871 16.7973L37.1844 16.7972L37.0879 19.7957ZM39.5557 19.5837L39.1003 16.6185L39.1001 16.6185L39.5557 19.5837ZM40.0898 19.5017L39.6467 16.5346L39.6345 16.5365L40.0898 19.5017ZM40.1416 19.4988L40.2022 22.4982L40.2099 22.498L40.1416 19.4988ZM40.1602 19.4978L40.0896 22.497C40.1131 22.4975 40.1366 22.4978 40.1602 22.4978V19.4978ZM40.1709 19.4978L40.3308 16.5021C40.2776 16.4992 40.2242 16.4978 40.1709 16.4978V19.4978ZM40.2285 19.5066L39.6315 22.4466L39.6416 22.4486L40.2285 19.5066ZM40.2373 19.5076L40.8994 16.5815L40.8896 16.5793L40.2373 19.5076ZM40.2871 19.5232L39.2478 22.3374L39.2535 22.3395L40.2871 19.5232ZM40.3145 19.533L41.555 16.8015L41.5526 16.8004L40.3145 19.533ZM40.3496 19.5535L41.8621 16.9627L41.8602 16.9615L40.3496 19.5535ZM40.3809 19.571L42.1203 17.1268L42.1192 17.126L40.3809 19.571ZM43.5176 23.4119L46.1491 21.9714L46.1487 21.9705L43.5176 23.4119ZM45.4092 28.7175L48.3702 28.2353L48.37 28.234L45.4092 28.7175ZM45.375 28.9509L42.6642 27.6658L42.6596 27.6756L45.375 28.9509ZM45.3623 28.9734L47.9841 30.4315L47.9887 30.4233L45.3623 28.9734ZM45.335 29.0183L42.9277 27.2281L42.9223 27.2354L45.335 29.0183ZM45.333 29.0222L47.7221 30.8367L47.7266 30.8307L45.333 29.0222ZM43.6787 30.7302L45.5485 33.0763L45.5505 33.0747L43.6787 30.7302ZM42.2324 31.6716L40.8391 29.0148C40.0262 29.4411 39.4532 30.2161 39.2839 31.1182C39.1146 32.0203 39.3676 32.9503 39.9705 33.6424L42.2324 31.6716ZM42.498 32.0544L45.1409 30.6348L45.1395 30.6322L42.498 32.0544ZM42.7471 33.0427H45.7471V33.0426L42.7471 33.0427ZM42.1357 34.5193L44.2571 36.6406L44.2577 36.64L42.1357 34.5193ZM40.6572 35.1316L40.6566 38.1316H40.6572V35.1316ZM40.5234 35.1277L40.7104 32.1335C39.7976 32.0765 38.9087 32.439 38.2961 33.118C37.6835 33.797 37.414 34.7183 37.5642 35.6204L40.5234 35.1277ZM40.5537 35.4871H43.5537V35.4866L40.5537 35.4871ZM39.8955 37.074L41.2371 39.7573C41.5256 39.6131 41.7888 39.4233 42.0168 39.1953L39.8955 37.074ZM39.8936 37.075L38.5519 34.3917C38.1353 34.6 37.773 34.9024 37.4936 35.275L39.8936 37.075ZM39.8877 37.0828L41.9978 39.2153C42.1024 39.1117 42.1993 39.0006 42.2877 38.8828L39.8877 37.0828ZM38.3076 37.7332V40.7332H38.3081L38.3076 37.7332ZM37.751 37.6628L38.5076 34.7598C37.6086 34.5255 36.6517 34.7209 35.9166 35.289C35.1814 35.8571 34.751 36.7338 34.751 37.6628H37.751ZM37.1396 39.1941L39.261 41.3154L39.2613 41.315L37.1396 39.1941ZM35.6621 39.8064V42.8064H35.6624L35.6621 39.8064ZM35.0479 39.7136L35.9338 36.8474C35.0697 36.5803 34.1312 36.7173 33.3795 37.2203C32.6278 37.7233 32.1432 38.5385 32.0604 39.4392L35.0479 39.7136ZM34.4717 40.9402L32.3527 38.8165L32.3487 38.8205L34.4717 40.9402ZM33.0635 41.5242V44.5242H33.0639L33.0635 41.5242ZM30.3896 41.199L29.7548 44.131L29.7567 44.1314L30.3896 41.199ZM28.2627 40.5476L29.4138 37.7772C28.1788 37.2641 26.7532 37.6304 25.9186 38.6754L28.2627 40.5476ZM27.7822 41.1492L29.1239 43.8325C29.5129 43.638 29.8549 43.3612 30.1263 43.0214L27.7822 41.1492ZM27.7803 41.1501L26.4386 38.4669C25.1942 39.0891 24.5409 40.4853 24.8605 41.8394C25.1802 43.1935 26.3889 44.1501 27.7803 44.1501V41.1501ZM27.7822 41.1501L30.1228 43.0268C30.8445 42.1266 30.9861 40.8923 30.4868 39.8521C29.9876 38.8119 28.936 38.1501 27.7822 38.1501V41.1501ZM26.2979 41.9636L26.6244 44.9458L26.6275 44.9455L26.2979 41.9636ZM24.6738 41.4929L22.5525 43.6142C22.6305 43.6922 22.7128 43.7659 22.7989 43.8348L24.6738 41.4929ZM24.6729 41.4919L26.7942 39.3706C25.6226 38.1991 23.7231 38.1991 22.5515 39.3706L24.6729 41.4919ZM24.6719 41.4929L22.7952 43.8335C23.9888 44.7905 25.7114 44.6961 26.7932 43.6142L24.6719 41.4929ZM23.8691 40.0798L26.839 39.6556C26.6968 38.6601 26.0653 37.8021 25.1571 37.3704C24.2489 36.9387 23.1848 36.9907 22.323 37.5089L23.8691 40.0798ZM23.0107 40.3699L23.3396 43.3518L23.3416 43.3516L23.0107 40.3699ZM21.3516 39.9597L19.7053 42.4677C19.7143 42.4736 19.7234 42.4795 19.7326 42.4853L21.3516 39.9597ZM21.2031 39.8523L23.0576 37.4941C22.5289 37.0783 21.8757 36.8523 21.2031 36.8523V39.8523ZM21.2021 39.8523L19.3469 42.2098C19.8757 42.626 20.5292 42.8523 21.2021 42.8523V39.8523ZM20.4824 38.4558L17.4908 38.6802L17.4908 38.6803L20.4824 38.4558ZM20.4795 38.1882L23.4768 38.3149C23.5191 37.3143 23.0593 36.3586 22.2511 35.7672C21.4429 35.1758 20.3929 35.0267 19.452 35.3697L20.4795 38.1882ZM19.9385 38.3171L19.6135 35.3348L19.6059 35.3356L19.9385 38.3171ZM18.2959 37.8904L16.4778 40.2767C16.4826 40.2804 16.4875 40.2841 16.4924 40.2878L18.2959 37.8904ZM18.2549 37.8591L16.3808 40.2017C16.3993 40.2165 16.4179 40.2311 16.4368 40.2454L18.2549 37.8591ZM18.25 37.8552L20.1241 35.5126L20.1207 35.5099L18.25 37.8552ZM17.4658 36.364L14.4754 36.6036L14.4754 36.604L17.4658 36.364ZM17.6914 35.1707L20.387 36.4874C20.8548 35.5297 20.7794 34.3957 20.1888 33.5084C19.5982 32.6211 18.5812 32.1138 17.5171 32.1757L17.6914 35.1707ZM16.1797 34.6941L13.4964 36.0357C13.6908 36.4244 13.9672 36.7663 14.3067 37.0376L16.1797 34.6941ZM16.1787 34.6921L18.862 33.3505C18.2398 32.1061 16.8436 31.4527 15.4895 31.7724C14.1353 32.0921 13.1787 33.3008 13.1787 34.6921H16.1787ZM16.1787 34.6931L14.3042 37.0354C15.2047 37.756 16.4385 37.8967 17.478 37.3971C18.5176 36.8976 19.1787 35.8464 19.1787 34.6931H16.1787ZM15.3652 33.2107L18.347 32.8807L18.347 32.8802L15.3652 33.2107ZM15.835 31.5857L14.4933 28.9024C14.1047 29.0967 13.7629 29.3732 13.4916 29.7126L15.835 31.5857ZM15.8369 31.5847L17.1786 34.268C17.5692 34.0727 17.9125 33.7944 18.1845 33.4526L15.8369 31.5847ZM16.0156 31.3601L18.3632 33.228C19.0409 32.3762 19.2041 31.2242 18.7896 30.2178L16.0156 31.3601ZM15.6133 30.6013L18.0453 28.8448L18.0423 28.8406L15.6133 30.6013ZM14.5635 29.5701L16.4487 27.2364L16.4479 27.2357L14.5635 29.5701ZM14.4277 29.1638L17.3409 29.8803C17.4054 29.6181 17.4342 29.3485 17.4265 29.0786L14.4277 29.1638ZM14.4316 29.0916L11.4681 28.625L11.4662 28.6376L14.4316 29.0916ZM16.4268 23.5808L18.9705 25.1712L18.9706 25.1711L16.4268 23.5808ZM20.1299 19.6257L18.3405 17.2178L18.3328 17.2235L20.1299 19.6257ZM20.6895 19.7068L23.0964 17.916L23.0915 17.9095L20.6895 19.7068ZM20.6982 19.7214L18.2185 21.4098C18.2389 21.4398 18.2598 21.4694 18.2812 21.4985L20.6982 19.7214ZM22.1035 20.7068L22.8447 17.7998L22.8435 17.7995L22.1035 20.7068ZM24.6387 20.863L24.6735 23.8628C25.4632 23.8537 26.2174 23.5335 26.7725 22.9718L24.6387 20.863ZM26.7002 19.6365L27.4886 22.531L27.4888 22.531L26.7002 19.6365ZM28.7148 19.2732L29.0688 22.2522L29.0691 22.2522L28.7148 19.2732ZM26.832 37.199L26.5052 34.2168L26.5044 34.2169L26.832 37.199ZM26.0107 37.5808L23.9387 35.4114C23.8366 35.5088 23.7416 35.6134 23.6543 35.7242L26.0107 37.5808ZM24.792 39.1277L22.4355 37.2711C22.31 37.4304 22.201 37.602 22.1101 37.7833L24.792 39.1277ZM24.6523 39.9216L27.6344 39.5942L27.6339 39.589L24.6523 39.9216ZM25.1719 40.8718L27.2932 42.9931C27.8961 42.3902 28.214 41.5592 28.1674 40.7078C28.1208 39.8563 27.714 39.065 27.0488 38.5315L25.1719 40.8718ZM25.1709 40.8728L23.0496 38.7515C22.446 39.3551 22.1281 40.1873 22.1755 41.0396C22.223 41.8919 22.6313 42.6836 23.2981 43.2165L25.1709 40.8728ZM26.21 41.1707L26.5366 44.1528L26.5368 44.1528L26.21 41.1707ZM27.1602 40.6501L29.2815 38.5288C28.678 37.9253 27.846 37.6074 26.9938 37.6548C26.1417 37.7021 25.35 38.1101 24.817 38.7767L27.1602 40.6501ZM27.1611 40.6511L25.0398 42.7724C25.6432 43.3758 26.475 43.6937 27.327 43.6465C28.1791 43.5993 28.9707 43.1915 29.5037 42.5252L27.1611 40.6511ZM27.8096 39.8406L30.1522 41.7147C30.2094 41.6432 30.2632 41.5691 30.3136 41.4928L27.8096 39.8406ZM27.8545 39.7859L30.0242 41.8576C30.0847 41.7943 30.1424 41.7284 30.1971 41.66L27.8545 39.7859ZM28.0928 39.488L25.7518 37.612L25.7502 37.614L28.0928 39.488ZM28.3916 38.446L31.3738 38.1199L31.3729 38.1119L28.3916 38.446ZM27.8721 37.4968L29.7482 35.1558L29.7464 35.1544L27.8721 37.4968ZM20.3037 20.5017L22.5567 18.5208C21.5059 17.3256 19.7047 17.159 18.4524 18.1411L20.3037 20.5017ZM17.1055 24.0017L19.6495 25.5916L19.6498 25.5912L17.1055 24.0017ZM15.2393 29.0964L12.279 28.6099C12.107 29.6563 12.5002 30.7158 13.3133 31.3966L15.2393 29.0964ZM16.2598 30.1365L18.6917 28.3799L18.6912 28.3791L16.2598 30.1365ZM16.5752 30.6609L13.8918 32.0024C14.3492 32.9172 15.2411 33.536 16.2582 33.6441C17.2753 33.7522 18.2774 33.3346 18.9167 32.5363L16.5752 30.6609ZM17.2549 29.8123L15.1336 27.6909C15.0557 27.7688 14.9822 27.8509 14.9133 27.9369L17.2549 29.8123ZM17.2559 29.8113L19.3772 31.9326C20.2352 31.0746 20.4918 29.7843 20.0275 28.6632C19.5632 27.5422 18.4692 26.8113 17.2559 26.8113V29.8113ZM17.2549 29.8113L14.9126 27.9368C14.192 28.8372 14.0513 30.0711 14.5509 31.1106C15.0504 32.1501 16.1016 32.8113 17.2549 32.8113V29.8113ZM18.7383 28.9978L19.0679 31.9796L19.0685 31.9796L18.7383 28.9978ZM20.3623 29.4675L22.4836 27.3462C22.4056 27.2682 22.3233 27.1945 22.2371 27.1255L20.3623 29.4675ZM20.3633 29.4685L18.242 31.5898C19.4135 32.7614 21.313 32.7614 22.4846 31.5898L20.3633 29.4685ZM20.3643 29.4675L22.2409 27.127C21.0473 26.1699 19.3247 26.2644 18.2429 27.3462L20.3643 29.4675ZM21.1465 30.7537L18.2061 31.3489C18.4373 32.4909 19.3088 33.3957 20.4413 33.6696C21.5738 33.9435 22.7625 33.5368 23.4899 32.6267L21.1465 30.7537ZM21.3564 30.491L19.1095 28.5032C19.0764 28.5407 19.0442 28.5789 19.013 28.6179L21.3564 30.491ZM21.3789 30.4656L23.6259 32.4533C23.6506 32.4254 23.6748 32.397 23.6984 32.3682L21.3789 30.4656ZM22.8398 29.6755L22.6431 26.682C22.599 26.6849 22.555 26.6888 22.5111 26.6936L22.8398 29.6755ZM23.0479 29.6619L22.9987 26.6623C22.9495 26.6631 22.9003 26.6651 22.8511 26.6683L23.0479 29.6619ZM24.4385 30.1238L22.6016 32.4957C22.7306 32.5956 22.8675 32.6848 23.011 32.7624L24.4385 30.1238ZM24.6787 30.281L27.362 28.9394C27.1647 28.5447 26.8827 28.1984 26.5362 27.9252L24.6787 30.281ZM24.6797 30.283L21.9964 31.6246C22.6186 32.869 24.0148 33.5224 25.3689 33.2027C26.7231 32.883 27.6797 31.6743 27.6797 30.283H24.6797ZM24.6797 30.281L26.5506 27.9358C25.6496 27.2171 24.4167 27.078 23.3783 27.578C22.3399 28.0779 21.6797 29.1285 21.6797 30.281H24.6797ZM25.3154 31.4978L22.3335 31.8268L22.334 31.8312L25.3154 31.4978ZM25.166 32.6248L22.3611 31.5605C21.9949 32.5258 22.1507 33.6115 22.7736 34.4348C23.3965 35.2581 24.3989 35.7033 25.4274 35.6133L25.166 32.6248ZM26.7295 33.0886L24.874 35.446C25.5826 36.0038 26.5046 36.2132 27.3846 36.0162C28.2647 35.8193 29.0095 35.2369 29.4128 34.4303L26.7295 33.0886ZM26.7305 33.0867L28.651 30.782C27.947 30.1953 27.0133 29.9626 26.1162 30.1502C25.2191 30.3379 24.4571 30.9253 24.0472 31.745L26.7305 33.0867ZM26.7422 33.0964L24.8216 35.4011C24.8664 35.4384 24.9123 35.4744 24.9591 35.509L26.7422 33.0964ZM26.7793 33.1287L28.9006 31.0073C28.8792 30.9859 28.8574 30.9648 28.8354 30.944L26.7793 33.1287ZM27.5352 34.6511L30.5171 34.3224L30.5168 34.3199L27.5352 34.6511ZM27.0938 36.2068L29.4424 38.0733C29.4454 38.0695 29.4484 38.0657 29.4515 38.0618L27.0938 36.2068ZM26.9463 36.3923L24.5977 34.5258C23.8746 35.4356 23.7421 36.681 24.2574 37.7226C24.7726 38.7642 25.8431 39.4145 27.005 39.3918L26.9463 36.3923ZM28.3691 36.8757L26.4945 39.2179L26.4959 39.219L28.3691 36.8757ZM29.1846 38.3591L32.1663 38.0287L32.1663 38.0286L29.1846 38.3591ZM28.7783 39.8933L26.3449 38.1388C25.8016 38.8923 25.638 39.8549 25.9019 40.7455C26.1658 41.6361 26.8273 42.3543 27.6933 42.6902L28.7783 39.8933ZM30.5576 40.4177L31.1922 37.4856L31.192 37.4856L30.5576 40.4177ZM33.0635 40.7253V43.7253H33.0643L33.0635 40.7253ZM33.9072 40.3748L36.0285 42.4961L36.0291 42.4955L33.9072 40.3748ZM34.2568 39.531H37.2568V39.5308L34.2568 39.531ZM34.2412 39.3308L37.205 38.8663C37.0201 37.6862 36.1527 36.7283 34.9967 36.4275L34.2412 39.3308ZM27.9912 36.4099L29.6803 33.9306L29.6752 33.9272L27.9912 36.4099ZM27.8857 35.8552L25.4116 34.1585L25.406 34.1667L27.8857 35.8552ZM28.4404 35.7507L26.7456 38.2262L26.7523 38.2307L28.4404 35.7507ZM34.6602 38.616L33.945 41.5295L33.9553 41.532L34.6602 38.616ZM34.666 38.6179L33.9202 41.5238L33.9275 41.5256L34.666 38.6179ZM34.7949 38.6785L36.5227 36.226L36.5197 36.2239L34.7949 38.6785ZM34.8076 38.6863L32.9885 41.0718L32.9923 41.0747L34.8076 38.6863ZM34.8262 38.7L36.7774 36.4212L36.7752 36.4194L34.8262 38.7ZM35.2158 38.9275L36.2549 36.1132L36.2477 36.1105L35.2158 38.9275ZM35.6621 39.0066V42.0066H35.6627L35.6621 39.0066ZM36.5732 38.6287L34.4551 36.5041L34.4492 36.51L36.5732 38.6287ZM36.9512 37.7166H39.9512V37.716L36.9512 37.7166ZM36.916 37.408L39.8302 36.6956C39.6998 36.1622 39.4256 35.6749 39.0373 35.2866L36.916 37.408ZM36.915 37.407L33.9997 38.1146C34.1296 38.6498 34.4043 39.1389 34.7937 39.5283L36.915 37.407ZM36.8682 37.2595L39.6708 36.1892C39.3471 35.3417 38.6573 34.6862 37.7944 34.4061L36.8682 37.2595ZM33.2236 35.7556L31.8974 38.4465L31.8996 38.4476L33.2236 35.7556ZM29.0186 33.3699L30.6284 30.8384L30.6223 30.8345L29.0186 33.3699ZM28.8945 32.8181L26.362 31.21L26.3574 31.2171L28.8945 32.8181ZM29.4463 32.6951L31.0561 30.1636L31.0494 30.1593L29.4463 32.6951ZM33.5771 35.0408L32.2525 37.7325L32.2525 37.7325L33.5771 35.0408ZM37.2627 36.5476L36.3586 39.4081C36.3992 39.421 36.4402 39.433 36.4814 39.4441L37.2627 36.5476ZM37.3457 36.5808L35.9344 39.2282L35.9465 39.2345L37.3457 36.5808ZM37.3779 36.6013L39.0365 34.1015L39.0276 34.0956L37.3779 36.6013ZM37.4072 36.6208L39.2772 34.275L39.2743 34.2726L37.4072 36.6208ZM37.8301 36.8542L38.8236 34.0235L38.8187 34.0218L37.8301 36.8542ZM38.3076 36.9333V39.9333H38.3083L38.3076 36.9333ZM39.3232 36.5193L41.4242 38.6608C41.4785 38.6075 41.5308 38.5521 41.581 38.4948L39.3232 36.5193ZM39.3301 36.5115L37.9884 33.8282C37.64 34.0024 37.3289 34.2428 37.0723 34.536L39.3301 36.5115ZM39.332 36.5105L40.6737 39.1938C40.9645 39.0484 41.2298 38.8566 41.4591 38.6261L39.332 36.5105ZM39.7539 35.4871H42.7539V35.4865L39.7539 35.4871ZM39.7109 35.1316L42.6203 34.3996C42.6101 34.3593 42.5991 34.3192 42.5873 34.2793L39.7109 35.1316ZM39.7031 35.1052L36.8059 35.8839C36.8126 35.9085 36.8195 35.9331 36.8267 35.9575L39.7031 35.1052ZM39.6172 34.8767L42.3359 33.6085C41.9952 32.878 41.3748 32.3153 40.6145 32.0473L39.6172 34.8767ZM31.0029 30.3582L29.4957 32.952L29.5 32.9545L31.0029 30.3582ZM30.8584 29.8142L33.4542 31.3182L33.456 31.315L30.8584 29.8142ZM31.4023 29.6677L32.9056 27.0715L32.8964 27.0662L31.4023 29.6677ZM40.0215 34.1736L40.9383 31.3171L40.9356 31.3163L40.0215 34.1736ZM40.041 34.1814L41.1136 31.3797L41.1043 31.3761L40.041 34.1814ZM40.0781 34.196L38.7326 36.8774L38.7369 36.8795L40.0781 34.196ZM40.3594 34.2976L41.0608 31.3808C41.0518 31.3786 41.0429 31.3765 41.034 31.3744L40.3594 34.2976ZM40.6572 34.3328L40.6562 37.3328H40.6572V34.3328ZM41.5703 33.9548L43.6915 36.0763L43.6948 36.0729L41.5703 33.9548ZM41.9473 33.0427H44.9473V33.0425L41.9473 33.0427ZM41.7959 32.4324L44.443 31.0206L44.4383 31.0119L41.7959 32.4324ZM41.3691 31.9656L43.0309 29.4679L43.025 29.464L41.3691 31.9656ZM41.3574 31.9558L39.609 34.3937L39.6091 34.3937L41.3574 31.9558ZM41.3311 31.9382L39.3958 34.2306L39.3977 34.2321L41.3311 31.9382ZM41.252 31.8718L39.2526 34.1085C39.2737 34.1274 39.2951 34.1459 39.3168 34.1642L41.252 31.8718ZM41.2412 31.8621L43.3213 29.7003C43.2744 29.6552 43.2261 29.6116 43.1764 29.5696L41.2412 31.8621ZM36.1543 27.8738L34.4536 30.3451L34.4542 30.3455L36.1543 27.8738ZM29.6963 23.9177L31.2005 21.3221C30.5906 20.9686 29.8757 20.8412 29.1812 20.9623L29.6963 23.9177ZM28.0352 24.6023L26.2218 22.2124L26.2202 22.2136L28.0352 24.6023ZM26.8154 25.7107L28.9053 27.863L28.9086 27.8598L26.8154 25.7107ZM25.4814 26.9275L23.6156 24.5783L23.6155 24.5784L25.4814 26.9275ZM24.0967 27.7332L25.0588 30.5747L25.0614 30.5738L24.0967 27.7332ZM22.6865 27.7615L23.6685 24.9267C23.3526 24.8173 23.0208 24.7615 22.6865 24.7615V27.7615ZM22.6846 27.7615L21.5575 30.5417C21.9155 30.6868 22.2982 30.7615 22.6846 30.7615V27.7615ZM22.5039 27.6882L21.2391 30.4086C21.2845 30.4297 21.3304 30.4496 21.3768 30.4685L22.5039 27.6882ZM21.502 26.6726L18.7631 27.8968L18.7648 27.9007L21.502 26.6726ZM21.4453 25.0525L18.5867 24.1423L18.5859 24.145L21.4453 25.0525ZM23.8809 21.6638L26.0723 23.7126C26.8858 22.8424 27.1074 21.5734 26.637 20.4791C26.1666 19.3847 25.0933 18.6724 23.9022 18.6639L23.8809 21.6638ZM21.9062 21.4812L21.1668 24.3887L21.1673 24.3888L21.9062 21.4812ZM25.2041 33.4216L25.529 36.404L25.5334 36.4035L25.2041 33.4216ZM24.3096 33.8826L22.058 31.9C22.0248 31.9378 21.9925 31.9764 21.9612 32.0157L24.3096 33.8826ZM24.0635 34.1921L21.7151 32.3253L21.7069 32.3357L24.0635 34.1921ZM21.5986 37.321L19.4773 39.4424C20.0835 40.0485 20.92 40.3664 21.7758 40.3158C22.6315 40.2652 23.4248 39.8509 23.9552 39.1775L21.5986 37.321ZM21.5977 37.3201L23.719 35.1987C22.5474 34.0272 20.6479 34.0272 19.4763 35.1987L21.5977 37.3201ZM21.5967 37.321L19.4754 35.1997C19.3922 35.2829 19.3139 35.371 19.2411 35.4634L21.5967 37.321ZM21.5234 37.4275L24.0464 39.0507C24.0502 39.0447 24.0541 39.0387 24.0579 39.0326L21.5234 37.4275ZM21.2783 38.3962L18.2863 38.6153L18.2868 38.6219L21.2783 38.3962ZM21.6963 39.2253L23.8176 41.3467C24.4245 40.7398 24.7424 39.902 24.6909 39.0453C24.6394 38.1886 24.2234 37.395 23.5482 36.8652L21.6963 39.2253ZM21.6953 39.2263L19.574 37.105C18.716 37.963 18.4593 39.2533 18.9237 40.3744C19.388 41.4954 20.4819 42.2263 21.6953 42.2263V39.2263ZM21.6963 39.2263L23.6082 36.9145C23.0704 36.4697 22.3943 36.2263 21.6963 36.2263V39.2263ZM21.7832 39.2878L23.4059 36.7646C23.401 36.7614 23.396 36.7582 23.3911 36.7551L21.7832 39.2878ZM22.9229 39.5779L23.2462 42.5604L23.2548 42.5595L22.9229 39.5779ZM23.8027 39.0945L21.4451 37.2394L21.443 37.242L23.8027 39.0945ZM24.1416 38.6638L26.4993 40.5189C26.5877 40.4066 26.6679 40.288 26.7394 40.1642L24.1416 38.6638ZM24.3291 38.3845L26.6707 40.2599L26.6713 40.2591L24.3291 38.3845ZM25.2607 37.2205V34.2205C24.3496 34.2205 23.4878 34.6345 22.9185 35.3459L25.2607 37.2205ZM25.2627 37.2205V40.2205C26.654 40.2205 27.8628 39.2638 28.1824 37.9097C28.5021 36.5556 27.8488 35.1594 26.6043 34.5372L25.2627 37.2205ZM25.2607 37.2195L22.9202 35.3428C22.3531 36.0501 22.1362 36.9759 22.3302 37.8615C22.5242 38.747 23.1083 39.4973 23.9191 39.9028L25.2607 37.2195ZM25.417 37.0447L27.5473 39.157C27.6274 39.0762 27.7029 38.9908 27.7734 38.9014L25.417 37.0447ZM26.4658 35.7136L28.8222 37.5704L28.8228 37.5696L26.4658 35.7136ZM26.7422 34.739L23.7604 35.069L23.7605 35.0703L26.7422 34.739ZM26.2217 33.7009L28.3533 31.5899C28.2555 31.4912 28.1509 31.3993 28.0403 31.315L26.2217 33.7009ZM22.9268 30.4685H19.9268C19.9268 31.3223 20.2905 32.1356 20.927 32.7048C21.5634 33.2739 22.4121 33.5449 23.2606 33.4499L22.9268 30.4685ZM22.9268 30.4675H25.9268C25.9268 29.2541 25.1958 28.1602 24.0748 27.6959C22.9538 27.2315 21.6634 27.4882 20.8054 28.3462L22.9268 30.4675ZM22.9258 30.4685L23.2498 33.451C23.9295 33.3771 24.5636 33.0733 25.0471 32.5898L22.9258 30.4685ZM21.9971 30.9656L19.6873 29.0511C19.6655 29.0775 19.6441 29.1042 19.6232 29.1312L21.9971 30.9656ZM21.9805 30.9871L24.3264 32.857C24.3358 32.8452 24.3451 32.8334 24.3543 32.8214L21.9805 30.9871ZM18.5654 35.2712L16.2195 33.4013C16.207 33.417 16.1946 33.4329 16.1824 33.4489L18.5654 35.2712ZM18.5527 35.2878L16.1697 33.4655C16.1409 33.5031 16.1131 33.5413 16.0862 33.5802L18.5527 35.2878ZM18.5439 35.3005L20.9425 37.1024C20.9658 37.0715 20.9885 37.04 21.0105 37.0082L18.5439 35.3005ZM18.2617 36.3015L15.271 36.5379L15.2716 36.5446L18.2617 36.3015ZM18.7471 37.2312L16.8757 39.576C16.8919 39.5889 16.9082 39.6017 16.9247 39.6143L18.7471 37.2312ZM18.7637 37.2439L20.5928 34.866L20.586 34.8608L18.7637 37.2439ZM18.7764 37.2537L16.9472 39.6315C16.9557 39.638 16.9641 39.6444 16.9726 39.6508L18.7764 37.2537ZM19.8516 37.5242L19.5229 34.5422L19.5199 34.5426L19.8516 37.5242ZM20.7725 37.0417L23.1179 38.9123L23.1188 38.9112L20.7725 37.0417ZM23.3105 33.8562L25.6569 35.7256C25.6602 35.7215 25.6635 35.7173 25.6668 35.7131L23.3105 33.8562ZM23.6338 33.446L21.3761 31.4705C21.3422 31.5092 21.3094 31.5487 21.2776 31.5891L23.6338 33.446ZM23.6611 33.4148L25.9189 35.3903C25.9403 35.3658 25.9613 35.341 25.982 35.3158L23.6611 33.4148ZM23.6738 33.4001L25.978 35.3213C25.9918 35.3047 26.0054 35.288 26.0189 35.2712L23.6738 33.4001ZM24.1865 32.7576L26.5316 34.6286L26.5355 34.6236L24.1865 32.7576ZM24.3428 32.5193L26.998 33.9156C27.0349 33.8454 27.069 33.7739 27.1002 33.701L24.3428 32.5193ZM24.3545 32.4919L21.6709 31.1509C21.6448 31.2033 21.6201 31.2564 21.5971 31.3102L24.3545 32.4919ZM24.5225 31.5857L21.5408 31.917L21.5409 31.9176L24.5225 31.5857ZM24.1836 30.906H21.1836C21.1836 31.8188 21.5991 32.6819 22.3126 33.2511L24.1836 30.906ZM24.1836 30.905H27.1836C27.1836 29.991 26.7669 29.1268 26.0517 28.5577L24.1836 30.905ZM24.0459 30.8162L25.3894 28.1338C25.3608 28.1195 25.3321 28.1057 25.3031 28.0923L24.0459 30.8162ZM23.9658 30.7664L25.8388 28.4228L25.8352 28.42L23.9658 30.7664ZM18.8252 29.7908L18.5007 26.8084L18.4952 26.809L18.8252 29.7908ZM17.8936 30.2888L15.5903 28.3666C15.5326 28.4357 15.4782 28.5073 15.427 28.5812L17.8936 30.2888ZM17.8516 30.3406L15.6814 28.2692C15.6214 28.3321 15.5642 28.3975 15.5099 28.4654L17.8516 30.3406ZM16.4814 32.0515L14.1398 30.1763C14.0706 30.2627 14.0062 30.3528 13.947 30.4464L16.4814 32.0515ZM16.4346 32.1111L14.2703 30.0336C14.1904 30.1168 14.1153 30.2046 14.0455 30.2966L16.4346 32.1111ZM16.1582 33.1228L13.1759 33.4481L13.1764 33.453L16.1582 33.1228ZM16.6562 34.0544L14.7345 36.3581C14.7952 36.4087 14.8578 36.4569 14.9222 36.5025L16.6562 34.0544ZM16.7051 34.0945L14.6346 36.2654C14.7158 36.3429 14.8012 36.4157 14.8905 36.4835L16.7051 34.0945ZM17.7178 34.3708L17.3896 31.3888L17.3871 31.3891L17.7178 34.3708ZM18.667 33.8523L16.3244 31.9782L16.3233 31.9795L18.667 33.8523ZM20.1084 32.0505L22.451 33.9246C22.4674 33.9041 22.4836 33.8833 22.4995 33.8623L20.1084 32.0505ZM20.3848 31.0378L17.4031 31.3687L17.4031 31.3691L20.3848 31.0378ZM19.8857 30.1072L21.8108 27.8063C21.7345 27.7424 21.655 27.6824 21.5727 27.6264L19.8857 30.1072ZM19.8369 30.0662L21.9582 27.9448C21.8601 27.8467 21.7552 27.7554 21.6444 27.6718L19.8369 30.0662ZM31.2061 19.8943L31.2705 22.8936L31.2709 22.8936L31.2061 19.8943ZM28.8086 20.0662L28.4549 17.0871L28.4541 17.0872L28.8086 20.0662ZM26.9082 20.4041L26.1189 17.5098L26.1178 17.51L26.9082 20.4041ZM24.7061 21.946L22.5195 19.892C22.3203 20.1041 22.1529 20.3441 22.0228 20.6044L24.7061 21.946ZM24.7041 21.95L26.9463 23.943C27.1213 23.7462 27.2696 23.5272 27.3874 23.2916L24.7041 21.95ZM24.6963 21.9587L26.0379 24.642C26.3793 24.4713 26.685 24.2371 26.9385 23.9518L24.6963 21.9587ZM24.6924 21.9607L23.3507 19.2774C23.0173 19.4441 22.7179 19.6715 22.4678 19.948L24.6924 21.9607ZM24.6738 21.9812L26.86 24.0356C26.873 24.0218 26.8858 24.0079 26.8984 23.9939L24.6738 21.9812ZM22.2051 25.2937L19.3466 24.3833L19.3455 24.3865L22.2051 25.2937ZM22.2305 26.3484L19.4907 27.5706L19.4942 27.5784L22.2305 26.3484ZM22.9473 27.0095V30.0095C24.4117 30.0095 25.6621 28.9522 25.9055 27.5081C26.1489 26.0641 25.3142 24.6553 23.9306 24.1753L22.9473 27.0095ZM22.9463 27.0095V24.0095C21.4798 24.0095 20.2282 25.0698 19.9871 26.5163C19.746 27.9629 20.5861 29.3717 21.9733 29.8474L22.9463 27.0095ZM23.8408 26.9763L24.7989 29.8192L24.8032 29.8178L23.8408 26.9763ZM24.9854 26.3035L23.121 23.9531L23.1204 23.9536L24.9854 26.3035ZM26.2598 25.1394L28.3484 27.2929L28.352 27.2894L26.2598 25.1394ZM27.5547 23.9685L29.3665 26.3596L29.3668 26.3593L27.5547 23.9685ZM29.6807 23.1101L30.1839 26.0676C30.2526 26.0559 30.3209 26.0418 30.3886 26.0254L29.6807 23.1101ZM29.7705 23.1003H32.7705C32.7705 22.3042 32.4541 21.5408 31.8909 20.9781C31.3277 20.4154 30.564 20.0996 29.7679 20.1003L29.7705 23.1003ZM29.7705 23.1023H26.7705C26.7705 24.7591 28.1137 26.1023 29.7705 26.1023V23.1023ZM29.9707 23.156L28.4573 25.7463C28.5135 25.7791 28.5708 25.8102 28.6291 25.8393L29.9707 23.156ZM29.9863 23.1638L31.4907 20.5682C31.4373 20.5373 31.3831 20.5081 31.328 20.4805L29.9863 23.1638ZM36.6074 27.2175L38.3085 24.7464L38.3082 24.7462L36.6074 27.2175ZM41.5801 31.1062L39.6457 33.3993C40.5465 34.1591 41.8086 34.3212 42.8721 33.8137L41.5801 31.1062ZM43.1816 30.1052L45.0521 32.4507L45.0539 32.4493L43.1816 30.1052ZM44.5928 28.6755L46.9506 30.5304C47.4799 29.8576 47.6966 28.9907 47.546 28.148L44.5928 28.6755ZM42.8174 23.7937L40.1859 25.2343L40.1863 25.2351L42.8174 23.7937ZM40.0469 20.3162L41.8563 17.9233C41.209 17.4338 40.391 17.2274 39.5889 17.3513L40.0469 20.3162ZM39.6865 20.3718L40.1427 23.3369L40.1445 23.3367L39.6865 20.3718ZM39.6738 20.3738L40.1283 23.3392L40.13 23.3389L39.6738 20.3738ZM37.0625 20.5925L36.9648 23.5909L36.9651 23.5909L37.0625 20.5925ZM34.9639 20.28L34.3293 23.2122L34.3349 23.2133L34.9639 20.28ZM34.3662 20.155L33.7889 23.099L33.7889 23.099L34.3662 20.155ZM32.9805 19.95L32.7033 22.9371L32.7061 22.9374L32.9805 19.95ZM31.1895 19.0984L31.2573 22.0976C31.8671 22.0838 32.3589 22.1049 32.7779 22.1434L33.0527 19.156L33.3275 16.1686C32.67 16.1081 31.9491 16.0804 31.1216 16.0992L31.1895 19.0984ZM33.0527 19.156L32.7717 22.1428C33.202 22.1833 33.5721 22.2422 33.9401 22.3145L34.5186 19.3708L35.097 16.4272C34.5726 16.3241 34.0008 16.232 33.3338 16.1692L33.0527 19.156ZM34.5186 19.3708L33.9427 22.3151C34.1005 22.3459 34.2754 22.384 34.5003 22.4322L35.1289 19.4988L35.7575 16.5654C35.5666 16.5245 35.3199 16.4707 35.0944 16.4266L34.5186 19.3708ZM35.1289 19.4988L34.4992 22.432C35.1064 22.5623 35.9979 22.7621 36.9914 22.7941L37.0879 19.7957L37.1844 16.7972C36.8156 16.7853 36.443 16.7125 35.7586 16.5656L35.1289 19.4988ZM37.0879 19.7957L36.9887 22.794C38.2093 22.8344 39.5307 22.6228 40.0112 22.5489L39.5557 19.5837L39.1001 16.6185C38.8378 16.6588 38.5069 16.7094 38.1445 16.7478C37.7718 16.7873 37.4395 16.8056 37.1871 16.7973L37.0879 19.7957ZM39.5557 19.5837L40.011 22.549L40.5452 22.4669L40.0898 19.5017L39.6345 16.5365L39.1003 16.6185L39.5557 19.5837ZM40.0898 19.5017L40.533 22.4688C40.3996 22.4887 40.2942 22.4945 40.243 22.4967C40.2165 22.4978 40.1967 22.4983 40.1911 22.4984C40.1882 22.4984 40.1863 22.4985 40.1887 22.4984C40.1898 22.4984 40.1958 22.4983 40.2022 22.4982L40.1416 19.4988L40.081 16.4994C40.0832 16.4993 40.0849 16.4993 40.0817 16.4994C40.0799 16.4994 40.0736 16.4995 40.0664 16.4997C40.0522 16.5 40.0238 16.5006 39.9887 16.5021C39.9202 16.505 39.7974 16.5121 39.6467 16.5346L40.0898 19.5017ZM40.1416 19.4988L40.2099 22.498C40.2773 22.4965 40.3309 22.493 40.3583 22.491C40.3724 22.49 40.3836 22.4892 40.3878 22.4888C40.3898 22.4887 40.3919 22.4885 40.3914 22.4885C40.3914 22.4885 40.3914 22.4885 40.3914 22.4885C40.3913 22.4885 40.3913 22.4885 40.3912 22.4885C40.391 22.4886 40.3908 22.4886 40.3905 22.4886C40.3899 22.4886 40.3889 22.4887 40.3877 22.4888C40.3808 22.4894 40.3448 22.4923 40.2983 22.4945C40.25 22.4968 40.1776 22.499 40.0896 22.497L40.1602 19.4978L40.2307 16.4986C40.1396 16.4965 40.0641 16.4988 40.0127 16.5013C39.9631 16.5036 39.924 16.5068 39.9141 16.5075C39.9111 16.5078 39.9086 16.508 39.908 16.508C39.9067 16.5081 39.9081 16.508 39.9093 16.5079C39.912 16.5077 39.9216 16.5069 39.9341 16.5061C39.9585 16.5043 40.009 16.501 40.0733 16.4996L40.1416 19.4988ZM40.1602 19.4978V22.4978H40.1709V19.4978V16.4978H40.1602V19.4978ZM40.1709 19.4978L40.011 22.4935C39.8769 22.4864 39.771 22.471 39.7103 22.4609C39.6564 22.452 39.6113 22.4425 39.6315 22.4466L40.2285 19.5066L40.8255 16.5666C40.8239 16.5663 40.8056 16.5625 40.7855 16.5586C40.7636 16.5544 40.7302 16.5481 40.6897 16.5414C40.6097 16.5282 40.4845 16.5103 40.3308 16.5021L40.1709 19.4978ZM40.2285 19.5066L39.6416 22.4486C39.7107 22.4624 39.7723 22.4722 39.8238 22.4792C39.8751 22.4862 39.9189 22.4908 39.9521 22.4939C39.9849 22.497 40.0113 22.4989 40.026 22.4999C40.0336 22.5004 40.0396 22.5008 40.0427 22.501C40.0445 22.5011 40.0485 22.5014 40.0458 22.5012C40.0452 22.5012 40.0303 22.5003 40.0117 22.4989C39.992 22.4974 39.9612 22.4949 39.9234 22.491C39.8853 22.487 39.8368 22.4812 39.7807 22.4726C39.7245 22.4639 39.6585 22.4522 39.585 22.4358L40.2373 19.5076L40.8896 16.5793C40.7433 16.5468 40.6224 16.5314 40.5469 16.5235C40.5084 16.5194 40.4768 16.5169 40.4564 16.5154C40.437 16.5139 40.4214 16.513 40.42 16.5129C40.417 16.5127 40.4206 16.5129 40.4221 16.513C40.4248 16.5132 40.4304 16.5136 40.4376 16.5141C40.4516 16.515 40.4772 16.5169 40.5093 16.5199C40.5417 16.5229 40.5848 16.5274 40.6354 16.5343C40.6862 16.5413 40.747 16.5509 40.8154 16.5646L40.2285 19.5066ZM40.2373 19.5076L39.5752 22.4336C39.4751 22.4109 39.3946 22.3868 39.3414 22.3697C39.2902 22.3532 39.2526 22.3392 39.2478 22.3374L40.2871 19.5232L41.3265 16.709C41.2934 16.6968 41.1211 16.6317 40.8994 16.5815L40.2373 19.5076ZM40.2871 19.5232L39.2535 22.3395C39.3009 22.3569 39.3388 22.3695 39.3538 22.3744C39.358 22.3758 39.3615 22.377 39.3637 22.3777C39.3648 22.378 39.3657 22.3783 39.3663 22.3785C39.3666 22.3786 39.3669 22.3787 39.3671 22.3788C39.3673 22.3789 39.3673 22.3789 39.3674 22.3789C39.3688 22.3793 39.3634 22.3776 39.3567 22.3754C39.3433 22.3709 39.3079 22.3591 39.2627 22.3423C39.2164 22.3251 39.1519 22.2998 39.0763 22.2655L40.3145 19.533L41.5526 16.8004C41.4726 16.7641 41.4036 16.737 41.3528 16.7181C41.303 16.6996 41.263 16.6862 41.245 16.6803C41.236 16.6773 41.2283 16.6748 41.2274 16.6745C41.2243 16.6735 41.229 16.675 41.2341 16.6767C41.2445 16.6801 41.2779 16.6911 41.3207 16.7069L40.2871 19.5232ZM40.3145 19.533L39.0739 22.2645C38.9854 22.2243 38.9133 22.1861 38.8614 22.1572C38.8105 22.1287 38.7718 22.1051 38.7549 22.0946C38.7462 22.0892 38.7397 22.0852 38.7392 22.0848C38.7352 22.0823 38.7437 22.0877 38.7478 22.0902C38.7592 22.0974 38.7942 22.1193 38.839 22.1454L40.3496 19.5535L41.8602 16.9615C41.8991 16.9842 41.9283 17.0026 41.934 17.0061C41.9352 17.0069 41.9409 17.0105 41.934 17.0061C41.9306 17.004 41.9212 16.9981 41.9096 16.9909C41.8704 16.9667 41.7364 16.8839 41.555 16.8015L40.3145 19.533ZM40.3496 19.5535L38.8371 22.1443C38.8974 22.1795 38.9463 22.2053 38.9668 22.216C38.9771 22.2214 38.9862 22.226 38.9863 22.2261C38.989 22.2275 38.9827 22.2243 38.9752 22.2203C38.9603 22.2125 38.9175 22.1901 38.8635 22.1586C38.8081 22.1263 38.731 22.079 38.6425 22.016L40.3809 19.571L42.1192 17.126C42.0258 17.0596 41.9436 17.009 41.883 16.9738C41.8238 16.9393 41.7758 16.914 41.7555 16.9034C41.7499 16.9005 41.7453 16.8981 41.7422 16.8965C41.7394 16.895 41.7368 16.8937 41.7365 16.8935C41.734 16.8922 41.7404 16.8955 41.748 16.8995C41.7633 16.9075 41.8069 16.9304 41.8621 16.9627L40.3496 19.5535ZM40.3809 19.571L38.6414 22.0153C39.2828 22.4717 40.1173 23.449 40.8865 24.8532L43.5176 23.4119L46.1487 21.9705C45.151 20.1493 43.7848 18.3114 42.1203 17.1268L40.3809 19.571ZM43.5176 23.4119L40.886 24.8523C41.6673 26.2797 42.2315 27.8731 42.4484 29.201L45.4092 28.7175L48.37 28.234C48.028 26.14 47.2068 23.9037 46.1491 21.9714L43.5176 23.4119ZM45.4092 28.7175L42.4482 29.1998C42.3555 28.6304 42.4599 28.0967 42.6642 27.6658L45.375 28.9509L48.0858 30.236C48.3568 29.6644 48.4898 28.97 48.3702 28.2353L45.4092 28.7175ZM45.375 28.9509L42.6596 27.6756C42.6924 27.6057 42.7225 27.549 42.7443 27.5092C42.7657 27.4704 42.7831 27.441 42.7893 27.4307C42.7923 27.4255 42.7949 27.4212 42.7939 27.4229C42.7938 27.4231 42.7927 27.4248 42.7916 27.4268C42.7903 27.4288 42.7885 27.432 42.7862 27.4357C42.7781 27.4495 42.7589 27.4819 42.7359 27.5235L45.3623 28.9734L47.9887 30.4233C47.9678 30.4611 47.9508 30.4898 47.9449 30.4998C47.9419 30.5048 47.9394 30.5089 47.9405 30.5071C47.9406 30.5069 47.9443 30.5008 47.9485 30.4938C47.9568 30.4797 47.9764 30.4466 47.9998 30.4041C48.0237 30.3606 48.0558 30.3 48.0904 30.2262L45.375 28.9509ZM45.3623 28.9734L42.7405 27.5153C42.7391 27.5177 42.738 27.5198 42.7372 27.5212C42.7358 27.5237 42.7365 27.5225 42.7357 27.5239C42.7351 27.5249 42.7364 27.5227 42.7383 27.5193C42.7419 27.5129 42.7521 27.4947 42.7661 27.4709C42.7937 27.4243 42.8483 27.3348 42.9277 27.2281L45.335 29.0183L47.7422 30.8086C47.8322 30.6877 47.8962 30.5835 47.9326 30.5217C47.9627 30.4708 47.9945 30.4129 47.9841 30.4315L45.3623 28.9734ZM45.335 29.0183L42.9223 27.2354C42.8429 27.3427 42.7802 27.4426 42.7314 27.5277C42.6829 27.6125 42.6458 27.6868 42.6192 27.7435C42.6057 27.7721 42.5943 27.7977 42.585 27.819C42.5757 27.8403 42.568 27.8585 42.5622 27.8725C42.5565 27.8863 42.552 27.8974 42.5494 27.9039C42.5481 27.9072 42.5471 27.9099 42.5465 27.9113C42.546 27.9126 42.5454 27.9139 42.5457 27.9133C42.5457 27.9132 42.5463 27.9117 42.5471 27.9098C42.5479 27.9077 42.5492 27.9046 42.5507 27.9007C42.5537 27.8932 42.5587 27.8811 42.5649 27.8662C42.5711 27.8512 42.5793 27.8319 42.5892 27.8096C42.599 27.7872 42.6111 27.7607 42.6252 27.731C42.6532 27.6723 42.6918 27.5962 42.7422 27.5098C42.7929 27.4229 42.8577 27.3219 42.9394 27.2137L45.333 29.0222L47.7266 30.8307C47.8085 30.7223 47.8736 30.6209 47.9244 30.5338C47.975 30.447 48.0138 30.3706 48.0419 30.3116C48.0561 30.2817 48.0682 30.255 48.0782 30.2325C48.0881 30.21 48.0964 30.1905 48.1027 30.1754C48.109 30.1603 48.114 30.148 48.1171 30.1403C48.1186 30.1364 48.1199 30.1331 48.1208 30.131C48.1216 30.129 48.1222 30.1274 48.1223 30.1272C48.123 30.1254 48.121 30.1306 48.1187 30.1361C48.1162 30.1424 48.1118 30.1534 48.1062 30.167C48.1005 30.1808 48.0929 30.1989 48.0836 30.22C48.0744 30.2412 48.063 30.2665 48.0496 30.295C48.0232 30.3514 47.9863 30.4254 47.9379 30.5098C47.8893 30.5946 47.8268 30.6942 47.7477 30.8012L45.335 29.0183ZM45.333 29.0222L42.9439 27.2078C42.5878 27.6766 42.2074 28.0661 41.8069 28.3858L43.6787 30.7302L45.5505 33.0747C46.3637 32.4254 47.0866 31.6734 47.7221 30.8367L45.333 29.0222ZM43.6787 30.7302L41.8089 28.3842C41.5109 28.6217 41.1881 28.8318 40.8391 29.0148L42.2324 31.6716L43.6257 34.3285C44.3021 33.9737 44.9452 33.5571 45.5485 33.0763L43.6787 30.7302ZM42.2324 31.6716L39.9705 33.6424C39.9316 33.5977 39.8922 33.5429 39.8566 33.4767L42.498 32.0544L45.1395 30.6322C44.9556 30.2906 44.7371 29.9795 44.4943 29.7009L42.2324 31.6716ZM42.498 32.0544L39.8552 33.4741C39.7878 33.3486 39.7471 33.1997 39.7471 33.0429L42.7471 33.0427L45.7471 33.0426C45.747 32.1728 45.5251 31.3501 45.1409 30.6348L42.498 32.0544ZM42.7471 33.0427H39.7471C39.7471 32.7917 39.852 32.5605 40.0138 32.3986L42.1357 34.5193L44.2577 36.64C45.1744 35.7227 45.7471 34.4462 45.7471 33.0427H42.7471ZM42.1357 34.5193L40.0144 32.398C40.1766 32.2358 40.4065 32.1316 40.6572 32.1316V35.1316V38.1316C42.0609 38.1316 43.3394 37.5582 44.2571 36.6406L42.1357 34.5193ZM40.6572 35.1316L40.6579 32.1316C40.6618 32.1316 40.681 32.1317 40.7104 32.1335L40.5234 35.1277L40.3365 38.1219C40.456 38.1293 40.5639 38.1316 40.6566 38.1316L40.6572 35.1316ZM40.5234 35.1277L37.5642 35.6204C37.5584 35.5855 37.5537 35.5408 37.5537 35.4875L40.5537 35.4871L43.5537 35.4866C43.5537 35.1919 43.528 34.9071 43.4827 34.635L40.5234 35.1277ZM40.5537 35.4871H37.5537C37.5537 35.2759 37.6424 35.0844 37.7742 34.9527L39.8955 37.074L42.0168 39.1953C42.9606 38.2515 43.5537 36.9361 43.5537 35.4871H40.5537ZM39.8955 37.074L38.5539 34.3907L38.5519 34.3917L39.8936 37.075L41.2352 39.7582L41.2371 39.7573L39.8955 37.074ZM39.8936 37.075L37.4936 35.275L37.4877 35.2828L39.8877 37.0828L42.2877 38.8828L42.2936 38.875L39.8936 37.075ZM39.8877 37.0828L37.7776 34.9502C37.9088 34.8204 38.0994 34.7332 38.3071 34.7332L38.3076 37.7332L38.3081 40.7332C39.7477 40.7329 41.0547 40.1484 41.9978 39.2153L39.8877 37.0828ZM38.3076 37.7332V34.7332C38.3652 34.7332 38.4327 34.7403 38.5076 34.7598L37.751 37.6628L36.9944 40.5659C37.4269 40.6786 37.8685 40.7332 38.3076 40.7332V37.7332ZM37.751 37.6628H34.751V37.7166H37.751H40.751V37.6628H37.751ZM37.751 37.7166H34.751C34.751 37.4674 34.8547 37.2364 35.018 37.0731L37.1396 39.1941L39.2613 41.315C40.1797 40.3964 40.751 39.1184 40.751 37.7166H37.751ZM37.1396 39.1941L35.0183 37.0728C35.1797 36.9114 35.41 36.8064 35.6618 36.8064L35.6621 39.8064L35.6624 42.8064C37.067 42.8062 38.3443 42.2321 39.261 41.3154L37.1396 39.1941ZM35.6621 39.8064V36.8064C35.7564 36.8064 35.8479 36.8209 35.9338 36.8474L35.0479 39.7136L34.1619 42.5798C34.6368 42.7266 35.1421 42.8064 35.6621 42.8064V39.8064ZM35.0479 39.7136L32.0604 39.4392C32.0828 39.196 32.1917 38.9771 32.3527 38.8165L34.4717 40.9402L36.5907 43.0638C37.3924 42.2638 37.9252 41.1861 38.0353 39.9881L35.0479 39.7136ZM34.4717 40.9402L32.3487 38.8205C32.5289 38.6401 32.7847 38.5242 33.063 38.5242L33.0635 41.5242L33.0639 44.5242C34.4409 44.524 35.6946 43.9613 36.5947 43.0598L34.4717 40.9402ZM33.0635 41.5242V38.5242C32.7541 38.5242 31.9541 38.4676 31.0226 38.2665L30.3896 41.199L29.7567 44.1314C31.073 44.4156 32.2978 44.5242 33.0635 44.5242V41.5242ZM30.3896 41.199L31.0245 38.2669C30.4636 38.1455 29.9072 37.9823 29.4138 37.7772L28.2627 40.5476L27.1116 43.318C28.0145 43.6932 28.9311 43.9527 29.7548 44.131L30.3896 41.199ZM28.2627 40.5476L25.9186 38.6754L25.4381 39.2769L27.7822 41.1492L30.1263 43.0214L30.6068 42.4198L28.2627 40.5476ZM27.7822 41.1492L26.4406 38.4659L26.4386 38.4669L27.7803 41.1501L29.1219 43.8334L29.1239 43.8325L27.7822 41.1492ZM27.7803 41.1501V44.1501H27.7822V41.1501V38.1501H27.7803V41.1501ZM27.7822 41.1501L25.4417 39.2735C25.5819 39.0986 25.779 39.0027 25.9682 38.9818L26.2979 41.9636L26.6275 44.9455C27.9428 44.8 29.2215 44.1509 30.1228 43.0268L27.7822 41.1501ZM26.2979 41.9636L25.9713 38.9814C26.1618 38.9606 26.375 39.0119 26.5488 39.151L24.6738 41.4929L22.7989 43.8348C23.9232 44.735 25.3108 45.0896 26.6244 44.9458L26.2979 41.9636ZM24.6738 41.4929L26.7951 39.3716L26.7942 39.3706L24.6729 41.4919L22.5515 43.6133L22.5525 43.6142L24.6738 41.4929ZM24.6729 41.4919L22.5515 39.3706L22.5506 39.3716L24.6719 41.4929L26.7932 43.6142L26.7942 43.6133L24.6729 41.4919ZM24.6719 41.4929L26.5485 39.1524C26.7193 39.2893 26.8137 39.4789 26.839 39.6556L23.8691 40.0798L20.8993 40.5041C21.0781 41.7556 21.7148 42.9672 22.7952 43.8335L24.6719 41.4929ZM23.8691 40.0798L22.323 37.5089C22.4322 37.4433 22.5561 37.4019 22.6799 37.3882L23.0107 40.3699L23.3416 43.3516C24.0722 43.2705 24.7782 43.0339 25.4152 42.6507L23.8691 40.0798ZM23.0107 40.3699L22.6819 37.3879C22.774 37.3778 22.841 37.3874 22.8815 37.3974C22.9225 37.4075 22.9508 37.4214 22.9706 37.4341L21.3516 39.9597L19.7326 42.4853C20.7761 43.1543 22.0511 43.4939 23.3396 43.3518L23.0107 40.3699ZM21.3516 39.9597L22.9978 37.4518C23.0151 37.4631 23.028 37.4721 23.0368 37.4785C23.0458 37.485 23.0526 37.4902 23.0576 37.4941L21.2031 39.8523L19.3487 42.2105C19.4627 42.3001 19.5825 42.387 19.7053 42.4677L21.3516 39.9597ZM21.2031 39.8523V36.8523H21.2021V39.8523V42.8523H21.2031V39.8523ZM21.2021 39.8523L23.0574 37.4948C23.3614 37.734 23.4605 38.0517 23.474 38.2313L20.4824 38.4558L17.4908 38.6803C17.5836 39.9162 18.1352 41.2563 19.3469 42.2098L21.2021 39.8523ZM20.4824 38.4558L23.474 38.2315C23.4783 38.2891 23.4765 38.3213 23.4768 38.3149L20.4795 38.1882L17.4822 38.0616C17.4749 38.2339 17.4732 38.4449 17.4908 38.6802L20.4824 38.4558ZM20.4795 38.1882L19.452 35.3697C19.476 35.3609 19.5304 35.3439 19.6135 35.3348L19.9385 38.3171L20.2635 41.2995C20.7151 41.2503 21.1326 41.1433 21.507 41.0068L20.4795 38.1882ZM19.9385 38.3171L19.6059 35.3356C19.6803 35.3273 19.7483 35.3328 19.8152 35.35C19.8815 35.3671 19.9826 35.4052 20.0994 35.493L18.2959 37.8904L16.4924 40.2878C17.6062 41.1256 18.9939 41.4411 20.2711 41.2986L19.9385 38.3171ZM18.2959 37.8904L20.114 35.5041L20.073 35.4728L18.2549 37.8591L16.4368 40.2454L16.4778 40.2767L18.2959 37.8904ZM18.2549 37.8591L20.129 35.5165L20.1241 35.5126L18.25 37.8552L16.3759 40.1978L16.3808 40.2017L18.2549 37.8591ZM18.25 37.8552L20.1207 35.5099C20.3419 35.6864 20.4411 35.9361 20.4562 36.124L17.4658 36.364L14.4754 36.604C14.5798 37.9047 15.1811 39.2448 16.3793 40.2006L18.25 37.8552ZM17.4658 36.364L20.4562 36.1245C20.4664 36.2507 20.4443 36.3701 20.387 36.4874L17.6914 35.1707L14.9958 33.8539C14.5809 34.7034 14.3997 35.659 14.4754 36.6036L17.4658 36.364ZM17.6914 35.1707L17.5171 32.1757C17.683 32.1661 17.8827 32.2148 18.0527 32.3506L16.1797 34.6941L14.3067 37.0376C15.3647 37.8832 16.6457 38.2366 17.8657 38.1656L17.6914 35.1707ZM16.1797 34.6941L18.863 33.3525L18.862 33.3505L16.1787 34.6921L13.4954 36.0338L13.4964 36.0357L16.1797 34.6941ZM16.1787 34.6921H13.1787V34.6931H16.1787H19.1787V34.6921H16.1787ZM16.1787 34.6931L18.0532 32.3508C18.2289 32.4915 18.3259 32.69 18.347 32.8807L15.3652 33.2107L12.3834 33.5407C12.5291 34.8572 13.1794 36.1352 14.3042 37.0354L16.1787 34.6931ZM15.3652 33.2107L18.347 32.8802C18.3683 33.0729 18.3162 33.2863 18.1783 33.4588L15.835 31.5857L13.4916 29.7126C12.5927 30.8371 12.2377 32.2253 12.3835 33.5412L15.3652 33.2107ZM15.835 31.5857L17.1766 34.269L17.1786 34.268L15.8369 31.5847L14.4953 28.9014L14.4933 28.9024L15.835 31.5857ZM15.8369 31.5847L18.1845 33.4526L18.3632 33.228L16.0156 31.3601L13.668 29.4923L13.4893 29.7169L15.8369 31.5847ZM16.0156 31.3601L18.7896 30.2178C18.6318 29.8345 18.4112 29.3514 18.0453 28.8448L15.6133 30.6013L13.1813 32.3578C13.1692 32.3411 13.165 32.3318 13.171 32.3434C13.18 32.3608 13.201 32.4039 13.2416 32.5024L16.0156 31.3601ZM15.6133 30.6013L18.0423 28.8406C17.6047 28.2369 17.0615 27.7315 16.4487 27.2364L14.5635 29.5701L12.6782 31.9037C13.1109 32.2532 13.1933 32.3744 13.1843 32.362L15.6133 30.6013ZM14.5635 29.5701L16.4479 27.2357C17.2751 27.9036 17.5687 28.9543 17.3409 29.8803L14.4277 29.1638L11.5145 28.4473C11.215 29.6654 11.603 31.0358 12.6791 31.9044L14.5635 29.5701ZM14.4277 29.1638L17.4265 29.0786C17.4295 29.1823 17.4277 29.3457 17.3971 29.5455L14.4316 29.0916L11.4662 28.6376C11.4282 28.8859 11.4247 29.098 11.4289 29.249L14.4277 29.1638ZM14.4316 29.0916L17.3951 29.5581C17.6739 27.7876 18.2275 26.3597 18.9705 25.1712L16.4268 23.5808L13.883 21.9905C12.684 23.9083 11.8642 26.1096 11.4681 28.625L14.4316 29.0916ZM16.4268 23.5808L18.9706 25.1711C19.7198 23.9727 20.7053 22.9418 21.9269 22.0279L20.1299 19.6257L18.3328 17.2235C16.6064 18.5151 15.0803 20.0752 13.883 21.9905L16.4268 23.5808ZM20.1299 19.6257L21.9192 22.0337C20.7762 22.8831 19.1506 22.6578 18.2874 21.5041L20.6895 19.7068L23.0915 17.9095C21.9638 16.4024 19.8372 16.1056 18.3405 17.2178L20.1299 19.6257ZM20.6895 19.7068L18.2825 21.4975C18.2082 21.3976 18.1541 21.3117 18.1206 21.256C18.1035 21.2275 18.0899 21.2039 18.0808 21.1877C18.072 21.1721 18.0653 21.1599 18.0637 21.1569C18.063 21.1557 18.0619 21.1536 18.063 21.1556C18.0635 21.1565 18.0653 21.1598 18.0675 21.1639C18.0719 21.1718 18.081 21.1883 18.0928 21.2088C18.1156 21.2486 18.1586 21.3219 18.2185 21.4098L20.6982 19.7214L23.178 18.033C23.2363 18.1186 23.2779 18.1895 23.2993 18.2268C23.3103 18.2462 23.3187 18.2614 23.3224 18.2681C23.3243 18.2715 23.3258 18.2741 23.3259 18.2744C23.3267 18.2758 23.3252 18.2731 23.3242 18.2713C23.3211 18.2656 23.2963 18.2202 23.263 18.1647C23.2281 18.1066 23.1724 18.0182 23.0964 17.916L20.6895 19.7068ZM20.6982 19.7214L18.2812 21.4985C19.0518 22.5465 20.0405 23.2774 21.3635 23.6141L22.1035 20.7068L22.8435 17.7995C22.8415 17.799 22.8673 17.8055 22.9105 17.8246C22.9553 17.8445 23.0042 17.8714 23.0512 17.9043C23.1499 17.9733 23.1693 18.0178 23.1152 17.9443L20.6982 19.7214ZM22.1035 20.7068L21.3623 23.6138C22.4246 23.8846 23.6373 23.8749 24.6735 23.8628L24.6387 20.863L24.6038 17.8632C23.3979 17.8773 23.0053 17.8407 22.8447 17.7998L22.1035 20.7068ZM24.6387 20.863L26.7725 22.9718C27.0065 22.735 27.085 22.6844 27.1104 22.6686C27.1233 22.6607 27.2031 22.6088 27.4886 22.531L26.7002 19.6365L25.9118 16.7419C25.217 16.9312 24.5713 17.1837 23.9512 17.5677C23.3435 17.9441 22.8814 18.3733 22.5048 18.7543L24.6387 20.863ZM26.7002 19.6365L27.4888 22.531C27.8498 22.4326 28.4023 22.3314 29.0688 22.2522L28.7148 19.2732L28.3609 16.2942C27.5395 16.3917 26.6666 16.5363 25.9116 16.742L26.7002 19.6365ZM28.7148 19.2732L29.0691 22.2522C29.7994 22.1654 30.588 22.1119 31.2535 22.0977L31.1895 19.0984L31.1254 16.0991C30.2661 16.1174 29.2837 16.1844 28.3606 16.2942L28.7148 19.2732ZM26.832 37.199L26.5044 34.2169C25.5675 34.3198 24.6583 34.724 23.9387 35.4114L26.0107 37.5808L28.0828 39.7503C27.8214 39.9999 27.4935 40.1444 27.1596 40.181L26.832 37.199ZM26.0107 37.5808L23.6543 35.7242L22.4355 37.2711L24.792 39.1277L27.1485 40.9843L28.3672 39.4374L26.0107 37.5808ZM24.792 39.1277L22.1101 37.7833C21.714 38.5734 21.5796 39.4362 21.6708 40.2542L24.6523 39.9216L27.6339 39.589C27.6653 39.8711 27.6206 40.1795 27.4739 40.4721L24.792 39.1277ZM24.6523 39.9216L21.6703 40.2491C21.7923 41.3601 22.3396 42.446 23.2949 43.2121L25.1719 40.8718L27.0488 38.5315C27.3974 38.8111 27.5916 39.2046 27.6344 39.5942L24.6523 39.9216ZM25.1719 40.8718L23.0506 38.7505L23.0496 38.7515L25.1709 40.8728L27.2922 42.9941L27.2932 42.9931L25.1719 40.8718ZM25.1709 40.8728L23.2981 43.2165C24.2585 43.9839 25.4368 44.2733 26.5366 44.1528L26.21 41.1707L25.8833 38.1885C26.2619 38.147 26.6886 38.2454 27.0436 38.5291L25.1709 40.8728ZM26.21 41.1707L26.5368 44.1528C27.6525 44.0305 28.739 43.4795 29.5033 42.5236L27.1602 40.6501L24.817 38.7767C25.0961 38.4277 25.4903 38.2316 25.8832 38.1885L26.21 41.1707ZM27.1602 40.6501L25.0388 42.7715L25.0398 42.7724L27.1611 40.6511L29.2825 38.5298L29.2815 38.5288L27.1602 40.6501ZM27.1611 40.6511L29.5037 42.5252L30.1522 41.7147L27.8096 39.8406L25.467 37.9665L24.8185 38.777L27.1611 40.6511ZM27.8096 39.8406L30.3136 41.4928C30.184 41.6892 30.0602 41.8199 30.0242 41.8576L27.8545 39.7859L25.6847 37.7141C25.6164 37.7857 25.4616 37.9519 25.3055 38.1884L27.8096 39.8406ZM27.8545 39.7859L30.1971 41.66L30.4354 41.3621L28.0928 39.488L25.7502 37.614L25.5119 37.9118L27.8545 39.7859ZM28.0928 39.488L30.4338 41.3641C31.2056 40.401 31.4941 39.2193 31.3738 38.1199L28.3916 38.446L25.4094 38.7722C25.3684 38.3971 25.4652 37.9696 25.7518 37.612L28.0928 39.488ZM28.3916 38.446L31.3729 38.1119C31.2492 37.0075 30.7046 35.9224 29.7482 35.1558L27.8721 37.4968L25.996 39.8378C25.6447 39.5563 25.4532 39.1634 25.4103 38.7802L28.3916 38.446ZM27.8721 37.4968L29.7464 35.1544C28.7849 34.3851 27.6043 34.0964 26.5052 34.2168L26.832 37.199L27.1588 40.1811C26.7823 40.2224 26.3553 40.1254 25.9977 39.8392L27.8721 37.4968ZM20.3037 20.5017L18.4524 18.1411C16.9526 19.3173 15.6196 20.7181 14.5612 22.4122L17.1055 24.0017L19.6498 25.5912C20.2883 24.5691 21.1223 23.6723 22.155 22.8624L20.3037 20.5017ZM17.1055 24.0017L14.5614 22.4118C13.4375 24.2102 12.6639 26.2679 12.279 28.6099L15.2393 29.0964L18.1995 29.583C18.464 27.9739 18.9727 26.6746 19.6495 25.5916L17.1055 24.0017ZM15.2393 29.0964L13.3133 31.3966C13.6865 31.7091 13.7962 31.8494 13.8284 31.8938L16.2598 30.1365L18.6912 28.3791C18.2617 27.7849 17.7482 27.2844 17.1652 26.7963L15.2393 29.0964ZM16.2598 30.1365L13.8278 31.893C13.8385 31.9079 13.8473 31.9213 13.8558 31.9355C13.8645 31.9501 13.8761 31.9709 13.8918 32.0024L16.5752 30.6609L19.2586 29.3194C19.1087 29.0197 18.9276 28.7065 18.6917 28.3799L16.2598 30.1365ZM16.5752 30.6609L18.9167 32.5363L19.5964 31.6877L17.2549 29.8123L14.9133 27.9369L14.2336 28.7855L16.5752 30.6609ZM17.2549 29.8123L19.3762 31.9336L19.3772 31.9326L17.2559 29.8113L15.1345 27.69L15.1336 27.6909L17.2549 29.8123ZM17.2559 29.8113V26.8113H17.2549V29.8113V32.8113H17.2559V29.8113ZM17.2549 29.8113L19.5971 31.6858C19.4557 31.8626 19.2572 31.9587 19.0679 31.9796L18.7383 28.9978L18.4086 26.016C17.0933 26.1614 15.8138 26.8108 14.9126 27.9368L17.2549 29.8113ZM18.7383 28.9978L19.0685 31.9796C18.8763 32.0009 18.6618 31.9491 18.4875 31.8096L20.3623 29.4675L22.2371 27.1255C21.1123 26.2251 19.7233 25.8704 18.4081 26.016L18.7383 28.9978ZM20.3623 29.4675L18.241 31.5889L18.242 31.5898L20.3633 29.4685L22.4846 27.3472L22.4836 27.3462L20.3623 29.4675ZM20.3633 29.4685L22.4846 31.5898L22.4856 31.5889L20.3643 29.4675L18.2429 27.3462L18.242 27.3472L20.3633 29.4685ZM20.3643 29.4675L18.4876 31.8081C18.3339 31.6848 18.2399 31.5155 18.2061 31.3489L21.1465 30.7537L24.0868 30.1584C23.8546 29.0114 23.2321 27.9217 22.2409 27.127L20.3643 29.4675ZM21.1465 30.7537L23.4899 32.6267L23.6999 32.364L21.3564 30.491L19.013 28.6179L18.803 28.8806L21.1465 30.7537ZM21.3564 30.491L23.6034 32.4787L23.6259 32.4533L21.3789 30.4656L19.1319 28.4779L19.1095 28.5032L21.3564 30.491ZM21.3789 30.4656L23.6984 32.3682C23.5563 32.5414 23.3597 32.6364 23.1686 32.6575L22.8398 29.6755L22.5111 26.6936C21.2166 26.8363 19.9569 27.4688 19.0594 28.563L21.3789 30.4656ZM22.8398 29.6755L23.0366 32.6691L23.2446 32.6554L23.0479 29.6619L22.8511 26.6683L22.6431 26.682L22.8398 29.6755ZM23.0479 29.6619L23.097 32.6615C22.93 32.6642 22.7506 32.6111 22.6016 32.4957L24.4385 30.1238L26.2753 27.7519C25.3033 26.9991 24.14 26.6436 22.9987 26.6623L23.0479 29.6619ZM24.4385 30.1238L23.011 32.7624C22.9548 32.732 22.8901 32.6911 22.8212 32.6368L24.6787 30.281L26.5362 27.9252C26.3202 27.7549 26.0948 27.609 25.8659 27.4851L24.4385 30.1238ZM24.6787 30.281L21.9954 31.6226L21.9964 31.6246L24.6797 30.283L27.363 28.9413L27.362 28.9394L24.6787 30.281ZM24.6797 30.283H27.6797V30.281H24.6797H21.6797V30.283H24.6797ZM24.6797 30.281L22.8088 32.6262C22.4525 32.342 22.3519 31.9932 22.3335 31.8268L25.3154 31.4978L28.2973 31.1688C28.1743 30.0533 27.6622 28.8227 26.5506 27.9358L24.6797 30.281ZM25.3154 31.4978L22.334 31.8312C22.326 31.7598 22.3291 31.7055 22.3341 31.6678C22.3392 31.6297 22.3481 31.5949 22.3611 31.5605L25.166 32.6248L27.9709 33.689C28.2664 32.91 28.3944 32.0373 28.2969 31.1644L25.3154 31.4978ZM25.166 32.6248L25.4274 35.6133C25.2472 35.6291 25.044 35.5798 24.874 35.446L26.7295 33.0886L28.585 30.7313C27.4959 29.8741 26.1674 29.5257 24.9047 29.6362L25.166 32.6248ZM26.7295 33.0886L29.4128 34.4303L29.4138 34.4283L26.7305 33.0867L24.0472 31.745L24.0462 31.747L26.7295 33.0886ZM26.7305 33.0867L24.8099 35.3913L24.8216 35.4011L26.7422 33.0964L28.6627 30.7918L28.651 30.782L26.7305 33.0867ZM26.7422 33.0964L24.9591 35.509C24.8732 35.4455 24.8087 35.3901 24.7721 35.3578C24.7391 35.3285 24.713 35.3036 24.7232 35.3133L26.7793 33.1287L28.8354 30.944C28.8338 30.9425 28.7957 30.9064 28.7504 30.8663C28.7016 30.8231 28.6244 30.7571 28.5253 30.6838L26.7422 33.0964ZM26.7793 33.1287L24.658 35.25C24.6449 35.237 24.6257 35.2138 24.6065 35.175C24.5873 35.1363 24.5635 35.0726 24.5535 34.9823L27.5352 34.6511L30.5168 34.3199C30.3741 33.0355 29.7694 31.8761 28.9006 31.0073L26.7793 33.1287ZM27.5352 34.6511L24.5532 34.9798C24.544 34.8965 24.5474 34.7878 24.5806 34.6662C24.6146 34.5414 24.6719 34.4332 24.736 34.3517L27.0938 36.2068L29.4515 38.0618C30.3381 36.9349 30.6568 35.5898 30.5171 34.3224L27.5352 34.6511ZM27.0938 36.2068L24.7451 34.3402L24.5977 34.5258L26.9463 36.3923L29.2949 38.2589L29.4424 38.0733L27.0938 36.2068ZM26.9463 36.3923L27.005 39.3918C26.8304 39.3952 26.6454 39.3387 26.4945 39.2179L28.3691 36.8757L30.2438 34.5336C29.2554 33.7425 28.0589 33.37 26.8876 33.3929L26.9463 36.3923ZM28.3691 36.8757L26.4959 39.219C26.3216 39.0797 26.2242 38.8822 26.2028 38.6897L29.1846 38.3591L32.1663 38.0286C32.0203 36.7116 31.3685 35.4327 30.2424 34.5324L28.3691 36.8757ZM29.1846 38.3591L26.2028 38.6896C26.181 38.4926 26.2326 38.2945 26.3449 38.1388L28.7783 39.8933L31.2118 41.6478C31.9862 40.5737 32.305 39.2802 32.1663 38.0287L29.1846 38.3591ZM28.7783 39.8933L27.6933 42.6902C28.4581 42.9869 29.2259 43.199 29.9232 43.3499L30.5576 40.4177L31.192 37.4856C30.7308 37.3858 30.2746 37.2559 29.8633 37.0964L28.7783 39.8933ZM30.5576 40.4177L29.923 43.3498C31.1712 43.62 32.3313 43.7253 33.0635 43.7253V40.7253V37.7253C32.7955 37.7253 32.0618 37.6738 31.1922 37.4856L30.5576 40.4177ZM33.0635 40.7253L33.0643 43.7253C34.2259 43.725 35.2776 43.2471 36.0285 42.4961L33.9072 40.3748L31.7859 38.2534C32.1056 37.9338 32.5586 37.7255 33.0627 37.7253L33.0635 40.7253ZM33.9072 40.3748L36.0291 42.4955C36.7825 41.7417 37.2568 40.6899 37.2568 39.531H34.2568H31.2568C31.2568 39.0312 31.4632 38.5763 31.7854 38.254L33.9072 40.3748ZM34.2568 39.531L37.2568 39.5308C37.2568 39.292 37.2369 39.0695 37.205 38.8663L34.2412 39.3308L31.2774 39.7953C31.2648 39.7151 31.2568 39.6265 31.2568 39.5312L34.2568 39.531ZM34.2412 39.3308L34.9967 36.4275C33.2583 35.9752 31.4859 35.1607 29.6803 33.9306L27.9912 36.4099L26.3021 38.8892C28.6027 40.4565 30.9993 41.5872 33.4858 42.2341L34.2412 39.3308ZM27.9912 36.4099L29.6752 33.9272C30.8719 34.7388 31.1712 36.3604 30.3654 37.5437L27.8857 35.8552L25.406 34.1667C24.3527 35.7136 24.7456 37.8334 26.3072 38.8927L27.9912 36.4099ZM27.8857 35.8552L30.3599 37.5519C29.5547 38.726 27.9403 39.0441 26.7456 38.2261L28.4404 35.7507L30.1352 33.2753C28.5772 32.2086 26.4659 32.6213 25.4116 34.1585L27.8857 35.8552ZM28.4404 35.7507L26.7523 38.2307C29.0559 39.7988 31.455 40.9182 33.945 41.5295L34.6602 38.616L35.3753 35.7025C33.6755 35.2852 31.9271 34.495 30.1285 33.2707L28.4404 35.7507ZM34.6602 38.616L33.9553 41.532C33.893 41.5169 33.84 41.502 33.7987 41.4896C33.7572 41.4772 33.7225 41.4658 33.6971 41.4571C33.6716 41.4485 33.6512 41.4412 33.6389 41.4367C33.6271 41.4324 33.6177 41.4289 33.6177 41.4289C33.6163 41.4284 33.6186 41.4293 33.6202 41.4298C33.6223 41.4306 33.6263 41.4321 33.6314 41.434C33.6411 41.4375 33.6591 41.444 33.6816 41.4519C33.7043 41.4597 33.736 41.4704 33.7742 41.4823C33.8123 41.4942 33.8618 41.5088 33.9202 41.5237L34.666 38.6179L35.4118 35.7121C35.4698 35.727 35.5188 35.7414 35.5564 35.7531C35.5942 35.7649 35.6254 35.7754 35.6475 35.7831C35.6696 35.7907 35.6871 35.7971 35.6963 35.8005C35.7011 35.8022 35.7049 35.8036 35.7068 35.8043C35.708 35.8048 35.7101 35.8056 35.7085 35.805C35.708 35.8048 35.6981 35.8011 35.6858 35.7966C35.673 35.792 35.6521 35.7845 35.6261 35.7757C35.6002 35.7669 35.565 35.7553 35.5231 35.7427C35.4813 35.7302 35.4277 35.7151 35.365 35.6999L34.6602 38.616ZM34.666 38.6179L33.9275 41.5256C33.5786 41.437 33.2917 41.2888 33.0701 41.1331L34.7949 38.6785L36.5197 36.2239C36.2176 36.0116 35.8447 35.822 35.4045 35.7102L34.666 38.6179ZM34.7949 38.6785L33.0671 41.131C33.1573 41.1945 33.233 41.2404 33.2756 41.2654C33.2974 41.2783 33.3149 41.2882 33.3239 41.2933C33.3284 41.2959 33.3321 41.2979 33.3334 41.2986C33.334 41.299 33.3347 41.2994 33.3345 41.2992C33.3344 41.2992 33.3343 41.2992 33.3341 41.299C33.3338 41.2989 33.3335 41.2987 33.3331 41.2985C33.3306 41.2971 33.3185 41.2903 33.303 41.2814C33.287 41.2721 33.263 41.2581 33.2342 41.2404C33.1776 41.2056 33.0901 41.1493 32.9885 41.0718L34.8076 38.6863L36.6267 36.3007C36.5232 36.2218 36.4336 36.1641 36.3749 36.128C36.345 36.1097 36.32 36.095 36.3029 36.0851C36.2863 36.0755 36.2731 36.0681 36.2696 36.0662C36.2607 36.0612 36.2712 36.0671 36.2755 36.0695C36.2833 36.0739 36.2998 36.0833 36.3206 36.0955C36.361 36.1193 36.4345 36.1638 36.5227 36.226L34.7949 38.6785ZM34.8076 38.6863L32.9923 41.0747C33.0332 41.1058 33.0663 41.1294 33.0812 41.1399C33.0888 41.1452 33.0951 41.1496 33.096 41.1502C33.0986 41.1521 33.0946 41.1493 33.0905 41.1464C33.082 41.1404 33.0549 41.1213 33.0205 41.0955C32.9851 41.0689 32.9351 41.0301 32.8771 40.9805L34.8262 38.7L36.7752 36.4194C36.7143 36.3673 36.6613 36.3261 36.6228 36.2972C36.5853 36.2691 36.5551 36.2477 36.5434 36.2395C36.5401 36.2372 36.5374 36.2353 36.5358 36.2342C36.535 36.2336 36.5343 36.2331 36.5339 36.2329C36.5337 36.2327 36.5335 36.2326 36.5334 36.2325C36.5333 36.2324 36.5333 36.2324 36.5333 36.2324C36.5326 36.2319 36.5373 36.2352 36.5433 36.2394C36.555 36.2478 36.5851 36.2691 36.6229 36.2978L34.8076 38.6863ZM34.8262 38.7L32.875 40.9787C33.26 41.3084 33.7031 41.5683 34.184 41.7445L35.2158 38.9275L36.2477 36.1105C36.4389 36.1806 36.6185 36.2851 36.7774 36.4212L34.8262 38.7ZM35.2158 38.9275L34.1767 41.7418C34.6444 41.9145 35.1474 42.0066 35.6621 42.0066V39.0066V36.0066C35.8628 36.0066 36.0631 36.0424 36.2549 36.1132L35.2158 38.9275ZM35.6621 39.0066L35.6627 42.0066C36.8472 42.0064 37.9246 41.5219 38.6973 40.7473L36.5732 38.6287L34.4492 36.51C34.7566 36.2019 35.1896 36.0067 35.6616 36.0066L35.6621 39.0066ZM36.5732 38.6287L38.6913 40.7532C39.4685 39.9784 39.9512 38.8992 39.9512 37.7166H36.9512H33.9512C33.9512 37.2469 34.1448 36.8135 34.4551 36.5041L36.5732 38.6287ZM36.9512 37.7166L39.9512 37.716C39.9511 37.3936 39.9166 37.0488 39.8302 36.6956L36.916 37.408L34.0018 38.1203C33.9621 37.9579 33.9512 37.8204 33.9512 37.7171L36.9512 37.7166ZM36.916 37.408L39.0373 35.2866L39.0364 35.2857L36.915 37.407L34.7937 39.5283L34.7947 39.5293L36.916 37.408ZM36.915 37.407L39.8304 36.6993C39.78 36.4919 39.7198 36.3177 39.6708 36.1892L36.8682 37.2595L34.0656 38.3298C34.0533 38.2978 34.0257 38.2217 33.9997 38.1146L36.915 37.407ZM36.8682 37.2595L37.7944 34.4061C36.8021 34.084 35.7196 33.64 34.5476 33.0636L33.2236 35.7556L31.8996 38.4476C33.2846 39.1288 34.634 39.6884 35.9419 40.113L36.8682 37.2595ZM33.2236 35.7556L34.5499 33.0647C33.3229 32.4599 32.0148 31.72 30.6284 30.8384L29.0186 33.3699L27.4087 35.9014C28.9518 36.8827 30.4495 37.7329 31.8974 38.4465L33.2236 35.7556ZM29.0186 33.3699L30.6223 30.8345C31.8405 31.6051 32.1938 33.2113 31.4316 34.4191L28.8945 32.8181L26.3574 31.2171C25.3597 32.7983 25.8234 34.8986 27.4148 35.9052L29.0186 33.3699ZM28.8945 32.8181L31.4271 34.4262C30.6547 35.6427 29.0492 35.9933 27.8432 35.2308L29.4463 32.6951L31.0494 30.1593C29.4699 29.1608 27.3706 29.6215 26.362 31.21L28.8945 32.8181ZM29.4463 32.6951L27.8365 35.2266C29.3616 36.1964 30.8353 37.035 32.2525 37.7325L33.5771 35.0408L34.9018 32.3491C33.712 31.7635 32.4294 31.0368 31.0561 30.1636L29.4463 32.6951ZM33.5771 35.0408L32.2525 37.7325C33.6575 38.4239 35.0286 38.9877 36.3586 39.4081L37.2627 36.5476L38.1668 33.6871C37.1723 33.3727 36.0834 32.9306 34.9018 32.349L33.5771 35.0408ZM37.2627 36.5476L36.4814 39.4441C36.2719 39.3876 36.0892 39.3106 35.9344 39.2281L37.3457 36.5808L38.757 33.9335C38.5487 33.8225 38.3105 33.723 38.044 33.6511L37.2627 36.5476ZM37.3457 36.5808L35.9465 39.2345C35.8273 39.1717 35.74 39.1146 35.7095 39.0945C35.6945 39.0846 35.6819 39.076 35.6877 39.0799C35.6882 39.0803 35.7067 39.0928 35.7283 39.107L37.3779 36.6013L39.0276 34.0956C39.0439 34.1063 39.0571 34.1153 39.0524 34.1121C39.052 34.1119 39.0469 34.1084 39.0413 34.1047C39.0353 34.1006 39.026 34.0943 39.0147 34.0869C38.9736 34.0598 38.8755 33.9959 38.7449 33.9271L37.3457 36.5808ZM37.3779 36.6013L35.7194 39.1012C35.753 39.1235 35.7804 39.1407 35.7878 39.1453C35.805 39.1562 35.7872 39.145 35.7792 39.1399C35.7652 39.1309 35.7344 39.1112 35.6958 39.0845C35.6567 39.0575 35.6027 39.0187 35.5402 38.9691L37.4072 36.6208L39.2743 34.2726C39.1468 34.1713 39.0382 34.102 39.0063 34.0816C38.9932 34.0733 38.9705 34.059 38.9827 34.0667C38.9852 34.0683 39.0076 34.0823 39.0365 34.1015L37.3779 36.6013ZM37.4072 36.6208L35.5372 38.9667C35.9256 39.2763 36.3667 39.5209 36.8414 39.6867L37.8301 36.8542L38.8187 34.0218C38.9858 34.0802 39.1401 34.1657 39.2772 34.275L37.4072 36.6208ZM37.8301 36.8542L36.8366 39.685C37.3162 39.8533 37.8145 39.9333 38.3076 39.9333V36.9333V33.9333C38.4626 33.9333 38.6382 33.9585 38.8236 34.0235L37.8301 36.8542ZM38.3076 36.9333L38.3083 39.9333C39.5171 39.9331 40.6224 39.4474 41.4242 38.6608L39.3232 36.5193L37.2223 34.3778C37.5022 34.1032 37.89 33.9334 38.3069 33.9333L38.3076 36.9333ZM39.3232 36.5193L41.581 38.4948L41.5878 38.487L39.3301 36.5115L37.0723 34.536L37.0655 34.5438L39.3232 36.5193ZM39.3301 36.5115L40.6717 39.1948L40.6737 39.1938L39.332 36.5105L37.9904 33.8272L37.9884 33.8282L39.3301 36.5115ZM39.332 36.5105L41.4591 38.6261C42.2562 37.8246 42.7539 36.7105 42.7539 35.4871H39.7539H36.7539C36.7539 35.0629 36.9284 34.673 37.205 34.3949L39.332 36.5105ZM39.7539 35.4871L42.7539 35.4865C42.7538 35.1177 42.7091 34.7525 42.6203 34.3996L39.7109 35.1316L36.8016 35.8636C36.768 35.7298 36.7539 35.6034 36.7539 35.4876L39.7539 35.4871ZM39.7109 35.1316L42.5873 34.2793L42.5795 34.253L39.7031 35.1052L36.8267 35.9575L36.8345 35.9839L39.7109 35.1316ZM39.7031 35.1052L42.6003 34.3265C42.5191 34.0244 42.4151 33.7781 42.3359 33.6085L39.6172 34.8767L36.8984 36.1449C36.8878 36.1222 36.8446 36.0276 36.8059 35.8839L39.7031 35.1052ZM39.6172 34.8767L40.6145 32.0473C39.5576 31.6748 36.9412 30.3292 32.5058 27.7618L31.0029 30.3582L29.5 32.9545C33.8034 35.4456 36.9309 37.1108 38.6199 37.7061L39.6172 34.8767ZM31.0029 30.3582L32.5102 27.7643C33.7509 28.4852 34.1742 30.0754 33.4542 31.3182L30.8584 29.8142L28.2626 28.3102C27.3222 29.9333 27.875 32.0103 29.4957 32.952L31.0029 30.3582ZM30.8584 29.8142L33.456 31.315C32.7374 32.5587 31.1497 32.9822 29.9083 32.2692L31.4023 29.6677L32.8964 27.0662C31.2746 26.1348 29.1999 26.6881 28.2608 28.3134L30.8584 29.8142ZM31.4023 29.6677L29.8991 32.2639C32.166 33.5765 34.0505 34.627 35.5411 35.4063C36.9724 36.1546 38.2096 36.7437 39.1073 37.0309L40.0215 34.1736L40.9356 31.3163C40.5863 31.2045 39.7628 30.8429 38.3208 30.089C36.938 29.3661 35.1364 28.3632 32.9056 27.0715L31.4023 29.6677ZM40.0215 34.1736L39.1047 37.0301C39.0321 37.0068 38.9731 36.9847 38.9331 36.969C38.8942 36.9538 38.8646 36.9412 38.8564 36.9377C38.8528 36.9362 38.8482 36.9342 38.8522 36.9359C38.8538 36.9366 38.8613 36.9399 38.8706 36.9438C38.8887 36.9514 38.9278 36.9677 38.9777 36.9867L40.041 34.1814L41.1043 31.3761C41.151 31.3938 41.1869 31.4089 41.2017 31.4151C41.2094 31.4183 41.2153 31.4209 41.2153 31.4209C41.2177 31.4219 41.2115 31.4192 41.2063 31.417C41.1949 31.4122 41.162 31.3982 41.1198 31.3817C41.0765 31.3648 41.0143 31.3415 40.9383 31.3171L40.0215 34.1736ZM40.041 34.1814L38.9684 36.9831C39.0013 36.9957 39.0284 37.0054 39.0329 37.0071C39.0453 37.0115 39.0288 37.0056 39.0136 36.9999C38.9808 36.9878 38.8698 36.9462 38.7326 36.8774L40.0781 34.196L41.4236 31.5147C41.2745 31.4399 41.151 31.3934 41.1058 31.3765C41.0843 31.3685 41.0615 31.3604 41.0676 31.3626C41.0677 31.3626 41.0729 31.3645 41.08 31.3671C41.0873 31.3698 41.0991 31.3741 41.1136 31.3797L40.041 34.1814ZM40.0781 34.196L38.7369 36.8795C39.0195 37.0208 39.3364 37.1404 39.6848 37.2208L40.3594 34.2976L41.034 31.3744C41.1802 31.4082 41.3092 31.4575 41.4194 31.5126L40.0781 34.196ZM40.3594 34.2976L39.658 37.2145C39.9769 37.2912 40.3121 37.3326 40.6562 37.3328L40.6572 34.3328L40.6583 31.3328C40.7948 31.3328 40.9296 31.3492 41.0608 31.3808L40.3594 34.2976ZM40.6572 34.3328V37.3328C41.8401 37.3328 42.9177 36.8501 43.6915 36.0763L41.5703 33.9548L39.4491 31.8334C39.7561 31.5264 40.1873 31.3328 40.6572 31.3328V34.3328ZM41.5703 33.9548L43.6948 36.0729C44.4654 35.3001 44.9473 34.2243 44.9473 33.0427H41.9473H38.9473C38.9473 32.5727 39.1407 32.1428 39.4458 31.8367L41.5703 33.9548ZM41.9473 33.0427L44.9473 33.0425C44.9472 32.319 44.7665 31.6273 44.443 31.0206L41.7959 32.4324L39.1488 33.8441C39.0176 33.5981 38.9473 33.3224 38.9473 33.043L41.9473 33.0427ZM41.7959 32.4324L44.4383 31.0119C44.0974 30.3778 43.6076 29.8515 43.0309 29.4679L41.3691 31.9656L39.7073 34.4633C39.4858 34.3159 39.2921 34.1107 39.1535 33.8529L41.7959 32.4324ZM41.3691 31.9656L43.025 29.464C43.1437 29.5425 43.2344 29.6149 43.291 29.6622C43.3198 29.6863 43.3429 29.7066 43.3582 29.7202C43.3729 29.7333 43.3842 29.7436 43.3862 29.7455C43.3869 29.7461 43.3874 29.7466 43.3873 29.7465C43.3873 29.7465 43.3873 29.7465 43.3873 29.7464C43.3873 29.7464 43.3873 29.7464 43.3872 29.7464C43.3872 29.7463 43.3871 29.7463 43.387 29.7462C43.3868 29.746 43.3865 29.7457 43.3861 29.7453C43.3847 29.7441 43.3811 29.7408 43.3766 29.7367C43.3677 29.7287 43.3505 29.7132 43.3286 29.6941C43.286 29.657 43.2085 29.5916 43.1058 29.5179L41.3574 31.9558L39.6091 34.3937C39.5084 34.3215 39.4329 34.2577 39.3921 34.2223C39.3712 34.204 39.355 34.1894 39.3471 34.1822C39.3421 34.1777 39.3327 34.1691 39.3402 34.176C39.3432 34.1787 39.3554 34.1899 39.3711 34.2038C39.3873 34.2183 39.4114 34.2394 39.4412 34.2643C39.4997 34.3133 39.5925 34.3872 39.7133 34.4672L41.3691 31.9656ZM41.3574 31.9558L43.1058 29.518C43.032 29.465 42.9711 29.4264 42.9418 29.408C42.9267 29.3986 42.9145 29.3912 42.9111 29.3891C42.9035 29.3844 42.9115 29.3893 42.9156 29.3918C42.9268 29.3987 42.9716 29.4263 43.0278 29.4646C43.086 29.5043 43.1694 29.5643 43.2644 29.6443L41.3311 31.9382L39.3977 34.2321C39.4967 34.3156 39.5844 34.3788 39.647 34.4214C39.7076 34.4628 39.7569 34.4931 39.7726 34.5028C39.7789 34.5067 39.7892 34.513 39.7839 34.5097C39.7827 34.509 39.7728 34.5029 39.7599 34.4949C39.735 34.4793 39.6785 34.4435 39.609 34.3937L41.3574 31.9558ZM41.3311 31.9382L43.2663 29.6459C43.2477 29.6302 43.2297 29.6151 43.2173 29.6047C43.2032 29.593 43.1947 29.5859 43.1871 29.5794L41.252 31.8718L39.3168 34.1642C39.3354 34.1799 39.3533 34.195 39.3657 34.2053C39.3798 34.2171 39.3882 34.2242 39.3958 34.2306L41.3311 31.9382ZM41.252 31.8718L43.2513 29.6352C43.2473 29.6316 43.2423 29.6272 43.2439 29.6286C43.244 29.6287 43.2451 29.6296 43.2466 29.631C43.2481 29.6323 43.2505 29.6344 43.2534 29.6371C43.2641 29.6467 43.2895 29.6697 43.3213 29.7003L41.2412 31.8621L39.1611 34.0238C39.1964 34.0578 39.2254 34.084 39.2397 34.0969C39.2469 34.1034 39.2529 34.1087 39.2546 34.1102C39.258 34.1133 39.2548 34.1104 39.2526 34.1085L41.252 31.8718ZM41.2412 31.8621L43.1764 29.5696C41.5982 28.2374 39.9055 26.8128 37.8544 25.402L36.1543 27.8738L34.4542 30.3455C36.2324 31.5686 37.7197 32.8154 39.3061 34.1545L41.2412 31.8621ZM36.1543 27.8738L37.855 25.4024C35.823 24.0041 33.4519 22.6268 31.2005 21.3221L29.6963 23.9177L28.1921 26.5134C30.4857 27.8426 32.6479 29.1025 34.4536 30.3451L36.1543 27.8738ZM29.6963 23.9177L29.1812 20.9623C28.4613 21.0877 27.398 21.3199 26.2218 22.2124L28.0352 24.6023L29.8485 26.9922C29.8926 26.9588 29.9189 26.9435 29.9287 26.9382C29.9378 26.9332 29.9421 26.9315 29.9458 26.9301C29.9588 26.9253 30.0025 26.9096 30.2113 26.8732L29.6963 23.9177ZM28.0352 24.6023L26.2202 22.2136C25.6806 22.6236 25.1146 23.1794 24.7223 23.5616L26.8154 25.7107L28.9086 27.8598C29.3848 27.396 29.6654 27.1313 29.8501 26.991L28.0352 24.6023ZM26.8154 25.7107L24.7256 23.5584C24.2617 24.0087 23.92 24.3365 23.6156 24.5783L25.4814 26.9275L27.3473 29.2767C27.9297 28.8141 28.4922 28.2641 28.9053 27.863L26.8154 25.7107ZM25.4814 26.9275L23.6155 24.5784C23.4692 24.6946 23.3517 24.7738 23.2632 24.8257C23.1742 24.8779 23.131 24.8928 23.1319 24.8925L24.0967 27.7332L25.0614 30.5738C25.9467 30.2731 26.7143 29.7794 27.3473 29.2766L25.4814 26.9275ZM24.0967 27.7332L23.1346 24.8916C23.1356 24.8913 23.195 24.8714 23.3016 24.8687C23.4139 24.8658 23.5424 24.8831 23.6685 24.9267L22.6865 27.7615L21.7046 30.5962C22.8964 31.009 24.0628 30.9119 25.0588 30.5747L24.0967 27.7332ZM22.6865 27.7615V24.7615H22.6846V27.7615V30.7615H22.6865V27.7615ZM22.6846 27.7615L23.8117 24.9813L23.631 24.908L22.5039 27.6882L21.3768 30.4685L21.5575 30.5417L22.6846 27.7615ZM22.5039 27.6882L23.7687 24.9679C23.967 25.0601 24.1376 25.2183 24.2391 25.4445L21.502 26.6726L18.7648 27.9007C19.2884 29.0675 20.2069 29.9287 21.2391 30.4086L22.5039 27.6882ZM21.502 26.6726L24.2408 25.4484C24.2896 25.5576 24.3157 25.6708 24.321 25.7756C24.3264 25.881 24.3091 25.9462 24.3048 25.9599L21.4453 25.0525L18.5859 24.145C18.1746 25.441 18.2523 26.754 18.7631 27.8968L21.502 26.6726ZM21.4453 25.0525L24.3039 25.9626C24.3025 25.9672 24.3292 25.888 24.4306 25.7172C24.5279 25.5534 24.6638 25.3554 24.8408 25.1255C25.2004 24.6586 25.6356 24.1797 26.0723 23.7126L23.8809 21.6638L21.6894 19.6151C21.2395 20.0962 20.6347 20.7535 20.087 21.4648C19.5736 22.1314 18.9262 23.0759 18.5867 24.1423L21.4453 25.0525ZM23.8809 21.6638L23.9022 18.6639C23.136 18.6585 22.8079 18.615 22.6452 18.5736L21.9062 21.4812L21.1673 24.3888C22.0723 24.6188 23.01 24.6577 23.8595 24.6637L23.8809 21.6638ZM21.9062 21.4812L22.6457 18.5737C22.6018 18.5626 22.5811 18.5545 22.5766 18.5527C22.5731 18.5512 22.5791 18.5535 22.5897 18.56C22.6004 18.5664 22.6057 18.5711 22.6038 18.5694C22.6011 18.5672 22.5854 18.5535 22.5567 18.5208L20.3037 20.5017L18.0507 22.4826C18.9106 23.4606 19.9365 24.0758 21.1668 24.3887L21.9062 21.4812ZM25.2041 33.4216L24.8792 30.4393C23.8365 30.5529 22.8133 31.0422 22.058 31.9L24.3096 33.8826L26.5611 35.8651C26.2767 36.1882 25.8984 36.3637 25.529 36.404L25.2041 33.4216ZM24.3096 33.8826L21.9612 32.0157L21.7151 32.3253L24.0635 34.1921L26.4119 36.059L26.6579 35.7494L24.3096 33.8826ZM24.0635 34.1921L21.7069 32.3357L19.242 35.4646L21.5986 37.321L23.9552 39.1775L26.4201 36.0486L24.0635 34.1921ZM21.5986 37.321L23.72 35.1997L23.719 35.1987L21.5977 37.3201L19.4763 39.4414L19.4773 39.4424L21.5986 37.321ZM21.5977 37.3201L19.4763 35.1987L19.4754 35.1997L21.5967 37.321L23.718 39.4424L23.719 39.4414L21.5977 37.3201ZM21.5967 37.321L19.2411 35.4634C19.1236 35.6123 19.0333 35.7523 18.989 35.8223L21.5234 37.4275L24.0579 39.0326C24.0573 39.0337 24.0499 39.0453 24.0367 39.0645C24.0255 39.081 23.9963 39.123 23.9523 39.1787L21.5967 37.321ZM21.5234 37.4275L19.0005 35.8043C18.4692 36.63 18.2142 37.6296 18.2863 38.6153L21.2783 38.3962L24.2703 38.1772C24.2827 38.3468 24.2653 38.4977 24.232 38.6289C24.1987 38.7596 24.1414 38.9031 24.0464 39.0507L21.5234 37.4275ZM21.2783 38.3962L18.2868 38.6219C18.3609 39.6037 18.7915 40.7594 19.8444 41.5855L21.6963 39.2253L23.5482 36.8652C24.0765 37.2797 24.2439 37.8266 24.2698 38.1706L21.2783 38.3962ZM21.6963 39.2253L19.575 37.104L19.574 37.105L21.6953 39.2263L23.8166 41.3476L23.8176 41.3467L21.6963 39.2253ZM21.6953 39.2263V42.2263H21.6963V39.2263V36.2263H21.6953V39.2263ZM21.6963 39.2263L19.7843 41.5381C19.9324 41.6606 20.0732 41.7558 20.1754 41.8206L21.7832 39.2878L23.3911 36.7551C23.4114 36.768 23.4381 36.7856 23.4703 36.8084C23.5001 36.8296 23.5486 36.8652 23.6082 36.9145L21.6963 39.2263ZM21.7832 39.2878L20.1605 41.8111C21.0312 42.3711 22.1184 42.6827 23.2462 42.5604L22.9229 39.5779L22.5995 36.5954C22.9739 36.5548 23.2448 36.661 23.4059 36.7646L21.7832 39.2878ZM22.9229 39.5779L23.2548 42.5595C24.3181 42.4411 25.3946 41.9252 26.1625 40.9469L23.8027 39.0945L21.443 37.242C21.7568 36.8422 22.2009 36.6397 22.5909 36.5963L22.9229 39.5779ZM23.8027 39.0945L26.1604 40.9496L26.4993 40.5189L24.1416 38.6638L21.7839 36.8087L21.4451 37.2394L23.8027 39.0945ZM24.1416 38.6638L26.7394 40.1642C26.7473 40.1506 26.724 40.1933 26.6707 40.2599L24.3291 38.3845L21.9875 36.5092C21.7916 36.7537 21.6466 36.9853 21.5438 37.1634L24.1416 38.6638ZM24.3291 38.3845L26.6713 40.2591L27.603 39.095L25.2607 37.2205L22.9185 35.3459L21.9869 36.51L24.3291 38.3845ZM25.2607 37.2205V40.2205H25.2627V37.2205V34.2205H25.2607V37.2205ZM25.2627 37.2205L26.6043 34.5372L26.6024 34.5362L25.2607 37.2195L23.9191 39.9028L23.9211 39.9037L25.2627 37.2205ZM25.2607 37.2195L27.6013 39.0961C27.5807 39.1218 27.5624 39.1418 27.5473 39.157L25.417 37.0447L23.2867 34.9323C23.1628 35.0573 23.0395 35.1941 22.9202 35.3428L25.2607 37.2195ZM25.417 37.0447L27.7734 38.9014L28.8222 37.5704L26.4658 35.7136L24.1094 33.8569L23.0606 35.1879L25.417 37.0447ZM26.4658 35.7136L28.8228 37.5696C29.5723 36.6178 29.8425 35.4756 29.7238 34.4077L26.7422 34.739L23.7605 35.0703C23.7169 34.6772 23.8205 34.2238 24.1088 33.8576L26.4658 35.7136ZM26.7422 34.739L29.724 34.409C29.5998 33.287 29.0657 32.3093 28.3533 31.5899L26.2217 33.7009L24.0901 35.8119C23.9672 35.6879 23.8024 35.4486 23.7604 35.069L26.7422 34.739ZM26.2217 33.7009L28.0403 31.315C27.0983 30.5969 25.9527 30.3207 24.8748 30.4398L25.2041 33.4216L25.5334 36.4035C25.1599 36.4448 24.7496 36.351 24.403 36.0868L26.2217 33.7009ZM22.9268 30.4685H25.9268V30.4675H22.9268H19.9268V30.4685H22.9268ZM22.9268 30.4675L20.8054 28.3462L20.8045 28.3472L22.9258 30.4685L25.0471 32.5898L25.0481 32.5889L22.9268 30.4675ZM22.9258 30.4685L22.6017 27.4861C21.5128 27.6044 20.449 28.1322 19.6873 29.0511L21.9971 30.9656L24.3068 32.88C24.0247 33.2203 23.6356 33.409 23.2498 33.451L22.9258 30.4685ZM21.9971 30.9656L19.6232 29.1312L19.6066 29.1527L21.9805 30.9871L24.3543 32.8214L24.3709 32.7999L21.9971 30.9656ZM21.9805 30.9871L19.6346 29.1171L16.2195 33.4013L18.5654 35.2712L20.9113 37.1412L24.3264 32.857L21.9805 30.9871ZM18.5654 35.2712L16.1824 33.4489L16.1697 33.4655L18.5527 35.2878L20.9358 37.1102L20.9485 37.0936L18.5654 35.2712ZM18.5527 35.2878L16.0862 33.5802L16.0774 33.5929L18.5439 35.3005L21.0105 37.0082L21.0193 36.9955L18.5527 35.2878ZM18.5439 35.3005L16.1454 33.4986C15.4741 34.3922 15.1882 35.4898 15.271 36.5379L18.2617 36.3015L21.2524 36.0651C21.2787 36.3975 21.1951 36.7663 20.9425 37.1024L18.5439 35.3005ZM18.2617 36.3015L15.2716 36.5446C15.3591 37.6212 15.8553 38.7616 16.8757 39.576L18.7471 37.2312L20.6185 34.8864C21.0363 35.2199 21.221 35.6791 21.2519 36.0584L18.2617 36.3015ZM18.7471 37.2312L16.9247 39.6143L16.9413 39.627L18.7637 37.2439L20.586 34.8608L20.5694 34.8481L18.7471 37.2312ZM18.7637 37.2439L16.9345 39.6218L16.9472 39.6315L18.7764 37.2537L20.6055 34.8758L20.5928 34.866L18.7637 37.2439ZM18.7764 37.2537L16.9726 39.6508C17.9497 40.3861 19.1373 40.6221 20.1832 40.5058L19.8516 37.5242L19.5199 34.5426C19.6773 34.525 19.8384 34.5347 20.0015 34.5754C20.1631 34.6156 20.368 34.6969 20.5801 34.8565L18.7764 37.2537ZM19.8516 37.5242L20.1802 40.5061C21.1735 40.3966 22.3034 39.9336 23.1179 38.9123L20.7725 37.0417L18.4271 35.1712C18.7846 34.7228 19.2355 34.5739 19.5229 34.5422L19.8516 37.5242ZM20.7725 37.0417L23.1188 38.9112L25.6569 35.7256L23.3105 33.8562L20.9642 31.9868L18.4261 35.1723L20.7725 37.0417ZM23.3105 33.8562L25.6668 35.7131L25.99 35.303L23.6338 33.446L21.2776 31.5891L20.9543 31.9993L23.3105 33.8562ZM23.6338 33.446L25.8915 35.4216L25.9189 35.3903L23.6611 33.4148L21.4034 31.4393L21.3761 31.4705L23.6338 33.446ZM23.6611 33.4148L25.982 35.3158C25.9596 35.3431 25.9411 35.3646 25.9299 35.3776C25.9241 35.3842 25.9194 35.3896 25.9165 35.3929C25.915 35.3946 25.9138 35.396 25.913 35.3968C25.9122 35.3977 25.9117 35.3983 25.9116 35.3984C25.9116 35.3984 25.9116 35.3984 25.9118 35.3982C25.9119 35.3981 25.9121 35.3978 25.9124 35.3975C25.913 35.3968 25.9141 35.3956 25.9154 35.3941C25.9179 35.3913 25.9223 35.3863 25.9277 35.3801C25.9332 35.3739 25.9404 35.3656 25.9487 35.356C25.957 35.3463 25.9669 35.3346 25.978 35.3213L23.6738 33.4001L21.3697 31.479C21.3894 31.4554 21.4053 31.4371 21.4136 31.4275C21.418 31.4226 21.4213 31.4188 21.4228 31.4171C21.4237 31.4161 21.4253 31.4143 21.4233 31.4165C21.422 31.4181 21.4114 31.43 21.3986 31.4447C21.3852 31.4601 21.3647 31.4841 21.3403 31.5138L23.6611 33.4148ZM23.6738 33.4001L26.0189 35.2712L26.5316 34.6286L24.1865 32.7576L21.8415 30.8865L21.3288 31.5291L23.6738 33.4001ZM24.1865 32.7576L26.5355 34.6236C26.7045 34.411 26.8621 34.1741 26.998 33.9156L24.3428 32.5193L21.6875 31.123C21.7371 31.0286 21.7888 30.9528 21.8375 30.8915L24.1865 32.7576ZM24.3428 32.5193L27.1002 33.701L27.1119 33.6737L24.3545 32.4919L21.5971 31.3102L21.5853 31.3375L24.3428 32.5193ZM24.3545 32.4919L27.0381 33.833C27.4253 33.058 27.6043 32.1542 27.504 31.2538L24.5225 31.5857L21.5409 31.9176C21.5071 31.6139 21.5663 31.3602 21.6709 31.1509L24.3545 32.4919ZM24.5225 31.5857L27.5041 31.2544C27.4128 30.4328 27.0451 29.3511 26.0545 28.5609L24.1836 30.906L22.3126 33.2511C21.7193 32.7778 21.5713 32.1913 21.5408 31.917L24.5225 31.5857ZM24.1836 30.906H27.1836V30.905H24.1836H21.1836V30.906H24.1836ZM24.1836 30.905L26.0517 28.5577C25.8768 28.4185 25.6569 28.2678 25.3894 28.1338L24.0459 30.8162L22.7024 33.4985C22.5362 33.4153 22.4073 33.3255 22.3155 33.2524L24.1836 30.905ZM24.0459 30.8162L25.3031 28.0923C25.5073 28.1866 25.6849 28.2999 25.8388 28.4228L23.9658 30.7664L22.0929 33.1099C22.2962 33.2724 22.5294 33.4204 22.7887 33.54L24.0459 30.8162ZM23.9658 30.7664L25.8352 28.42C24.8824 27.6609 23.7052 27.3626 22.5929 27.4871L22.9268 30.4685L23.2606 33.4499C22.8684 33.4938 22.4438 33.3894 22.0964 33.1127L23.9658 30.7664ZM18.8252 29.7908L18.4952 26.809C17.4126 26.9288 16.3529 27.4528 15.5903 28.3666L17.8936 30.2888L20.1968 32.211C19.918 32.5452 19.5349 32.7305 19.1552 32.7726L18.8252 29.7908ZM17.8936 30.2888L15.427 28.5812C15.4955 28.4823 15.5793 28.3762 15.6814 28.2692L17.8516 30.3406L20.0217 32.4119C20.1546 32.2727 20.2664 32.1318 20.3601 31.9964L17.8936 30.2888ZM17.8516 30.3406L15.5099 28.4654L14.1398 30.1763L16.4814 32.0515L18.8231 33.9267L20.1933 32.2158L17.8516 30.3406ZM16.4814 32.0515L13.947 30.4464C14.0462 30.2897 14.1561 30.1526 14.2703 30.0336L16.4346 32.1111L18.5988 34.1886C18.7482 34.0329 18.8899 33.8556 19.0159 33.6567L16.4814 32.0515ZM16.4346 32.1111L14.0455 30.2966C13.3274 31.242 13.0597 32.3829 13.1759 33.4481L16.1582 33.1228L19.1405 32.7975C19.1803 33.1625 19.0904 33.5743 18.8236 33.9256L16.4346 32.1111ZM16.1582 33.1228L13.1764 33.453C13.2962 34.5348 13.8197 35.595 14.7345 36.3581L16.6562 34.0544L18.578 31.7507C18.9129 32.0301 19.098 32.4138 19.14 32.7926L16.1582 33.1228ZM16.6562 34.0544L14.9222 36.5025C14.8335 36.4397 14.7353 36.3615 14.6346 36.2654L16.7051 34.0945L18.7756 31.9235C18.6438 31.7978 18.5129 31.6932 18.3903 31.6064L16.6562 34.0544ZM16.7051 34.0945L14.8905 36.4835C15.8337 37.1998 16.9757 37.4715 18.0484 37.3526L17.7178 34.3708L17.3871 31.3891C17.7582 31.348 18.1707 31.4404 18.5196 31.7054L16.7051 34.0945ZM17.7178 34.3708L18.0459 37.3528C19.1511 37.2312 20.2417 36.6873 21.0107 35.725L18.667 33.8523L16.3233 31.9795C16.6086 31.6226 17.0057 31.4311 17.3896 31.3889L17.7178 34.3708ZM18.667 33.8523L21.0096 35.7264L22.451 33.9246L20.1084 32.0505L17.7658 30.1765L16.3244 31.9782L18.667 33.8523ZM20.1084 32.0505L22.4995 33.8623C23.2128 32.921 23.4858 31.7806 23.3664 30.7065L20.3848 31.0378L17.4031 31.3691C17.3616 30.9954 17.4553 30.5845 17.7173 30.2387L20.1084 32.0505ZM20.3848 31.0378L23.3665 30.707C23.2453 29.6155 22.7149 28.5627 21.8108 27.8063L19.8857 30.1072L17.9607 32.4081C17.6363 32.1367 17.4462 31.7574 17.4031 31.3687L20.3848 31.0378ZM19.8857 30.1072L21.5727 27.6264C21.7464 27.7446 21.8743 27.8609 21.9582 27.9448L19.8369 30.0662L17.7156 32.1875C17.8292 32.3011 17.9897 32.4458 18.1988 32.5879L19.8857 30.1072ZM19.8369 30.0662L21.6444 27.6718C20.7023 26.9606 19.5668 26.6924 18.5007 26.8084L18.8252 29.7908L19.1497 32.7732C18.7849 32.8129 18.3762 32.7223 18.0294 32.4605L19.8369 30.0662ZM31.2061 19.8943L31.1416 16.895C30.3162 16.9127 29.3626 16.9793 28.4549 17.0871L28.8086 20.0662L29.1623 23.0452C29.887 22.9592 30.6473 22.907 31.2705 22.8936L31.2061 19.8943ZM28.8086 20.0662L28.4541 17.0872C27.6711 17.1804 26.8299 17.3158 26.1189 17.5098L26.9082 20.4041L27.6976 23.2983C27.9978 23.2165 28.5077 23.1231 29.1631 23.0451L28.8086 20.0662ZM26.9082 20.4041L26.1178 17.51C25.3042 17.7322 24.5983 18.0527 23.9265 18.5587C23.356 18.9886 22.8717 19.5171 22.5195 19.892L24.7061 21.946L26.8926 24.0001C27.1056 23.7733 27.2409 23.63 27.3588 23.5134C27.4694 23.4042 27.5198 23.3638 27.5367 23.3511C27.5435 23.3459 27.5438 23.3462 27.5393 23.3489C27.5347 23.3517 27.5317 23.3531 27.533 23.3525C27.5348 23.3517 27.5783 23.3309 27.6986 23.2981L26.9082 20.4041ZM24.7061 21.946L22.0228 20.6044L22.0208 20.6083L24.7041 21.95L27.3874 23.2916L27.3893 23.2877L24.7061 21.946ZM24.7041 21.95L22.4619 19.9569L22.4541 19.9656L24.6963 21.9587L26.9385 23.9518L26.9463 23.943L24.7041 21.95ZM24.6963 21.9587L23.3546 19.2755L23.3507 19.2774L24.6924 21.9607L26.034 24.644L26.0379 24.642L24.6963 21.9587ZM24.6924 21.9607L22.4678 19.948L22.4492 19.9685L24.6738 21.9812L26.8984 23.9939L26.917 23.9734L24.6924 21.9607ZM24.6738 21.9812L22.4876 19.9268C22.0735 20.3675 21.4589 21.0201 20.904 21.7122C20.4055 22.3339 19.6908 23.3023 19.3466 24.3833L22.2051 25.2937L25.0636 26.2041C25.0412 26.2746 25.0449 26.2321 25.153 26.0594C25.2522 25.901 25.3955 25.7019 25.585 25.4656C25.97 24.9854 26.4253 24.4982 26.86 24.0356L24.6738 21.9812ZM22.2051 25.2937L19.3455 24.3865C19.0134 25.4334 19.0376 26.5549 19.4907 27.5706L22.2305 26.3484L24.9702 25.1262C25.1716 25.5776 25.1338 25.9828 25.0646 26.2009L22.2051 25.2937ZM22.2305 26.3484L19.4942 27.5784C19.9926 28.687 20.9194 29.4814 21.9639 29.8438L22.9473 27.0095L23.9306 24.1753C24.3841 24.3326 24.7613 24.6613 24.9667 25.1184L22.2305 26.3484ZM22.9473 27.0095V24.0095H22.9463V27.0095V30.0095H22.9473V27.0095ZM22.9463 27.0095L21.9733 29.8474C23.0415 30.2136 24.0464 30.0728 24.7989 29.8192L23.8408 26.9763L22.8827 24.1334C22.993 24.0963 23.3957 23.9922 23.9193 24.1717L22.9463 27.0095ZM23.8408 26.9763L24.8032 29.8178C25.6139 29.5432 26.3059 29.0854 26.8503 28.6533L24.9854 26.3035L23.1204 23.9536C23.0034 24.0465 22.9195 24.1023 22.8683 24.1326C22.8154 24.1639 22.82 24.1547 22.8785 24.1349L23.8408 26.9763ZM24.9854 26.3035L26.8497 28.6538C27.4083 28.2107 27.9586 27.671 28.3484 27.2929L26.2598 25.1394L24.1712 22.9859C23.7166 23.4268 23.3969 23.7342 23.121 23.9531L24.9854 26.3035ZM26.2598 25.1394L28.352 27.2894C28.8372 26.8172 29.1323 26.537 29.3665 26.3596L27.5547 23.9685L25.7429 21.5774C25.1537 22.0238 24.5778 22.5902 24.1675 22.9894L26.2598 25.1394ZM27.5547 23.9685L29.3668 26.3593C29.5409 26.2274 29.6367 26.1903 29.6837 26.1737C29.7626 26.146 29.8555 26.1235 30.1839 26.0676L29.6807 23.1101L29.1775 20.1526C28.3843 20.2876 27.1577 20.5051 25.7425 21.5777L27.5547 23.9685ZM29.6807 23.1101L30.3886 26.0254C30.1312 26.0879 29.9147 26.1002 29.7732 26.1003L29.7705 23.1003L29.7679 20.1003C29.5633 20.1005 29.2877 20.1183 28.9727 20.1948L29.6807 23.1101ZM29.7705 23.1003H26.7705V23.1023H29.7705H32.7705V23.1003H29.7705ZM29.7705 23.1023V26.1023C29.3405 26.1023 28.882 25.9944 28.4573 25.7463L29.9707 23.156L31.4841 20.5657C30.9335 20.244 30.3364 20.1023 29.7705 20.1023V23.1023ZM29.9707 23.156L28.6291 25.8393L28.6447 25.8471L29.9863 23.1638L31.328 20.4805L31.3123 20.4727L29.9707 23.156ZM29.9863 23.1638L28.482 25.7594C30.826 27.1179 33.0401 28.4042 34.9066 29.6888L36.6074 27.2175L38.3082 24.7462C36.2137 23.3048 33.7867 21.899 31.4907 20.5682L29.9863 23.1638ZM36.6074 27.2175L34.9064 29.6886C36.654 30.8916 38.1114 32.1051 39.6457 33.3993L41.5801 31.1062L43.5144 28.8131C41.9741 27.5138 40.3206 26.1315 38.3085 24.7464L36.6074 27.2175ZM41.5801 31.1062L42.8721 33.8137C43.651 33.442 44.3798 32.9868 45.0521 32.4507L43.1816 30.1052L41.3112 27.7597C40.9993 28.0084 40.6592 28.2216 40.2881 28.3987L41.5801 31.1062ZM43.1816 30.1052L45.0539 32.4493C45.7599 31.8854 46.3914 31.2413 46.9506 30.5304L44.5928 28.6755L42.2349 26.8207C41.945 27.1892 41.6357 27.5005 41.3094 27.7612L43.1816 30.1052ZM44.5928 28.6755L47.546 28.148C47.1991 26.2057 46.4309 24.1456 45.4484 22.3523L42.8174 23.7937L40.1863 25.2351C40.8998 26.5375 41.4218 27.9843 41.6395 29.2031L44.5928 28.6755ZM42.8174 23.7937L45.4489 22.3531C44.5469 20.7055 43.331 19.0384 41.8563 17.9233L40.0469 20.3162L38.2374 22.709C38.7761 23.1164 39.4988 23.9792 40.1859 25.2343L42.8174 23.7937ZM40.0469 20.3162L39.5889 17.3513L39.2285 17.407L39.6865 20.3718L40.1445 23.3367L40.5049 23.281L40.0469 20.3162ZM39.6865 20.3718L39.2304 17.4067L39.2177 17.4087L39.6738 20.3738L40.13 23.3389L40.1427 23.3369L39.6865 20.3718ZM39.6738 20.3738L39.2194 17.4084C38.64 17.4972 37.8205 17.6156 37.1599 17.5941L37.0625 20.5925L36.9651 23.5909C38.2648 23.6331 39.6181 23.4173 40.1283 23.3392L39.6738 20.3738ZM37.0625 20.5925L37.1602 17.5941C36.7061 17.5793 36.295 17.4973 35.5929 17.3467L34.9639 20.28L34.3349 23.2133C34.9847 23.3527 35.8973 23.5562 36.9648 23.5909L37.0625 20.5925ZM34.9639 20.28L35.5984 17.3479C35.4119 17.3075 35.1926 17.2599 34.9435 17.2111L34.3662 20.155L33.7889 23.099C33.9723 23.1349 34.1371 23.1705 34.3293 23.2121L34.9639 20.28ZM34.3662 20.155L34.9435 17.2111C34.4414 17.1126 33.8869 17.0206 33.2548 16.9625L32.9805 19.95L32.7061 22.9374C33.0753 22.9713 33.4184 23.0263 33.7889 23.099L34.3662 20.155ZM32.9805 19.95L33.2577 16.9628C32.6256 16.9041 31.9342 16.8778 31.1412 16.895L31.2061 19.8943L31.2709 22.8936C31.8515 22.881 32.314 22.901 32.7033 22.9371L32.9805 19.95Z" fill="#F26E24" mask="url(#path-2-inside-1_418_29)"/>
<mask id="path-4-inside-2_418_29" fill="white">
<path d="M18.8788 18.1165C19.0464 17.9751 19.2975 17.997 19.439 18.1646C19.5804 18.333 19.5592 18.5841 19.3909 18.7255C18.0611 19.8424 16.7907 21.436 15.7488 23.1767C14.6758 24.9684 13.849 26.9114 13.4536 28.6472C13.4055 28.8615 13.1926 28.9966 12.9775 28.9485C12.7632 28.9004 12.6281 28.6868 12.6762 28.4718C13.09 26.6539 13.9508 24.6289 15.0649 22.7672C16.1485 20.9572 17.4782 19.2928 18.8788 18.1165Z"/>
</mask>
<path d="M18.8788 18.1165L20.165 19.648L20.1686 19.645L18.8788 18.1165ZM19.439 18.1646L20.9701 16.878L20.9674 16.8748L19.439 18.1646ZM19.3909 18.7255L20.6771 20.257L20.6775 20.2567L19.3909 18.7255ZM15.7488 23.1767L17.4647 24.2043L17.4649 24.2039L15.7488 23.1767ZM13.4536 28.6472L11.5035 28.203L11.5021 28.2092L13.4536 28.6472ZM12.9775 28.9485L12.5396 30.9L12.541 30.9003L12.9775 28.9485ZM12.6762 28.4718L10.7261 28.0279L10.7245 28.0352L12.6762 28.4718ZM15.0649 22.7672L13.3489 21.7399L13.3487 21.7402L15.0649 22.7672ZM18.8788 18.1165L20.1686 19.645C19.4874 20.2199 18.4774 20.1263 17.9105 19.4545L19.439 18.1646L20.9674 16.8748C20.1176 15.8677 18.6054 15.7303 17.5889 16.5881L18.8788 18.1165ZM19.439 18.1646L17.9078 19.4513C17.342 18.778 17.4229 17.7669 18.1042 17.1944L19.3909 18.7255L20.6775 20.2567C21.6955 19.4013 21.8188 17.8879 20.9701 16.878L19.439 18.1646ZM19.3909 18.7255L18.1046 17.1941C16.5595 18.4918 15.1542 20.276 14.0327 22.1496L15.7488 23.1767L17.4649 24.2039C18.4273 22.596 19.5627 21.1931 20.6771 20.257L19.3909 18.7255ZM15.7488 23.1767L14.033 22.1491C12.8762 24.0807 11.9553 26.2197 11.5035 28.203L13.4536 28.6472L15.4036 29.0914C15.7426 27.6031 16.4754 25.8561 17.4647 24.2043L15.7488 23.1767ZM13.4536 28.6472L11.5021 28.2092C11.696 27.3452 12.5529 26.8041 13.4141 26.9967L12.9775 28.9485L12.541 30.9003C13.8322 31.1891 15.1149 30.3778 15.405 29.0851L13.4536 28.6472ZM12.9775 28.9485L13.4155 26.997C14.283 27.1917 14.8199 28.0506 14.628 28.9083L12.6762 28.4718L10.7245 28.0352C10.4364 29.323 11.2435 30.6091 12.5396 30.9L12.9775 28.9485ZM12.6762 28.4718L14.6263 28.9157C14.984 27.3443 15.7513 25.5151 16.7811 23.7942L15.0649 22.7672L13.3487 21.7402C12.1504 23.7427 11.196 25.9636 10.7261 28.0279L12.6762 28.4718ZM15.0649 22.7672L16.7808 23.7945C17.7833 22.1201 18.9779 20.6451 20.165 19.648L18.8788 18.1165L17.5925 16.5851C15.9786 17.9405 14.5137 19.7942 13.3489 21.7399L15.0649 22.7672Z" fill="#F26E24" mask="url(#path-4-inside-2_418_29)"/>
<mask id="path-6-inside-3_418_29" fill="white">
<path d="M40.9739 18.8799C40.7999 18.7455 40.7681 18.4944 40.9025 18.3204C41.0369 18.1464 41.2873 18.1145 41.4613 18.2489C42.8292 19.3106 44.072 20.8582 45.0729 22.5763C46.1395 24.4069 46.9381 26.4412 47.3243 28.2936C47.3689 28.5087 47.2302 28.7202 47.0152 28.7654C46.7995 28.81 46.588 28.6713 46.5434 28.4563C46.1742 26.6859 45.4074 24.7358 44.3832 22.9767C43.4305 21.3406 42.2563 19.8751 40.9739 18.8799Z"/>
</mask>
<path d="M40.9739 18.8799L42.2001 17.2998L42.1965 17.297L40.9739 18.8799ZM41.4613 18.2489L42.6875 16.6689L42.6838 16.6661L41.4613 18.2489ZM45.0729 22.5763L43.3447 23.5831L43.3448 23.5832L45.0729 22.5763ZM47.3243 28.2936L49.2827 27.8878L49.2822 27.8855L47.3243 28.2936ZM47.0152 28.7654L47.4198 30.7241L47.4272 30.7225L47.0152 28.7654ZM46.5434 28.4563L48.5018 28.0505L48.5013 28.048L46.5434 28.4563ZM44.3832 22.9767L46.1116 21.9704L46.1115 21.9702L44.3832 22.9767ZM40.9739 18.8799L42.1965 17.297C42.8997 17.8402 43.0238 18.8458 42.4853 19.5429L40.9025 18.3204L39.3196 17.0978C38.5124 18.143 38.7002 19.6508 39.7514 20.4627L40.9739 18.8799ZM40.9025 18.3204L42.4853 19.5429C41.9427 20.2455 40.9365 20.3707 40.2387 19.8318L41.4613 18.2489L42.6838 16.6661C41.638 15.8584 40.1311 16.0472 39.3196 17.0978L40.9025 18.3204ZM41.4613 18.2489L40.235 19.8289C41.3437 20.6894 42.4309 22.0144 43.3447 23.5831L45.0729 22.5763L46.801 21.5696C45.7131 19.7021 44.3148 17.9319 42.6875 16.6689L41.4613 18.2489ZM45.0729 22.5763L43.3448 23.5832C44.3147 25.2478 45.0286 27.0814 45.3664 28.7018L47.3243 28.2936L49.2822 27.8855C48.8476 25.8009 47.9643 23.566 46.8009 21.5694L45.0729 22.5763ZM47.3243 28.2936L45.3659 28.6995C45.1864 27.8331 45.7419 26.9896 46.6032 26.8083L47.0152 28.7654L47.4272 30.7225C48.7185 30.4507 49.5513 29.1842 49.2827 27.8878L47.3243 28.2936ZM47.0152 28.7654L46.6106 26.8068C47.4713 26.629 48.3213 27.1796 48.5018 28.0505L46.5434 28.4563L44.585 28.8622C44.8546 30.1631 46.1276 30.991 47.4198 30.7241L47.0152 28.7654ZM46.5434 28.4563L48.5013 28.048C48.0834 26.0444 47.2316 23.894 46.1116 21.9704L44.3832 22.9767L42.6548 23.983C43.5833 25.5776 44.2649 27.3273 44.5855 28.8646L46.5434 28.4563ZM44.3832 22.9767L46.1115 21.9702C45.0737 20.1881 43.7443 18.4982 42.2001 17.2998L40.9739 18.8799L39.7477 20.4599C40.7684 21.2519 41.7873 22.4932 42.6549 23.9832L44.3832 22.9767Z" fill="#F26E24" mask="url(#path-6-inside-3_418_29)"/>
</g>
<defs>
<linearGradient id="paint0_linear_418_29" x1="30" y1="0" x2="30" y2="60" gradientUnits="userSpaceOnUse">
<stop stop-color="white"/>
<stop offset="1" stop-color="#021E3F"/>
</linearGradient>
<clipPath id="clip0_418_29">
<rect width="34.6667" height="24" fill="white" transform="translate(12.6665 18)"/>
</clipPath>
</defs>
</svg>
