<?xml version="1.0" encoding="UTF-8"?>
<svg id="a" data-name="Layer 1" xmlns="http://www.w3.org/2000/svg" viewBox="0 0 16 16">
  <path d="M12.39464,5.66954c-.27445.27556-2.49641.08043-2.8705-.28572.03108.49856-.33372,1.37433-.26807,1.81537.04939.33183,1.55094.87088,1.69379,1.36103.07516.2579.05974,2.46773-.02419,2.72595-.15225.46843-.78371.53556-1.09535.15201-.43482-.53514-.04389-1.67094-.2233-2.25921-.08209-.26916-.6836-.45045-.85985-.68986-.24717-.00185-.13274,1.14571-.16386,1.38562-.04119.31752-.76187,2.2011-.93579,2.47786-.23461.37335-.74623.50159-1.07105.16692-.54649-.56308.56387-2.08197.66387-2.74549.10125-.67186-.14774-1.77753-.10065-2.58423.03037-.52032.21801-1.06953.21005-1.59861-.31802.24501-.35276.84776-.56868,1.13846-.17776.23932-.54613.29255-.43959.86696.03672.19797.52176.40549.4846.61766-.0298.17013-1.39812,1.35471-1.61001,1.61009-.09336.02653-.13335-.04782-.19583-.08973-.14522-.09741-1.84723-1.79769-1.91603-1.91433-.3289-.55768.21343-.60666.47032-.8855.1211-.13145.75862-.91789.84511-.93321.45698-.08094.70904.73057,1.24893.28545.26773-.22073.63408-1.62922.95693-1.99059.12153-.13603,1.36042-.95423,1.50816-.97933.32018-.05438.99368.10377,1.29258.2499.4544.22216.73318.89107.99738.96802.49241.14341,1.99887-.14903,2.10184.59582.01958.14167-.03158.43909-.1308.5387Z" style="fill: #f58667;"/>
  <path d="M14.3849,11.07313c-.02561.23306.09795,1.34475-.15516,1.34475h-2.53434v.93098h-2.6895c-.04655,0,.04655.93098,0,.93098h-2.6895c-.04655,0,.04655.93098,0,.93098h-2.99983c.02561-.23306-.09795-1.34475.15516-1.34475h2.53434c.04655,0-.04655-.93098,0-.93098h2.6895c.04655,0-.04655-.93098,0-.93098h2.6895c.04655,0-.04655-.93098,0-.93098h2.99983Z" style="fill: #f58667;"/>
  <path d="M8.66731,1.1622c1.63274-.3554,1.74924,2.2738.08836,2.04456-1.18624-.16373-1.11049-1.82207-.08836-2.04456Z" style="fill: #f58667;"/>
</svg>