<svg width="21" height="21" viewBox="0 0 21 21" fill="none" xmlns="http://www.w3.org/2000/svg">
<g clip-path="url(#clip0_1_3016)">
<path d="M18.5704 12.5968C17.8458 11.005 16.6216 9.31792 15.1044 7.81479C15.295 7.67534 15.4181 7.45034 15.4181 7.19683V7.11753C15.4181 6.75737 15.1677 6.45581 14.8325 6.37456C14.8962 6.28394 14.9571 6.19761 15.0149 6.11558C16.2599 4.34878 16.2716 4.30933 16.2716 1.87612C16.2716 1.77534 16.2071 1.68589 16.1118 1.65386C16.0165 1.62183 15.911 1.65425 15.8505 1.73433C15.3235 2.42925 14.8208 2.7812 14.356 2.7812C14.3485 2.7812 14.3411 2.7812 14.3337 2.78081C13.881 2.76987 13.4161 2.42065 12.9521 1.74331C12.9083 1.67964 12.836 1.64136 12.7587 1.64136C12.6813 1.64136 12.6091 1.67964 12.5653 1.74331C12.1013 2.42104 11.6364 2.76987 11.1837 2.78081C10.7122 2.79175 10.2021 2.43979 9.66689 1.73394C9.60596 1.65386 9.50088 1.62261 9.40557 1.65464C9.31025 1.68667 9.2458 1.77729 9.2458 1.87808C9.2458 2.77144 9.2458 3.34526 9.31338 3.80581C8.579 3.373 7.91807 2.65894 7.32119 1.6562C7.279 1.58511 7.20244 1.54175 7.11963 1.54175C7.03682 1.54175 6.96064 1.58511 6.91807 1.6562C5.679 3.73901 4.16416 4.58081 2.2876 4.2312C2.21924 4.21831 2.14854 4.23667 2.09502 4.2812C2.0415 4.32573 2.01025 4.39175 2.01025 4.46167C2.01025 6.88862 2.28174 8.44956 2.91807 9.68159C3.66455 11.1265 4.96924 12.1132 6.90322 12.6945C6.48486 13.6363 6.24228 14.5324 6.18174 15.3621C6.10908 16.3597 6.30166 17.2371 6.754 17.9691C7.21416 18.7136 7.9376 19.2953 8.904 19.6976C9.92158 20.121 11.2173 20.3476 12.7552 20.371H12.7587C12.7587 20.371 12.761 20.371 12.7622 20.371C17.022 20.307 18.5403 18.7023 19.0642 17.3671C19.572 16.0714 19.4013 14.4222 18.5704 12.5968ZM14.9493 7.11753V7.19683C14.9493 7.35503 14.8255 7.48511 14.6673 7.49253C14.6626 7.49292 14.6579 7.49292 14.6532 7.49292H12.0177C12.0544 7.27886 12.086 7.05542 12.1126 6.82144H14.397H14.3974H14.3981H14.6532C14.8161 6.82144 14.9493 6.95425 14.9493 7.11753ZM9.71494 2.51362C10.2087 3.02026 10.6974 3.26128 11.1942 3.25034C11.7356 3.23745 12.2606 2.90894 12.7579 2.27339C13.2552 2.90894 13.7802 3.23706 14.3216 3.25034C14.8188 3.26245 15.3071 3.02065 15.8009 2.51362C15.7899 4.20112 15.6833 4.35229 14.631 5.84565C14.5224 5.99995 14.404 6.16792 14.2747 6.35269H12.1583C12.2056 5.78511 12.2278 5.15933 12.2278 4.46128C12.2278 4.39175 12.197 4.32573 12.1431 4.28081C12.0896 4.23628 12.0188 4.21792 11.9505 4.23081C11.1907 4.37261 10.4903 4.3187 9.84346 4.06636C9.74072 3.69214 9.71924 3.25698 9.71494 2.51362ZM2.48018 4.73589C2.68369 4.76245 2.88369 4.77573 3.08018 4.77573C4.66064 4.77573 6.01572 3.91948 7.11963 2.22104C7.82432 3.30542 8.63135 4.04604 9.53447 4.44019C9.55127 4.44995 9.56924 4.45737 9.58799 4.46284C10.2599 4.74487 10.9845 4.83706 11.7591 4.73589C11.7243 8.66401 10.9114 11.1648 7.12002 12.2699C3.32744 11.1648 2.51494 8.66401 2.48018 4.73589ZM18.6274 17.1957C17.9517 18.9183 15.9224 19.8539 12.7583 19.9023C9.94541 19.8593 8.00713 19.1058 7.15244 17.7226C6.38252 16.4765 6.48252 14.6832 7.43174 12.6648C9.31299 12.08 10.5868 11.1023 11.3208 9.68159C11.5817 9.17612 11.7813 8.61519 11.9259 7.96206H14.5841C17.9138 11.1722 19.5376 14.8746 18.6274 17.1957ZM14.6974 15.3898C14.6974 16.2792 13.954 17.016 12.9935 17.1316V18.2847C12.9935 18.414 12.8884 18.5191 12.7591 18.5191C12.6298 18.5191 12.5231 18.414 12.5231 18.2847V17.1375C11.9528 17.0835 11.4325 16.8089 11.1036 16.3785C11.0251 16.2757 11.0446 16.1285 11.1474 16.05C11.2501 15.9714 11.3974 15.991 11.4759 16.0937C11.7563 16.4605 12.2251 16.6792 12.7294 16.6792C13.556 16.6792 14.2286 16.1007 14.2286 15.3898C14.2286 14.5726 13.6599 14.3835 12.7317 14.1425C11.8798 13.921 10.8192 13.646 10.8192 12.3429C10.8192 11.4535 11.5626 10.7167 12.5231 10.6011V9.61987C12.5231 9.49058 12.6282 9.3855 12.7575 9.3855C12.8868 9.3855 12.9935 9.49058 12.9935 9.61987V10.5953C13.5638 10.6492 14.0841 10.9238 14.4134 11.3542C14.4919 11.457 14.4724 11.6042 14.3696 11.6828C14.2669 11.7613 14.1196 11.7417 14.0411 11.639C13.7606 11.2722 13.2919 11.0535 12.7876 11.0535C11.961 11.0535 11.2884 11.632 11.2884 12.3429C11.2884 13.2378 11.8817 13.4375 12.8497 13.6886C13.7157 13.914 14.6974 14.1687 14.6974 15.3898ZM7.14072 6.99487C6.77666 6.99487 6.48018 7.29097 6.48018 7.65542C6.48018 7.93706 6.65752 8.1773 6.90635 8.27222V8.50776C6.90635 8.63706 7.01143 8.74214 7.14072 8.74214C7.27002 8.74214 7.3751 8.63706 7.3751 8.50776V8.27222C7.62393 8.1773 7.80127 7.93706 7.80127 7.65542C7.80127 7.29136 7.50518 6.99487 7.14072 6.99487ZM7.14072 7.46362C7.24658 7.46362 7.33252 7.54956 7.33252 7.65542C7.33252 7.76128 7.24658 7.84722 7.14072 7.84722C7.03486 7.84722 6.94893 7.76128 6.94893 7.65542C6.94893 7.54956 7.03525 7.46362 7.14072 7.46362ZM9.42939 9.49722V6.79136C9.42939 6.59253 9.29228 6.42534 9.10791 6.37847V5.63745C9.10791 4.93745 8.53838 4.36792 7.83838 4.36792H6.44385C5.74385 4.36792 5.17432 4.93745 5.17432 5.63745V6.36987C4.96846 6.39995 4.80947 6.57729 4.80947 6.79136V9.49722C4.80947 9.73237 5.00088 9.92378 5.23604 9.92378H9.00361C9.23799 9.92378 9.42939 9.73237 9.42939 9.49722ZM6.44346 4.83628H7.83799C8.27979 4.83628 8.63877 5.19565 8.63877 5.63706V6.3644H8.31533V5.85386C8.31533 5.47104 8.00361 5.15933 7.6208 5.15933H6.65986C6.27705 5.15933 5.96533 5.47104 5.96533 5.85386V6.3644H5.64189V5.63706C5.64268 5.19526 6.00205 4.83628 6.44346 4.83628ZM6.43447 6.36479V5.85425C6.43447 5.72964 6.53564 5.62847 6.66025 5.62847H7.62119C7.7458 5.62847 7.84697 5.72964 7.84697 5.85425V6.36479H6.43447ZM8.96064 9.45503H5.27783V6.83354H8.96064V9.45503Z" fill="#E1704D"/>
</g>
<defs>
<clipPath id="clip0_1_3016">
<rect width="20" height="20" fill="white" transform="translate(0.680176 0.957031)"/>
</clipPath>
</defs>
</svg>
