<svg width="21" height="21" viewBox="0 0 21 21" fill="none" xmlns="http://www.w3.org/2000/svg">
<g clip-path="url(#clip0_1_3020)">
<path d="M20.3102 7.23065L20.0135 7.08365V5.90365C20.0109 5.38468 19.6135 4.95308 19.0965 4.90765L15.8298 4.63498L13.2092 2.01465C12.9595 1.76343 12.6197 1.62262 12.2655 1.62365H11.6188C11.4797 1.22427 11.1031 0.956665 10.6802 0.956665C10.2573 0.956665 9.88065 1.22427 9.74151 1.62365H6.73018C6.40057 1.62388 6.08262 1.74565 5.83718 1.96565L2.88551 4.62365H1.68018C1.12789 4.62365 0.680176 5.07136 0.680176 5.62365V7.62365C0.680176 8.36003 1.27713 8.95698 2.01351 8.95698H3.04351C3.20529 9.9189 4.03808 10.6233 5.01351 10.6233C5.98893 10.6233 6.82173 9.9189 6.98351 8.95698H9.74151C9.84235 9.23929 10.0645 9.46147 10.3468 9.56231V10.2903H10.0135C9.46122 10.2903 9.01351 10.738 9.01351 11.2903V11.9366C6.91143 12.7404 5.68243 14.9299 6.0911 17.143C6.49977 19.356 8.42968 20.9622 10.6802 20.9622C12.9307 20.9622 14.8606 19.356 15.2693 17.143C15.6779 14.9299 14.4489 12.7404 12.3468 11.9366V11.2903C12.3468 10.738 11.8991 10.2903 11.3468 10.2903H11.0135V9.56231C11.2958 9.46147 11.518 9.23929 11.6188 8.95698H14.7102C14.872 9.9189 15.7048 10.6233 16.6802 10.6233C17.6556 10.6233 18.4884 9.9189 18.6502 8.95698H20.0135C20.3817 8.95698 20.6802 8.6585 20.6802 8.29031V7.82365C20.6787 7.57199 20.5356 7.34263 20.3102 7.23065ZM14.6802 16.2903C14.6802 18.4995 12.8893 20.2903 10.6802 20.2903C8.47104 20.2903 6.68018 18.4995 6.68018 16.2903C6.68018 14.0812 8.47104 12.2903 10.6802 12.2903C12.8883 12.2927 14.6778 14.0822 14.6802 16.2903ZM11.6802 11.2903V11.7343C11.0217 11.5868 10.3387 11.5868 9.68018 11.7343V11.2903C9.68018 11.1062 9.82941 10.957 10.0135 10.957H11.3468C11.5309 10.957 11.6802 11.1062 11.6802 11.2903ZM19.3468 5.90365L19.3469 6.29031H18.9102C18.7479 6.28899 18.6099 6.17183 18.5822 6.01198L18.5008 5.52665L19.0412 5.57198C19.2144 5.58495 19.348 5.72991 19.3468 5.90365ZM12.7378 2.48598L14.8755 4.62365H11.6802V2.29031L12.2655 2.29031C12.4428 2.2898 12.6129 2.36027 12.7378 2.48598ZM9.68018 4.62365H8.68018V2.29031H9.68018V4.62365ZM6.28218 2.46231C6.40532 2.35191 6.56479 2.29068 6.73018 2.29031H8.01351V4.62365H3.88184L6.28218 2.46231ZM1.34684 7.62365V5.62365C1.34684 5.43955 1.49608 5.29031 1.68018 5.29031H9.68018V8.29031H6.98351C6.82173 7.3284 5.98893 6.62397 5.01351 6.62397C4.03808 6.62397 3.20529 7.3284 3.04351 8.29031H2.01351C1.64532 8.29031 1.34684 7.99184 1.34684 7.62365ZM5.01351 9.95698C4.27713 9.95698 3.68018 9.36003 3.68018 8.62365C3.68018 7.88727 4.27713 7.29031 5.01351 7.29031C5.74989 7.29031 6.34684 7.88727 6.34684 8.62365C6.34684 9.36003 5.74989 9.95698 5.01351 9.95698ZM10.6802 8.95698C10.4961 8.95698 10.3468 8.80774 10.3468 8.62365V1.95698C10.3468 1.77289 10.4961 1.62365 10.6802 1.62365C10.8643 1.62365 11.0135 1.77289 11.0135 1.95698V8.62365C11.0135 8.80774 10.8643 8.95698 10.6802 8.95698ZM16.6802 9.95698C15.9438 9.95698 15.3468 9.36003 15.3468 8.62365C15.3468 7.88727 15.9438 7.29031 16.6802 7.29031C17.4166 7.29031 18.0135 7.88727 18.0135 8.62365C18.0135 9.36003 17.4166 9.95698 16.6802 9.95698ZM20.0135 8.29031H18.6502C18.4884 7.3284 17.6556 6.62397 16.6802 6.62397C15.7048 6.62397 14.872 7.3284 14.7102 8.29031H11.6802V5.29031H15.6682L17.8155 5.46965L17.9245 6.12198C18.0038 6.60439 18.4213 6.95806 18.9102 6.95698H19.3468V7.08365C19.3475 7.33956 19.4932 7.57297 19.7228 7.68598L20.0135 7.82365V8.29031Z" fill="#E1704D"/>
<path d="M9.19803 13.305C8.06161 13.8651 7.3433 15.0234 7.34669 16.2904C7.34669 16.4744 7.49593 16.6237 7.68002 16.6237C7.86412 16.6237 8.01336 16.4744 8.01336 16.2904C8.01094 15.2764 8.58591 14.3496 9.49536 13.9014C9.60575 13.8505 9.67972 13.7436 9.68839 13.6224C9.69706 13.5011 9.63905 13.3848 9.53701 13.3187C9.43497 13.2527 9.30507 13.2475 9.19803 13.305Z" fill="#E1704D"/>
<path d="M10.68 13.6237C10.8641 13.6237 11.0133 13.4745 11.0133 13.2904C11.0133 13.1063 10.8641 12.957 10.68 12.957C10.4959 12.957 10.3467 13.1063 10.3467 13.2904C10.3467 13.4745 10.4959 13.6237 10.68 13.6237Z" fill="#E1704D"/>
<path d="M5.01351 8.95695C5.1976 8.95695 5.34684 8.80771 5.34684 8.62362C5.34684 8.43952 5.1976 8.29028 5.01351 8.29028C4.82941 8.29028 4.68018 8.43952 4.68018 8.62362C4.68018 8.80771 4.82941 8.95695 5.01351 8.95695Z" fill="#E1704D"/>
<path d="M16.68 8.95695C16.8641 8.95695 17.0133 8.80771 17.0133 8.62362C17.0133 8.43952 16.8641 8.29028 16.68 8.29028C16.4959 8.29028 16.3467 8.43952 16.3467 8.62362C16.3467 8.80771 16.4959 8.95695 16.68 8.95695Z" fill="#E1704D"/>
<path d="M10.6802 14.2903C10.4961 14.2903 10.3468 14.4395 10.3468 14.6236V14.6849C9.88799 14.8466 9.61261 15.3156 9.69505 15.795C9.77748 16.2745 10.1937 16.6245 10.6802 16.6236C10.8643 16.6236 11.0135 16.7729 11.0135 16.957C11.0135 17.141 10.8643 17.2903 10.6802 17.2903H10.0135C9.82941 17.2903 9.68018 17.4395 9.68018 17.6236C9.68018 17.8077 9.82941 17.957 10.0135 17.957H10.3468C10.3468 18.141 10.4961 18.2903 10.6802 18.2903C10.8643 18.2903 11.0135 18.141 11.0135 17.957V17.8956C11.4724 17.734 11.7477 17.265 11.6653 16.7856C11.5829 16.3061 11.1667 15.956 10.6802 15.957C10.4961 15.957 10.3468 15.8077 10.3468 15.6236C10.3468 15.4395 10.4961 15.2903 10.6802 15.2903H11.3468C11.5309 15.2903 11.6802 15.141 11.6802 14.9569C11.6802 14.7729 11.5309 14.6236 11.3468 14.6236H11.0135C11.0135 14.4395 10.8643 14.2903 10.6802 14.2903Z" fill="#E1704D"/>
</g>
<defs>
<clipPath id="clip0_1_3020">
<rect width="20" height="20" fill="white" transform="translate(0.680176 0.957031)"/>
</clipPath>
</defs>
</svg>
