<svg width="10" height="11" viewBox="0 0 10 11" fill="none" xmlns="http://www.w3.org/2000/svg">
<path fill-rule="evenodd" clip-rule="evenodd" d="M4.68759 0.967062C3.52964 0.967062 2.60393 1.89669 2.60393 3.02753C2.60393 4.15833 3.52964 5.08797 4.68759 5.08797C5.84545 5.08797 6.77116 4.15833 6.77116 3.02753C6.77116 1.89669 5.84545 0.967062 4.68759 0.967062ZM1.78875 3.02753C1.78875 1.42723 3.09366 0.142883 4.68759 0.142883C6.28143 0.142883 7.58634 1.42723 7.58634 3.02753C7.58634 4.62779 6.28143 5.91208 4.68759 5.91208C3.09366 5.91208 1.78875 4.62779 1.78875 3.02753ZM0 10.4451C0 8.22244 2.19062 6.57145 4.6875 6.57145C7.18437 6.57145 9.375 8.22244 9.375 10.4451C9.375 10.6727 9.1925 10.8572 8.96741 10.8572C8.74223 10.8572 8.55982 10.6727 8.55982 10.4451C8.55982 8.8402 6.91393 7.39565 4.6875 7.39565C2.46107 7.39565 0.815214 8.8402 0.815214 10.4451C0.815214 10.6727 0.632723 10.8572 0.407607 10.8572C0.182491 10.8572 0 10.6727 0 10.4451Z" fill="white"/>
</svg>
