<?xml version="1.0" encoding="UTF-8"?>
<svg id="a" data-name="Layer 1" xmlns="http://www.w3.org/2000/svg" viewBox="0 0 16 16">
  <path d="M7.17316,6.15951c.01605.10973-.06293.15913-.12138.2217-.26428.28292-.99904.72724-1.16747.98915-.35141.54645.17706,1.10542.66753,1.05776.46784-.04546,1.28463-.68795,1.77279-.84598.05299-.01715.10037-.04084.15592-.01404l3.12894,2.84793c.31293.448-.07216.98586-.51846.71615l-2.5986-2.39842c-.19648.0199.02256.25008.07224.30776.55234.6414,1.42741,1.17899,1.9909,1.81977.35865.40785.14435.96074-.33565.84274l-2.18596-1.98774c-.22982-.15915-.30061-.06541-.09336.16472.45587.50619,1.10841.9272,1.55919,1.42774.17527.19462.34425.34315.22899.6554-.09513.2577-.33924.35868-.55703.23021-.0737-.04348-.90164-.78468-.93112-.84423-.05216-.10533.00517-.325-.1429-.49278-.20304-.23007-.41237-.10526-.58764-.19468-.13125-.06696-.1883-.33726-.38438-.44674-.31536-.17607-.40488-.01031-.67149.13958-.13999-.46884-.64013-.6121-.88862-.16772-.17179-.36718-.52646-.63405-.85748-.32801-.12217.11295-.09117.28652-.19583.27266-.08278-.01096-1.26183-.766-1.30167-.83921-.01399-.02571-.02478-.05023-.0213-.08187l1.34448-2.80368c.11233-.06587.59485.29574.82261.2802.41604-.02838,1.08609-.48817,1.52836-.56257.11208-.01886.18285.02146.28844.03419Z" style="fill: #f58667;"/>
  <path d="M8.88886,5.66872c.11753-.02173.18579-.02168.30186.01328.46825.14103,1.2699.86022,1.71334.96822.30035.07315.77267-.30028.87572-.24246.22207.1246,1.10461,2.37476,1.34625,2.74977.00715.04951-.00681.0902-.02415.13397-.0876.22112-.99982.78231-1.17941,1.03727l-.1063.02033-3.28531-3.0071c-.12798-.03947-1.55962.79929-1.86518.88414-.50757.14094-1.01694-.33513-.57068-.834.62216-.69551,1.94456-1.5664,2.79387-1.72342Z" style="fill: #f58667;"/>
  <path d="M4.18766,6.05802c.06853.13632-.05779.36636-.10946.4937-.28154.69394-.81048,1.87393-1.16753,2.49995-.06866.12038-.14869.29321-.29818.21874l-1.86596-1.24653,1.41905-3.14464.24273.03661c.21368.24485,1.70143.98718,1.77935,1.14217Z" style="fill: #f58667;"/>
  <path d="M14.02472,4.88158c.04058-.01313.08348-.01937.12427-.004.13828.05208,1.16316,2.55199,1.38647,2.86368.07091.16117.06073.33753-.09009.4235l-1.81775,1.12687-.15911-.14785-1.35049-2.95829c.00178-.13808.29088-.29817.39882-.37169.48892-.33302,1.00896-.61895,1.50789-.9322Z" style="fill: #f58667;"/>
  <path d="M6.86877,10.2602c.22954-.01385.44703.23707.4346.50658-.00447.09701-.2777,1.02104-.32924,1.11955-.24357.46555-.80453.21554-.75195-.31251.03159-.31722.3207-1.29395.64659-1.31361Z" style="fill: #f58667;"/>
  <path d="M7.64047,10.81318c.25948-.06252.50922.21333.49131.51518-.00706.11897-.29969,1.05842-.35971,1.15249-.16083.25206-.56564.21318-.66985-.05533-.11447-.29494.2188-1.53537.53826-1.61234Z" style="fill: #f58667;"/>
  <path d="M6.10212,11.40164c-.21178.27427-.63853.13667-.69574-.24876-.03279-.22086.20756-.99523.40873-1.06488.35787-.12391.58829.14675.53064.56223-.01706.12295-.18195.67153-.24363.75141Z" style="fill: #f58667;"/>
  <path d="M4.95258,9.86193c.61688-.14846.57115,1.0071.1317,1.10811-.69648.16008-.58421-.99921-.1317-1.10811Z" style="fill: #f58667;"/>
  <path d="M8.59625,12.57435c-.14799.17227-.33647.17475-.50873.04502-.34078-.25665.07787-.73588.09428-1.0883.27819.21301.76638.6336.41445,1.04327Z" style="fill: #f58667;"/>
</svg>