<svg width="21" height="21" viewBox="0 0 21 21" fill="none" xmlns="http://www.w3.org/2000/svg">
<g clip-path="url(#clip0_1_2939)">
<path d="M12.532 20.4177H1.26241C1.09532 20.4177 0.958609 20.2822 0.958609 20.1151C0.956078 19.2265 0.992787 17.0075 1.39405 15.5784C1.50038 15.1974 1.63076 14.886 1.80291 14.5987C1.94848 14.3556 2.3662 13.7455 3.11557 13.324C3.80671 12.9354 4.46874 12.8772 4.90291 12.8974C4.96241 12.9 5.01937 12.9202 5.06747 12.9556L6.85101 14.2569L8.73583 12.9519C8.78266 12.9189 8.83836 12.9012 8.89532 12.8987C9.3295 12.8784 9.99152 12.9367 10.6827 13.3253C11.432 13.7468 11.8497 14.3569 11.9953 14.6C12.1675 14.8873 12.2966 15.1987 12.4042 15.5797C12.8042 17.0088 12.8422 19.2278 12.8396 20.1164C12.8358 20.2822 12.7004 20.4177 12.532 20.4177ZM6.88393 19.8101H12.2282C12.2206 18.9075 12.1611 16.9708 11.8168 15.7417C11.7232 15.4088 11.6168 15.1531 11.4725 14.9088C11.3523 14.7075 11.0054 14.2025 10.3839 13.8531C9.86114 13.5594 9.36114 13.4962 9.00798 13.5012L7.01937 14.8784C6.91304 14.9519 6.77127 14.9506 6.66747 14.8746L4.78393 13.5012C4.43203 13.4962 3.93203 13.5607 3.41177 13.8531C2.79026 14.2037 2.44342 14.7088 2.32317 14.9088C2.1776 15.1519 2.07127 15.4088 1.97886 15.7417C1.63456 16.9708 1.57507 18.9075 1.56747 19.8101H6.88393Z" fill="#E1704D"/>
<path d="M3.63729 20.4177C3.46894 20.4177 3.3335 20.2822 3.3335 20.1139V16.9493C3.3335 16.781 3.46894 16.6455 3.63729 16.6455C3.80565 16.6455 3.94109 16.781 3.94109 16.9493V20.1139C3.94109 20.2822 3.80565 20.4177 3.63729 20.4177Z" fill="#E1704D"/>
<path d="M10.1588 20.4177C9.99042 20.4177 9.85498 20.2822 9.85498 20.1139V16.9493C9.85498 16.781 9.99042 16.6455 10.1588 16.6455C10.3271 16.6455 10.4626 16.781 10.4626 16.9493V20.1139C10.4626 20.2822 10.3259 20.4177 10.1588 20.4177Z" fill="#E1704D"/>
<path d="M6.91309 12.8898C6.13335 12.8898 5.4017 12.5557 4.8536 11.9493C4.31309 11.3506 4.01562 10.5582 4.01562 9.71516V8.5025C4.01562 8.37339 4.0979 8.2582 4.22069 8.21516C4.22575 8.21389 4.7574 8.02528 5.046 7.70503C5.1536 7.58604 5.33335 7.56832 5.45866 7.66959C5.47512 7.68225 5.79031 7.91516 6.33588 8.03288C7.08271 8.1949 7.88778 8.07592 8.72828 7.67971C8.84727 7.62402 8.98778 7.6506 9.07892 7.74554C9.08145 7.74807 9.38778 8.06959 9.66626 8.24174C9.75613 8.29744 9.81056 8.39491 9.81056 8.49997V9.71263C9.81056 10.5544 9.51309 11.3481 8.97259 11.9468C8.42449 12.5557 7.69284 12.8898 6.91309 12.8898ZM4.62322 8.7063V9.71516C4.62322 11.1303 5.6498 12.2822 6.91309 12.2822C8.17638 12.2822 9.20297 11.1303 9.20297 9.71516V8.66326C9.046 8.54934 8.8979 8.41769 8.79284 8.31896C8.32322 8.52022 7.8536 8.64427 7.39664 8.69111C6.97512 8.73415 6.56119 8.7101 6.16879 8.62022C5.78398 8.53161 5.49284 8.39617 5.30803 8.29364C5.07385 8.48731 4.80423 8.62528 4.62322 8.7063Z" fill="#E1704D"/>
<path d="M4.32058 8.80631C4.20286 8.80631 4.09147 8.73796 4.0421 8.62277C3.90286 8.30251 3.88134 7.95568 3.86236 7.65062C3.84717 7.40125 3.82691 7.09112 3.89907 6.79112C3.96109 6.5291 4.11679 6.24935 4.37248 5.93669C4.41172 5.88859 4.45476 5.84049 4.49653 5.79492C5.18767 5.05441 6.32945 4.76327 6.55096 4.71264C6.98514 4.61264 7.40033 4.5772 7.78514 4.60758C8.05603 4.6291 8.28641 4.66581 8.48767 4.72277C8.75982 4.79872 8.97248 4.94555 9.1016 5.14682C9.16742 5.24808 9.20793 5.35315 9.24337 5.44429C9.27755 5.53289 9.30666 5.60884 9.34717 5.65694C9.4016 5.7215 9.47501 5.77973 9.5535 5.84175C9.64084 5.91138 9.74084 5.98986 9.82944 6.08986C10.0446 6.33289 10.2889 6.73922 10.3256 7.14935C10.3598 7.5291 10.2092 7.86074 10.0737 8.10758C10.07 8.11391 10.0611 8.13163 10.0497 8.15441C9.81805 8.60125 9.76615 8.67467 9.70919 8.72656C9.58514 8.83922 9.39274 8.83163 9.28008 8.70758C9.17375 8.59112 9.17501 8.41517 9.27755 8.29998C9.30033 8.26581 9.35983 8.16327 9.50919 7.87467C9.52438 7.84429 9.53577 7.82277 9.53957 7.81517C9.63324 7.64429 9.73831 7.42024 9.71932 7.20378C9.69653 6.95821 9.52438 6.66201 9.37248 6.49112C9.31932 6.43036 9.24843 6.37593 9.17501 6.31644C9.08134 6.24175 8.97502 6.15821 8.88134 6.04682C8.77502 5.92024 8.72185 5.78226 8.67375 5.66074C8.6459 5.58986 8.62058 5.52277 8.58894 5.47467C8.52818 5.37973 8.40919 5.33036 8.32058 5.30631C8.15856 5.26074 7.96615 5.23036 7.73577 5.21264C7.41172 5.18732 7.05729 5.21897 6.68388 5.30505C6.15476 5.42656 5.38008 5.73669 4.93704 6.21011C4.90286 6.24555 4.86995 6.28353 4.83831 6.32277C4.64464 6.55948 4.52565 6.76454 4.48641 6.93289C4.43577 7.14429 4.45096 7.39365 4.46489 7.61264C4.48134 7.881 4.49907 8.15821 4.59527 8.381C4.66236 8.53543 4.59147 8.71391 4.43704 8.781C4.4016 8.79745 4.35983 8.80631 4.32058 8.80631ZM9.3016 8.2772C9.3016 8.27846 9.3016 8.27846 9.3016 8.2772V8.2772Z" fill="#E1704D"/>
<path d="M5.35379 13.8442C5.31075 13.8442 5.26645 13.8354 5.22468 13.8151C5.07278 13.7442 5.00695 13.5632 5.07911 13.4113C5.15379 13.2531 5.27911 12.9366 5.28797 12.5923C5.29176 12.4544 5.27404 12.3911 5.24493 12.2847C5.2386 12.2607 5.23227 12.2366 5.22468 12.2113C5.1829 12.0493 5.27911 11.8835 5.4424 11.8404C5.60442 11.7987 5.77025 11.8949 5.81328 12.0582C5.81961 12.0809 5.82468 12.1025 5.83101 12.1227C5.86645 12.2493 5.90189 12.3784 5.89556 12.6075C5.88417 13.062 5.72341 13.4683 5.62974 13.6683C5.57657 13.7797 5.46771 13.8442 5.35379 13.8442Z" fill="#E1704D"/>
<path d="M8.41467 13.8468C8.30455 13.8468 8.19822 13.786 8.14379 13.6822C7.95138 13.3088 7.84505 12.9189 7.83619 12.5544C7.83113 12.3721 7.85265 12.2556 7.87797 12.1582C7.90835 12.0227 8.02986 11.9227 8.17417 11.9227C8.34252 11.9227 8.47797 12.0582 8.47797 12.2265C8.47797 12.2518 8.47543 12.2772 8.4691 12.3012C8.45138 12.3721 8.44126 12.4329 8.44379 12.5405C8.45265 12.886 8.57923 13.2025 8.68429 13.4063C8.76151 13.5556 8.70202 13.7392 8.55265 13.8151C8.50835 13.8354 8.46151 13.8468 8.41467 13.8468Z" fill="#E1704D"/>
<path d="M17.9344 5.33929C17.8661 5.33929 17.7965 5.31651 17.7395 5.2684L15.6395 3.51651L13.5408 5.2684C13.4116 5.376 13.2205 5.35828 13.1129 5.22916C13.0053 5.10005 13.023 4.90891 13.1521 4.80132L15.4458 2.88739C15.5585 2.79372 15.7218 2.79372 15.8357 2.88739L18.1294 4.80132C18.2585 4.90891 18.2749 5.10005 18.1686 5.22916C18.1078 5.30132 18.0205 5.33929 17.9344 5.33929Z" fill="#E1704D"/>
<path d="M17.3826 7.4988H16.2003C16.0319 7.4988 15.8965 7.36336 15.8965 7.195V5.86209H15.3851V7.19627C15.3851 7.36462 15.2496 7.50007 15.0813 7.50007H13.899C13.7307 7.50007 13.5952 7.36462 13.5952 7.19627V4.57601C13.5952 4.40766 13.7307 4.27222 13.899 4.27222C14.0674 4.27222 14.2028 4.40766 14.2028 4.57601V6.89247H14.7775V5.55829C14.7775 5.38994 14.9129 5.2545 15.0813 5.2545H16.2003C16.3686 5.2545 16.5041 5.38994 16.5041 5.55829V6.89247H17.0788V4.57601C17.0788 4.40766 17.2142 4.27222 17.3826 4.27222C17.5509 4.27222 17.6864 4.40766 17.6864 4.57601V7.19627C17.6864 7.36336 17.5496 7.4988 17.3826 7.4988Z" fill="#E1704D"/>
<path d="M12.7092 10.7899C12.6738 10.7899 12.6383 10.7836 12.6041 10.7709C12.4839 10.7266 12.4054 10.6127 12.4054 10.4861V8.82027H11.7193C11.551 8.82027 11.4155 8.68482 11.4155 8.51647V1.80001C11.4155 1.63166 11.551 1.49622 11.7193 1.49622H19.5611C19.7295 1.49622 19.8649 1.63166 19.8649 1.80001V8.51647C19.8649 8.68482 19.7295 8.82027 19.5611 8.82027H14.5193L12.9408 10.6823C12.8826 10.7519 12.7965 10.7899 12.7092 10.7899ZM12.0231 8.21267H12.7092C12.8776 8.21267 13.013 8.34811 13.013 8.51647V9.65824L14.1472 8.32027C14.2054 8.25191 14.2902 8.21267 14.3788 8.21267H19.2573V2.10381H12.0231V8.21267Z" fill="#E1704D"/>
<path d="M17.0928 18.4974C17.0788 18.4974 17.0649 18.4974 17.0522 18.4974C16.5573 18.4987 15.9117 18.4709 15.294 18.2379C14.9333 18.1012 14.6041 17.8949 14.3434 17.6379C14.0522 17.3531 13.8522 17.0126 13.7624 16.6531C13.6269 16.1063 13.7497 15.5519 13.8712 15.1291C14.2307 13.886 14.8902 12.7316 15.7801 11.7911C15.8953 11.6696 16.0877 11.6633 16.2092 11.7797C16.3307 11.8949 16.3358 12.0873 16.2206 12.2088C15.3978 13.0784 14.7864 14.1468 14.4548 15.2974C14.3535 15.6468 14.251 16.1 14.3522 16.5063C14.4738 17 14.9168 17.4443 15.5092 17.6683C16.0345 17.8671 16.6092 17.8898 17.0522 17.8886H17.0548C17.4965 17.8898 18.0725 17.8671 18.5978 17.6683C19.189 17.4443 19.632 17 19.7548 16.5063C19.856 16.0987 19.7522 15.6468 19.6522 15.2974C19.3193 14.1468 18.7092 13.0784 17.8864 12.2088C17.7712 12.0873 17.7763 11.8949 17.8978 11.7797C18.0193 11.6645 18.2117 11.6696 18.3269 11.7911C19.2168 12.7316 19.8763 13.8848 20.2358 15.1291C20.3573 15.5506 20.4801 16.105 20.3446 16.6531C20.256 17.0126 20.0548 17.3531 19.7636 17.6379C19.5016 17.8936 19.1738 18.1012 18.813 18.2379C18.2105 18.4645 17.5826 18.4974 17.0928 18.4974Z" fill="#E1704D"/>
<path d="M18.0495 12.3038H16.0546C15.9293 12.3038 15.8166 12.2266 15.7711 12.1101L15.1204 10.443C15.0837 10.3494 15.0964 10.2443 15.1521 10.1607C15.2078 10.0772 15.3027 10.0278 15.4027 10.0278C15.6926 10.0278 15.8533 10.124 15.9711 10.1937C16.0597 10.2468 16.1052 10.2734 16.2267 10.2734C16.3483 10.2734 16.3938 10.2468 16.4824 10.1937C16.6002 10.124 16.7609 10.0278 17.0508 10.0278C17.3407 10.0278 17.5014 10.124 17.6192 10.1937C17.7078 10.2468 17.7533 10.2734 17.8748 10.2734C17.9964 10.2734 18.0419 10.2468 18.1305 10.1937C18.2483 10.124 18.409 10.0278 18.6989 10.0278C18.7989 10.0278 18.8926 10.0772 18.9495 10.1607C19.0065 10.2443 19.0179 10.3494 18.9812 10.443L18.3305 12.1101C18.2862 12.2278 18.1748 12.3038 18.0495 12.3038ZM16.2622 11.6962H17.8419L18.1748 10.8418C18.0926 10.8658 17.9951 10.8823 17.8761 10.8823C17.5862 10.8823 17.4255 10.7861 17.3078 10.7164C17.2192 10.6633 17.1736 10.6367 17.0521 10.6367C16.9305 10.6367 16.885 10.6633 16.7964 10.7164C16.6786 10.7861 16.5179 10.8823 16.228 10.8823C16.1078 10.8823 16.0103 10.8658 15.9293 10.8418L16.2622 11.6962Z" fill="#E1704D"/>
<path d="M17.9562 16.3442C18.0385 16.2164 18.0803 16.0784 18.0803 15.9328C18.0803 15.786 18.041 15.6531 17.9638 15.5379L17.9626 15.5366C17.8866 15.424 17.7701 15.3316 17.6157 15.2607C17.5157 15.2151 17.341 15.1645 17.0828 15.1062C16.7739 15.0366 16.6942 14.9847 16.6765 14.9708L16.6752 14.9695C16.641 14.9391 16.6258 14.9024 16.6258 14.8531C16.6258 14.7936 16.6524 14.7455 16.7081 14.7012C16.7512 14.667 16.8436 14.6252 17.0372 14.6252C17.1853 14.6252 17.2955 14.6543 17.3638 14.71C17.4094 14.748 17.4436 14.7999 17.4626 14.867C17.4967 14.9822 17.5993 15.0594 17.717 15.0594C17.7233 15.0594 17.7309 15.0594 17.7385 15.0581H17.7423C17.8233 15.0518 17.8955 15.01 17.9423 14.9442C17.9879 14.8784 18.0018 14.7961 17.9803 14.7202C17.9575 14.6417 17.9246 14.567 17.879 14.4986C17.7955 14.3721 17.6765 14.2759 17.5246 14.2113C17.3803 14.1505 17.2119 14.1189 17.0258 14.1189C16.8562 14.1189 16.698 14.148 16.5575 14.2062C16.4081 14.2683 16.2929 14.3607 16.2132 14.4822C16.1347 14.6024 16.0942 14.7341 16.0942 14.8733C16.0942 15.0012 16.1271 15.1202 16.1942 15.224C16.2588 15.3265 16.3575 15.4126 16.4853 15.4809L16.4891 15.4822C16.5853 15.5328 16.7385 15.5822 16.9588 15.6354C17.1638 15.6847 17.298 15.7214 17.3562 15.7442C17.4309 15.7733 17.4841 15.8062 17.5119 15.8417C17.5372 15.8746 17.5499 15.9138 17.5499 15.9581C17.5499 16.0037 17.536 16.0467 17.5069 16.086C17.4777 16.1278 17.4284 16.1607 17.3613 16.1872C17.2866 16.2164 17.1967 16.2316 17.0955 16.2316C16.9815 16.2316 16.8777 16.2113 16.7879 16.1733C16.7043 16.1366 16.6436 16.091 16.6069 16.0366C16.5828 16.0012 16.5638 15.9594 16.5512 15.91C16.5195 15.7936 16.4132 15.7113 16.2917 15.7113C16.2841 15.7113 16.2752 15.7113 16.2689 15.7126C16.1904 15.7189 16.1208 15.7594 16.0752 15.8227C16.0296 15.886 16.0132 15.9657 16.0309 16.0429C16.055 16.1429 16.0955 16.2379 16.1524 16.3252C16.2448 16.467 16.3752 16.5733 16.5372 16.6442C16.6929 16.7113 16.8853 16.7455 17.1094 16.7455C17.2904 16.7455 17.4562 16.7113 17.6031 16.6442C17.755 16.5721 17.8739 16.4721 17.9562 16.3442Z" fill="#E1704D"/>
<path d="M17.0523 17.1899C16.884 17.1899 16.7485 17.0544 16.7485 16.8861V16.7494C16.7485 16.581 16.884 16.4456 17.0523 16.4456C17.2207 16.4456 17.3561 16.581 17.3561 16.7494V16.8861C17.3561 17.0532 17.2207 17.1899 17.0523 17.1899Z" fill="#E1704D"/>
<path d="M17.0523 14.4152C16.884 14.4152 16.7485 14.2797 16.7485 14.1114V13.9759C16.7485 13.8076 16.884 13.6721 17.0523 13.6721C17.2207 13.6721 17.3561 13.8076 17.3561 13.9759V14.1114C17.3561 14.2784 17.2207 14.4152 17.0523 14.4152Z" fill="#E1704D"/>
</g>
<defs>
<clipPath id="clip0_1_2939">
<rect width="20" height="20" fill="white" transform="translate(0.680176 0.957031)"/>
</clipPath>
</defs>
</svg>
