<?xml version="1.0" encoding="UTF-8"?>
<svg id="a" data-name="Layer 1" xmlns="http://www.w3.org/2000/svg" viewBox="0 0 16 16">
  <path d="M12.98709,7.19698c-.14271.14468-.41474.31141-.59216.42621-1.75046,1.13261-3.71207,2.06948-5.48011,3.1891-1.09333.43646-1.5158-.28757-1.58826-1.27089.1095-2.04995-.13866-4.23763-.00013-6.27105.06769-.99355.4488-1.77327,1.58074-1.31534,1.8091,1.20676,4.04295,2.14918,5.80198,3.38947.70296.49566.94855,1.17263.27793,1.8525Z" style="fill: #f58667;"/>
  <path d="M5.01524,3.61195v6.81525c0,.03799.09219.34019.11589.40635.21394.59712.68582.78388,1.27824.57002,2.15519-1.12922,4.26911-2.33885,6.38462-3.54097.55936.3056.75157,1.0118.41187,1.56377-.40657.66063-2.04294,1.41343-2.77643,1.81929-1.70797.94506-3.45075,1.82918-5.15278,2.78529-1.05967.42865-1.83311-.10082-1.93174-1.20228-.22615-2.52566.1668-5.37665,0-7.93639.09799-.93006.68405-1.58021,1.67033-1.28033Z" style="fill: #f58667;"/>
</svg>