<svg width="21" height="21" viewBox="0 0 21 21" fill="none" xmlns="http://www.w3.org/2000/svg">
<g clip-path="url(#clip0_1_2969)">
<path d="M5.519 17.7312C4.98541 17.7312 4.55127 18.1653 4.55127 18.6989C4.55127 19.2325 4.98541 19.6667 5.519 19.6667C6.0526 19.6667 6.48674 19.2325 6.48674 18.6989C6.48674 18.1654 6.0526 17.7312 5.519 17.7312ZM5.519 19.0216C5.34115 19.0216 5.19643 18.8768 5.19643 18.699C5.19643 18.5211 5.34115 18.3764 5.519 18.3764C5.69686 18.3764 5.84158 18.5211 5.84158 18.699C5.84158 18.8768 5.69686 19.0216 5.519 19.0216Z" fill="#E1704D"/>
<path d="M15.8413 17.7312C15.3077 17.7312 14.8735 18.1653 14.8735 18.6989C14.8735 19.2325 15.3077 19.6667 15.8413 19.6667C16.3749 19.6667 16.809 19.2325 16.809 18.6989C16.809 18.1654 16.3749 17.7312 15.8413 17.7312ZM15.8413 19.0216C15.6634 19.0216 15.5187 18.8768 15.5187 18.699C15.5187 18.5211 15.6634 18.3764 15.8413 18.3764C16.0191 18.3764 16.1638 18.5211 16.1638 18.699C16.1638 18.8768 16.0191 19.0216 15.8413 19.0216Z" fill="#E1704D"/>
<path d="M19.9071 14.9226C19.4086 14.3842 18.7312 14.0567 17.9996 14.0005L16.3549 13.874L15.069 11.7307C14.6632 11.0545 13.9213 10.6344 13.1327 10.6344H12.4842C13.3445 10.0135 13.906 9.0032 13.906 7.86359C13.906 6.86512 13.4712 5.9198 12.7131 5.27L11.7997 4.48719L12.9659 3.32102C13.156 3.13082 13.2608 2.87801 13.2608 2.60902C13.2608 2.05383 12.8091 1.60211 12.2539 1.60211C11.9849 1.60211 11.7321 1.70687 11.5419 1.89703L11.4896 1.94934C11.2581 1.35633 10.6855 0.957031 10.035 0.957031C9.38451 0.957031 8.81189 1.35629 8.58037 1.94941L8.52807 1.89711C8.33787 1.70695 8.08506 1.60219 7.81607 1.60219C7.26088 1.60219 6.80916 2.05387 6.80916 2.6091C6.80916 2.87805 6.91393 3.13086 7.10404 3.32109L8.27021 4.48727L7.35689 5.27008C6.59877 5.91988 6.164 6.8652 6.164 7.86367C6.164 9.00328 6.72545 10.0136 7.58568 10.6345H7.36022C6.49939 10.6345 5.72549 11.1128 5.34053 11.8827L4.35174 13.8603H2.29307C1.40373 13.8603 0.680176 14.5839 0.680176 15.4732V18.699C0.680176 19.2326 1.11432 19.6668 1.64791 19.6668H3.47912C3.84221 20.4289 4.61994 20.957 5.51889 20.957C6.41783 20.957 7.19557 20.4289 7.55865 19.6667H13.8017C14.1648 20.4289 14.9426 20.957 15.8415 20.957C16.7404 20.957 17.5182 20.4289 17.8813 19.6667H19.7124C20.246 19.6667 20.6802 19.2326 20.6802 18.699V16.8952C20.6802 16.1614 20.4056 15.4609 19.9071 14.9226ZM19.3899 15.7957H19.7458C19.8579 15.9948 19.9404 16.212 19.988 16.4409H18.4774C18.6105 16.0654 18.9693 15.7957 19.3899 15.7957ZM7.45436 2.6091C7.45436 2.40965 7.61662 2.24738 7.81607 2.24738C7.91268 2.24738 8.0035 2.285 8.07186 2.35332L8.91947 3.20094L9.14545 2.29676C9.24775 1.88785 9.6135 1.60223 10.035 1.60223C10.4565 1.60223 10.8223 1.88781 10.9246 2.29672L11.1506 3.20094L11.9982 2.35332C12.0665 2.285 12.1573 2.24738 12.254 2.24738C12.4534 2.24738 12.6157 2.40965 12.6157 2.6091C12.6157 2.7057 12.578 2.79656 12.5097 2.86488L11.1917 4.18285H8.87834L7.56037 2.86488C7.49201 2.79656 7.45436 2.7057 7.45436 2.6091ZM6.8092 7.86363C6.8092 7.05375 7.16186 6.28695 7.77678 5.75988L8.864 4.82797H11.206L12.2933 5.75988C12.9082 6.28699 13.2608 7.05375 13.2608 7.86363C13.2608 9.39145 12.0179 10.6345 10.49 10.6345H9.58002C8.05221 10.6345 6.8092 9.39148 6.8092 7.86363ZM2.29307 14.5054H4.75049L5.9176 12.1713C6.19256 11.6213 6.74533 11.2796 7.36022 11.2796H9.57998H10.49H13.1327C13.696 11.2796 14.2259 11.5797 14.5157 12.0627L15.9731 14.4917L17.9501 14.6438C18.4302 14.6807 18.8674 14.8695 19.2162 15.1601C18.4083 15.247 17.777 15.9328 17.777 16.7635V17.0861H20.035V17.7313H17.8812C17.5182 16.9691 16.7404 16.4409 15.8415 16.4409C15.5372 16.4409 15.247 16.5018 14.9819 16.6114V14.0936L13.9626 12.3947C13.7887 12.1048 13.4706 11.9248 13.1327 11.9248H7.36025C6.99143 11.9248 6.65975 12.1298 6.49471 12.4597L5.70525 14.0386L5.70092 14.0477C5.56248 14.3475 5.48936 14.6806 5.48936 15.0109V16.4417C4.60299 16.4532 3.83822 16.9775 3.47916 17.7313H1.32533V17.0861H2.61564C2.97139 17.0861 3.2608 16.7967 3.2608 16.441V15.7958C3.2608 15.4401 2.97135 15.1507 2.61564 15.1507H1.38084C1.514 14.7751 1.87256 14.5054 2.29307 14.5054ZM6.13447 16.5269V15.0109C6.13447 14.8402 6.16201 14.6686 6.21424 14.5055H9.71244V17.7313H7.55865C7.28174 17.15 6.76357 16.7055 6.13447 16.5269ZM14.3367 14.5054H12.9382V13.8603H14.0895L14.3367 14.2722V14.5054ZM12.9382 13.2151C12.5825 13.2151 12.2931 13.5045 12.2931 13.8602H10.3576V12.5699H13.1327C13.2453 12.5699 13.3513 12.6299 13.4093 12.7266L13.7024 13.2151H12.9382ZM9.71244 13.8603H6.51572L7.07174 12.7483C7.12674 12.6382 7.23729 12.5699 7.36025 12.5699H9.71244V13.8603ZM10.3576 14.5054H12.2931C12.2931 14.8612 12.5825 15.1506 12.9382 15.1506H14.3367V17.0172C14.1143 17.2164 13.9315 17.4587 13.8017 17.7312H10.3576V14.5054ZM2.61564 15.7957V16.4409H1.32533V15.7957H2.61564ZM1.64791 19.0216C1.47006 19.0216 1.32533 18.8768 1.32533 18.699V18.3764H3.28424C3.26908 18.4818 3.2608 18.5894 3.2608 18.699C3.2608 18.8086 3.26908 18.9162 3.28424 19.0216H1.64791ZM5.51889 20.3119C4.62955 20.3119 3.906 19.5883 3.906 18.699C3.906 17.8096 4.62955 17.0861 5.51889 17.0861C6.40822 17.0861 7.13178 17.8096 7.13178 18.699C7.13178 19.5883 6.40822 20.3119 5.51889 20.3119ZM7.75354 19.0216C7.76869 18.9162 7.77697 18.8086 7.77697 18.699C7.77697 18.5894 7.76869 18.4818 7.75354 18.3764H13.6068C13.5917 18.4818 13.5834 18.5894 13.5834 18.699C13.5834 18.8086 13.5917 18.9162 13.6068 19.0216H7.75354ZM15.8415 20.3119C14.9521 20.3119 14.2286 19.5883 14.2286 18.699C14.2286 17.8096 14.9521 17.0861 15.8415 17.0861C16.7308 17.0861 17.4544 17.8096 17.4544 18.699C17.4544 19.5883 16.7308 20.3119 15.8415 20.3119ZM19.7124 19.0216H18.0761C18.0913 18.9162 18.0996 18.8086 18.0996 18.699C18.0996 18.5894 18.0913 18.4818 18.0761 18.3764H20.035V18.699C20.035 18.8768 19.8903 19.0216 19.7124 19.0216Z" fill="#E1704D"/>
<path d="M11.3253 8.37635C11.3253 7.84275 10.8911 7.40861 10.3575 7.40861H9.71236C9.53451 7.40861 9.38979 7.26389 9.38979 7.08604C9.38979 6.90818 9.53451 6.76346 9.71236 6.76346H10.3575C10.5354 6.76346 10.6801 6.90818 10.6801 7.08604H11.3253C11.3253 6.55244 10.8911 6.1183 10.3575 6.1183V5.47314H9.71236V6.1183C9.17877 6.1183 8.74463 6.55244 8.74463 7.08604C8.74463 7.61963 9.17877 8.05377 9.71236 8.05377H10.3575C10.5354 8.05377 10.6801 8.1985 10.6801 8.37635C10.6801 8.5542 10.5354 8.69893 10.3575 8.69893H9.71236C9.53451 8.69893 9.38979 8.5542 9.38979 8.37635H8.74463C8.74463 8.90994 9.17877 9.34408 9.71236 9.34408V9.98924H10.3575V9.34412C10.8911 9.34412 11.3253 8.90994 11.3253 8.37635Z" fill="#E1704D"/>
<path d="M6.16391 9.34412H1.3252V9.98927H6.16391V9.34412Z" fill="#E1704D"/>
<path d="M1.32533 8.05383H0.680176V8.69899H1.32533V8.05383Z" fill="#E1704D"/>
<path d="M5.5191 8.05383H1.9707V8.69899H5.5191V8.05383Z" fill="#E1704D"/>
<path d="M1.32533 5.47314H0.680176V6.1183H1.32533V5.47314Z" fill="#E1704D"/>
<path d="M6.16426 5.47314H1.9707V6.1183H6.16426V5.47314Z" fill="#E1704D"/>
<path d="M5.51875 6.76343H1.3252V7.40858H5.51875V6.76343Z" fill="#E1704D"/>
</g>
<defs>
<clipPath id="clip0_1_2969">
<rect width="20" height="20" fill="white" transform="translate(0.680176 0.957031)"/>
</clipPath>
</defs>
</svg>
