<?xml version="1.0" encoding="UTF-8"?>
<svg id="a" xmlns="http://www.w3.org/2000/svg" xmlns:xlink="http://www.w3.org/1999/xlink" viewBox="0 0 698.36 390.29">
  <defs>
    <style>
      .cls-1 {
        fill: url(#linear-gradient);
      }

      .cls-2 {
        fill: #fff;
      }
    </style>
    <linearGradient id="linear-gradient" x1="32.69" y1="357.33" x2="660.68" y2="357.33" gradientUnits="userSpaceOnUse">
      <stop offset="0" stop-color="#fc4343"/>
      <stop offset=".02" stop-color="#fc5243"/>
      <stop offset=".1" stop-color="#fd8f47"/>
      <stop offset=".17" stop-color="#febb49"/>
      <stop offset=".22" stop-color="#fed64b"/>
      <stop offset=".25" stop-color="#ffe14c"/>
      <stop offset=".27" stop-color="#f3df4e"/>
      <stop offset=".3" stop-color="#d4dc53"/>
      <stop offset=".34" stop-color="#a2d75c"/>
      <stop offset=".39" stop-color="#5dd168"/>
      <stop offset=".45" stop-color="#0cc977"/>
      <stop offset=".48" stop-color="#09be8b"/>
      <stop offset=".55" stop-color="#04a8b5"/>
      <stop offset=".6" stop-color="#019bcf"/>
      <stop offset=".63" stop-color="#0096d9"/>
      <stop offset=".67" stop-color="#167edb"/>
      <stop offset=".73" stop-color="#3160dd"/>
      <stop offset=".78" stop-color="#424edf"/>
      <stop offset=".82" stop-color="#4948e0"/>
      <stop offset=".98" stop-color="#9036e2"/>
      <stop offset="1" stop-color="#9934e3"/>
    </linearGradient>
  </defs>
  <rect class="cls-1" x="32.69" y="348.75" width="627.99" height="17.16"/>
  <g>
    <path class="cls-2" d="M151.98,304.18c24.89-22.71,60.29-90.33,60.95-141.61-5.75,1.69-17.15,7.83-21.36,26.79-2.42,10.89-9.24,36.6-34.37,34.38-34.83-3.07-29.78-68.93,24.76-62.96,25.79,2.82,29.97-15.72,29.97-18.2-5.66,2.59-14.16,1.52-22.15.55-49.15-5.9-72.75,22.23-72.75,54.35,0,19.28,12.54,35.49,26.67,44.5,7.52,4.78,2.11,9.46-3.47,5.44-14.87-10.73-32.22-24.89-32.22-55.1,0-50.43,51.46-72.34,63.55-81.36,17.95-13.37,26.57-24.41,22.21-44.09-7.1,13.06-24.53,24.49-37.54,31.4-35.15,18.68-62.69,45.88-62.69,85.84,0,31.42,13.79,48.69,30.38,62.06,3.75,3.04-.23,7.28-5.05,3.4-26.39-21.28-35.1-44.83-35.1-75.1,0-57.18,72.11-108.89,39.68-150.07.44,42.05-53.92,78.78-53.92,148.35,0,31.23,12.54,62.23,47.5,86.75,20.58,14.44,23.51,30.98,20.5,45.96-1.34,8.08,8.45,4.21,14.45-1.26M60.97,122.9c3.24-38.34-15.72-49.97-15.72-49.97,0,0,4.46,16.27,1.19,57.98-2.22,28.45,7.91,50.49,13.8,64.12.85,1.93,3.69.43,3.16-1.58-5.33-20.15-5.12-38.85-2.44-70.55"/>
    <path class="cls-2" d="M634.12,191.87c0-17.58-8.16-24.22-25.94-24.22-13.24,0-25.67,4.89-25.67,9.8,0,1.68,1.59,6.07,4.12,8.99,6.25-3.59,11.64-6.09,18.78-6.09,11.34,0,11.51,5.2,11.51,11.64-18.55,0-38.37,3.92-38.37,22.37,0,12.35,7.39,19.88,20.26,19.88,8.96,0,13.92-3.3,19.44-6.89,2.34,7.55,12.99,6.49,18.57,4-2.11-3.38-2.69-7-2.69-15.09v-24.4ZM616.92,216.62c-3.62,3.44-7.47,5.3-12.16,5.3-11.19,0-11.67-12.42-5.04-16.88,4.17-2.8,11.82-3.64,17.2-3.64v15.23ZM461.23,191.87c0-17.58-8.17-24.22-25.94-24.22-13.25,0-25.67,4.89-25.67,9.8,0,1.68,1.57,6.07,4.11,8.99,6.25-3.59,11.64-6.09,18.78-6.09,11.33,0,11.51,5.2,11.51,11.64-18.55,0-38.37,3.92-38.37,22.37,0,12.35,7.38,19.88,20.25,19.88,8.97,0,13.93-3.3,19.44-6.89,2.34,7.55,13,6.49,18.57,4-2.11-3.38-2.67-7-2.67-15.09v-24.4ZM444.02,216.62c-3.62,3.44-7.47,5.3-12.17,5.3-11.19,0-11.67-12.42-5.02-16.88,4.17-2.8,11.82-3.64,17.2-3.64v15.23ZM282.08,142.56h-23.83v90.1c.97.31,5.84.63,6.98.52,7.38-.19,11.03-3.19,11.03-9.89v-22.82h6.73c20.55,0,35.74-9.08,35.74-30.95s-17.51-26.96-36.65-26.96M276.27,187.65v-31.77c12.65-1.19,23.94,1.12,23.94,14.56,0,16.91-11.71,17.21-23.94,17.21M346.99,223.29c0,6.71-3.64,9.7-11.02,9.89-1.14.11-5.99-.21-6.98-.52v-53.76c0-6.7,3.66-9.7,11.03-9.89,1.14-.11,6,.2,6.96.52v53.76ZM550.56,198.71c0-8.09-.17-10.31-.81-12.07-2.82-7.66-18.99-5.36-18.99,2.52v34.13c0,6.7-3.65,9.7-11.03,9.89-1.14.11-6-.21-6.96-.52v-33.95c0-8.09-.16-10.31-.81-12.07-2.82-7.66-19-5.36-19,2.52v34.13c0,6.7-3.64,9.7-11.02,9.89-1.14.11-6-.21-6.96-.52v-63.13c7.38-1.05,15.53-.95,17.06,6.27,7.17-10.19,31.65-12.47,36.33,2.74,4.35-8.27,13.93-11.56,23.06-10.77,15.48,1.33,17.05,14,17.11,29.48v26.04c0,6.7-3.64,9.7-11.02,9.89-1.14.11-6-.21-6.96-.52v-33.95ZM360.86,232.66c.96.31,5.83.63,6.97.52,7.38-.19,11.03-3.19,11.03-9.89v-31.95c0-6.95,10.41-11.83,19.45-4.23,2.22-3.69,4.37-9.5,4.37-12.91,0-7.34-15.54-10.57-24.61,1.54-1.67-6.95-10.12-7.4-17.2-6.2v63.13ZM665.68,143.08c-.84-.29-4.64-.52-6.1-.52-7.93,0-11.9,2.95-11.9,9.91v80.19c.96.31,5.83.63,6.97.52,7.38-.19,11.03-3.19,11.03-9.89v-80.21ZM338.02,142.56c-4.42,0-8.34,3.27-8.93,7.73-.79,5.89,4.52,11,10.36,10.05,5.17-.84,8.65-6.19,7.23-11.27-1.09-3.87-4.7-6.5-8.66-6.5"/>
    <path class="cls-2" d="M259.47,308.96c-.71-.72-1.02-1.57-1.02-2.59v-44.88c0-1.11.31-1.97.95-2.67.61-.7,1.49-1.02,2.57-1.02h27c.86,0,1.57.32,2.11.86.56.54.87,1.26.87,2.12s-.31,1.56-.87,2.11c-.54.55-1.25.87-2.11.87h-23.3v16.08h19.93c.86,0,1.55.31,2.12.86.54.55.86,1.25.86,2.12s-.33,1.57-.86,2.12c-.57.55-1.25.86-2.12.86h-19.93v20.48c0,1.02-.39,1.89-1.09,2.59-.72.7-1.58,1.1-2.61,1.1s-1.87-.4-2.57-1.1l.07.08Z"/>
    <path class="cls-2" d="M299.26,263.84c-.86-.86-1.25-1.89-1.25-3.06s.39-2.19,1.25-3.07c.86-.87,1.89-1.34,3.07-1.34s2.19.4,3.06,1.26c.86.86,1.25,1.87,1.25,3.06s-.39,2.19-1.25,3.05c-.86.87-1.88,1.27-3.06,1.27s-2.2-.4-3.07-1.27v.09ZM298.88,306.6v-31.86c0-.94.3-1.72,1.02-2.43.7-.71,1.49-1.02,2.43-1.02s1.72.31,2.43,1.02c.7.71,1.02,1.49,1.02,2.43v31.86c0,.94-.31,1.72-1.02,2.44-.71.7-1.5,1.02-2.43,1.02s-1.73-.31-2.43-1.02c-.72-.72-1.02-1.5-1.02-2.44"/>
    <path class="cls-2" d="M318.02,309.12c-.71-.71-1.02-1.49-1.02-2.43v-31.87c0-.94.31-1.72,1.02-2.42.7-.71,1.49-1.02,2.43-1.02.86,0,1.64.31,2.28.94.62.62,1.02,1.41,1.09,2.28l1.73-.87c3.69-1.8,7.06-2.74,10.12-2.74,2.27,0,4.4.31,6.35,1.02,1.97.7,3.62,1.64,4.95,2.9,1.26,1.17,2.19,2.67,2.82,4.39.64,1.73.94,3.85.94,6.36v20.95c0,.94-.31,1.72-1.02,2.44-.71.7-1.49,1.02-2.43,1.02s-1.73-.31-2.43-1.02c-.71-.72-1.04-1.49-1.04-2.44v-20.63c0-1.73-.14-3.07-.46-4.01-.31-.94-.79-1.8-1.49-2.51-1.34-1.33-3.77-2.04-7.22-2.04h-.09c-1.64,0-3.37.23-5.18.63-1.81.39-3.3.86-4.47,1.41-.31.16-.46.31-.56.47-.07.16-.07.39-.07.79v25.82c0,.94-.31,1.72-1.03,2.44-.7.7-1.49,1.02-2.42,1.02s-1.72-.32-2.43-1.02l-.39.16Z"/>
    <path class="cls-2" d="M367.61,307.85c-2.59-1.64-4.55-4-5.96-6.98-1.42-2.98-2.12-6.36-2.12-10.2,0-4.08.86-7.61,2.5-10.61,1.66-2.97,3.85-5.25,6.52-6.82,2.67-1.57,5.5-2.36,8.39-2.36,1.74,0,3.39.24,4.95.71,1.56.47,3.29,1.19,5.11,2.19l1.94,1.02v-.08c0-.94.32-1.72,1.03-2.43.71-.71,1.49-1.02,2.43-1.02s1.73.31,2.43,1.02c.72.71,1.03,1.49,1.03,2.43v31.86c0,.94-.31,1.72-1.03,2.44-.7.7-1.49,1.02-2.43,1.02s-1.72-.31-2.43-1.02c-.71-.72-1.03-1.5-1.03-2.44v-.23l-2.19,1.16c-1.96,1.03-3.7,1.74-5.25,2.2-1.59.47-3.23.72-4.95.72-3.38,0-6.36-.87-8.96-2.52v-.09ZM383.14,303.31c1.96-.47,3.62-1.09,4.95-1.88.39-.24.63-.47.7-.71.09-.24.16-.54.16-.94v-18.36c0-.47-.07-.79-.23-1.02-.16-.24-.39-.47-.78-.71-1.58-.78-3.22-1.42-4.95-1.88-1.72-.46-3.38-.71-4.95-.71-3.69,0-6.52,1.1-8.47,3.38-1.97,2.26-2.99,5.65-2.99,10.12,0,8.86,3.69,13.34,11.07,13.34,1.64,0,3.45-.24,5.4-.71l.09.08Z"/>
    <path class="cls-2" d="M407.95,309.12c-.71-.71-1.02-1.49-1.02-2.43v-31.87c0-.94.31-1.72,1.02-2.42.71-.71,1.49-1.02,2.43-1.02.87,0,1.65.31,2.28.94.62.62,1.01,1.41,1.09,2.28l1.74-.87c3.68-1.8,7.06-2.74,10.11-2.74,2.28,0,4.4.31,6.36,1.02,1.97.7,3.61,1.64,4.95,2.9,1.25,1.17,2.2,2.67,2.82,4.39.63,1.73.94,3.85.94,6.36v20.95c0,.94-.31,1.72-1.01,2.44-.7.7-1.49,1.02-2.44,1.02s-1.72-.31-2.44-1.02c-.7-.72-1.02-1.49-1.02-2.44v-20.63c0-1.73-.15-3.07-.47-4.01-.31-.94-.78-1.8-1.48-2.51-1.35-1.33-3.77-2.04-7.22-2.04h-.08c-1.66,0-3.38.23-5.19.63-1.8.39-3.29.86-4.47,1.41-.3.16-.47.31-.54.47-.07.16-.07.39-.07.79v25.82c0,.94-.32,1.72-1.03,2.44-.7.7-1.5,1.02-2.43,1.02s-1.72-.32-2.44-1.02l-.39.16Z"/>
    <path class="cls-2" d="M454.8,305.58c-1.82-1.8-3.22-4-4.16-6.51-.94-2.51-1.41-5.25-1.41-8.31s.54-5.89,1.64-8.48c1.1-2.59,2.59-4.79,4.56-6.6,1.64-1.48,3.53-2.67,5.72-3.45,2.2-.78,4.4-1.17,6.68-1.17,2.82,0,5.49.62,8,1.87,2.5,1.27,4.63,2.99,6.43,5.27.79,1.02,1.19,1.96,1.19,2.82,0,.79-.33,1.49-.87,2.04-.55.55-1.26.86-2.12.86-.55,0-1.03-.15-1.42-.39-.39-.24-.86-.64-1.49-1.19l-1.34-1.25c-1.4-1.34-2.82-2.36-4.23-2.98-1.41-.63-2.92-.94-4.47-.94-1.33,0-2.67.24-4,.7-1.34.48-2.44,1.19-3.3,2.04-1.18,1.18-2.12,2.67-2.82,4.48-.71,1.8-1.02,3.76-1.02,5.95s.31,4.16.86,5.96c.55,1.81,1.34,3.3,2.34,4.48,2.13,2.27,5.11,3.37,9.03,3.37,2.67,0,5.88-.94,9.66-2.82,1.17-.55,2.11-.86,2.81-.86s1.34.24,1.89.78c.56.56.79,1.18.79,1.97,0,.63-.16,1.18-.48,1.64-.31.48-.86,1.02-1.63,1.57-1.65,1.18-3.62,2.12-5.97,2.83-2.35.71-4.79,1.09-7.29,1.09-5.58,0-10.05-1.72-13.42-5.1l-.16.31Z"/>
    <path class="cls-2" d="M500.56,309.04c-2.28-.87-4.25-2.12-5.9-3.77-1.8-1.8-3.22-4-4.15-6.5-.94-2.52-1.42-5.27-1.42-8.16,0-3.85.79-7.3,2.43-10.29,1.65-2.98,3.85-5.33,6.68-6.98,2.82-1.64,5.96-2.52,9.4-2.52s6.43.79,9.2,2.44c2.73,1.65,4.85,3.85,6.35,6.6,1.49,2.74,2.28,5.8,2.28,9.17,0,1.19-.24,2.05-.79,2.6-.56.54-1.33.78-2.44.78h-25.81c.31,3.53,1.57,6.43,3.77,8.63,2.04,2.04,4.86,3.06,8.4,3.06,1.64,0,3.3-.24,4.86-.71,1.57-.47,3.39-1.26,5.34-2.28.55-.31,1.1-.54,1.57-.7.46-.16.94-.23,1.33-.23.79,0,1.42.23,1.89.7.46.46.7,1.09.7,1.89,0,.7-.16,1.33-.54,1.88-.39.54-1.1,1.17-2.12,1.88-1.57,1.18-3.53,2.12-5.89,2.82-2.34.71-4.71,1.11-6.99,1.11-3.06,0-5.72-.47-8-1.34l-.15-.08ZM518.52,287.07c-.24-3.06-1.34-5.5-3.3-7.3-1.96-1.81-4.47-2.74-7.62-2.74s-5.8.86-7.83,2.67c-2.04,1.81-3.22,4.24-3.61,7.38h22.36Z"/>
  </g>
</svg>