<svg width="60" height="60" viewBox="0 0 60 60" fill="none" xmlns="http://www.w3.org/2000/svg">
<rect width="60" height="60" rx="10" fill="url(#paint0_linear_1_2446)" fill-opacity="0.08"/>
<path d="M33 37.128C33.853 37.3757 34.7368 37.5009 35.625 37.5C37.0534 37.5021 38.4633 37.1764 39.746 36.548C39.7839 35.6517 39.5286 34.7675 39.0188 34.0293C38.509 33.2912 37.7724 32.7394 36.9207 32.4575C36.0691 32.1757 35.1487 32.1791 34.2992 32.4674C33.4497 32.7557 32.7173 33.313 32.213 34.055M33 37.128V37.125C33 36.012 32.714 34.965 32.213 34.055M33 37.128V37.234C31.0755 38.3931 28.8706 39.0038 26.624 39C24.293 39 22.112 38.355 20.25 37.234L20.249 37.125C20.2483 35.7095 20.7186 34.3339 21.586 33.2153C22.4534 32.0966 23.6684 31.2984 25.0395 30.9466C26.4106 30.5948 27.8598 30.7093 29.1587 31.2721C30.4575 31.8349 31.5321 32.814 32.213 34.055M30 24.375C30 25.2701 29.6444 26.1285 29.0115 26.7615C28.3786 27.3944 27.5201 27.75 26.625 27.75C25.7299 27.75 24.8715 27.3944 24.2385 26.7615C23.6056 26.1285 23.25 25.2701 23.25 24.375C23.25 23.4799 23.6056 22.6214 24.2385 21.9885C24.8715 21.3556 25.7299 21 26.625 21C27.5201 21 28.3786 21.3556 29.0115 21.9885C29.6444 22.6214 30 23.4799 30 24.375ZM38.25 26.625C38.25 27.3212 37.9735 27.9889 37.4812 28.4812C36.9889 28.9734 36.3212 29.25 35.625 29.25C34.9288 29.25 34.2612 28.9734 33.7689 28.4812C33.2766 27.9889 33 27.3212 33 26.625C33 25.9288 33.2766 25.2611 33.7689 24.7688C34.2612 24.2766 34.9288 24 35.625 24C36.3212 24 36.9889 24.2766 37.4812 24.7688C37.9735 25.2611 38.25 25.9288 38.25 26.625Z" stroke="url(#paint1_linear_1_2446)" stroke-width="2" stroke-linecap="round" stroke-linejoin="round"/>
<defs>
<linearGradient id="paint0_linear_1_2446" x1="30" y1="0" x2="30" y2="60" gradientUnits="userSpaceOnUse">
<stop stop-color="white"/>
<stop offset="1" stop-color="#021E3F"/>
</linearGradient>
<linearGradient id="paint1_linear_1_2446" x1="29.9994" y1="21" x2="29.9994" y2="39" gradientUnits="userSpaceOnUse">
<stop offset="1" stop-color="#E76D29"/>
</linearGradient>
</defs>
</svg>
