<?xml version="1.0" encoding="UTF-8"?>
<svg id="a" data-name="Layer 1" xmlns="http://www.w3.org/2000/svg" viewBox="0 0 16 16">
  <path d="M3.19316,10.87773l.69122-2.08804.68021,2.0898,2.96943-.00568.69487-2.0558.66722,2.0558,2.96943.00568.68021-2.0898.69122,2.08804h2.1724l-1.74636,1.28819.67399,2.09735-1.79095-1.28859-1.76347,1.26023.67866-2.07163-1.08821-.77057-1.05915.7712.67833,2.09936-1.76716-1.29555-1.78711,1.29555.67833-2.09936-1.05915-.7712-1.05918.79828.64963,2.04392-1.76347-1.26023-1.79095,1.28859.67399-2.09735-1.74636-1.28819h2.1724ZM12.8702,11.35735l-.32445-1.01595-.32445,1.01595h-1.04388l.83302.6194-.29669.98873.85603-.58921.83618.61743-.30504-.99808.84137-.63827h-1.07209Z" style="fill: #f58667;"/>
  <path d="M8.0119,1.74517c1.97384-.16267,3.30217,2.06192,2.19589,3.71939-.95963,1.43776-3.08461,1.43578-4.02486-.01702-.98743-1.5257.02672-3.55385,1.82896-3.70237Z" style="fill: #f58667;"/>
  <path d="M8.13041,7.49245l-.95873,2.89204-2.27207-.01417-.77337-2.42411c.46533-.22659.94368-.43255,1.44346-.57434.23853-.06767.94876-.2555,1.15803-.21183.08028.01675.22008.10395.31599.13516.35078.11414.71408.21126,1.0867.19726Z" style="fill: #f58667;"/>
  <path d="M9.23355,10.3952l-.93383-2.90274c.25133-.00363.51883-.0372.76202-.09874.15279-.03867.59694-.25262.67936-.25374.15681-.00213.5584.09927.73132.1403.63231.15003,1.25442.37562,1.82156.69132l-.77683,2.41359-2.2836.01002Z" style="fill: #f58667;"/>
</svg>