<?xml version="1.0" encoding="UTF-8"?>
<svg id="a" data-name="Layer 1" xmlns="http://www.w3.org/2000/svg" viewBox="0 0 16 16">
  <path d="M1.53339,8.14804l2.52209-.01088c.01314.7787.2547,1.54406.69362,2.18402,1.24907,1.82119,3.75276,2.26634,5.55497.97159,1.00886-.72479,1.62187-1.90776,1.64057-3.15551h2.52198v.59277c0,.01329-.08348.08165-.11159.08241l-1.20528.26544c-.09412.43759-.22804.86525-.42157,1.26886l.85102.97469c.01401.04779.0001.08033-.021.12167-.07946.15571-.54954.79177-.67567.91922-.03122.03155-.05494.07108-.10598.0648l-1.18452-.51436c-.33792.29083-.68689.57561-1.08807.77611-.00765.05147-.00623.10616-.00325.15817.01897.33055.09601.68464.1083,1.01219.00218.05819.0135.1459-.03172.18561l-1.2253.38228-.05989-.03247-.62355-1.09551c-.04187-.02634-.32118.03049-.39821.03386-.32399.01417-.64615-.01104-.9673-.04495l-.62955,1.07775-.08842.06032c-.16838-.08279-1.14899-.32007-1.21639-.41327-.06431-.08892.13267-1.12691.1057-1.31311-.29159-.1878-.57562-.38091-.8472-.59687-.05372-.04272-.17774-.18365-.22753-.20498-.03577-.01532-.07406.01089-.10662.02299-.37546.13954-.743.36856-1.12781.48106-.02958-.01288-.04797-.03892-.06933-.06121-.14046-.14661-.36728-.48928-.4941-.66979-.04155-.05915-.20814-.28642-.20835-.33282-.0005-.1091.7624-.84434.86153-.99592-.096-.26175-.20236-.51976-.28307-.78736-.02777-.09209-.10526-.50532-.16001-.52976l-1.23407-.2748c-.01205-.00877-.04443-.05455-.04443-.06335v-.53888Z" style="fill: #f58667;"/>
  <path d="M11.10397,7.61993h-6.20795c-.02072-1.00452.54137-1.77417,1.4365-2.17402.05223-.02333.28581-.12508.3205-.12371.04082.00161.20401.09511.26346.1156.85182.29355,1.61271.28709,2.43052-.1155,1.02965.30537,1.80134,1.18827,1.75696,2.29764Z" style="fill: #f58667;"/>
  <path d="M6.74078,4.41718c-1.47626-1.68826,1.07819-3.94971,2.54202-2.22946,1.42507,1.67468-1.06375,3.92003-2.54202,2.22946Z" style="fill: #f58667;"/>
  <path d="M3.70567,3.07771c1.26479-.14426,2.06147,1.3356,1.25438,2.31059-.64638.78085-1.87096.64384-2.32425-.26111-.42844-.85533.11137-1.94016,1.06987-2.04948Z" style="fill: #f58667;"/>
  <path d="M11.96174,3.07807c1.25546-.12761,2.02946,1.33989,1.23247,2.31024-.56233.68465-1.59104.68039-2.15426,0-.70319-.84948-.17896-2.19835.92179-2.31024Z" style="fill: #f58667;"/>
  <path d="M4.63736,7.61993H1.55494c.10433-.61335.36573-1.21926.97687-1.46968.22453-.09201.20817-.02211.41307.04741.54236.18403.92341.22097,1.48615.08429.186-.04518.36004-.11811.53691-.18772.01969.00165.07835.0364.07857.04912.00019.01102-.09153.14593-.11119.19023-.18054.40693-.2768.84109-.29797,1.28635Z" style="fill: #f58667;"/>
  <path d="M14.44506,7.61993h-3.08242c-.01071-.32601-.0693-.67195-.17164-.98157-.02663-.08056-.23287-.50374-.21615-.52688.03796-.05256.32218.09219.39241.11352.6168.18736,1.0636.18733,1.67627-.01738.06161-.02058.21913-.11419.26614-.11273.03375.00105.17382.06458.2162.08393.5778.2639.815.84976.91919,1.44112Z" style="fill: #f58667;"/>
</svg>