<svg width="20" height="20" viewBox="0 0 20 20" fill="none" xmlns="http://www.w3.org/2000/svg">
<path d="M18.9647 13.2538V4.14654C18.9647 4.01842 18.8865 3.90326 18.7674 3.85604L9.83705 0.315488C9.76303 0.286113 9.68064 0.286113 9.60674 0.315488L0.676348 3.85607C0.557207 3.9033 0.479004 4.01842 0.479004 4.14658V17.6251C0.479004 17.7977 0.618926 17.9376 0.791504 17.9376H2.16088C2.33346 17.9376 2.47338 17.7977 2.47338 17.6251V5.81119H16.9704V11.9677C16.6483 11.8812 16.3101 11.8347 15.9611 11.8347C14.5811 11.8347 13.3666 12.5566 12.6751 13.6424H11.8694V10.2848C11.8694 10.1122 11.7295 9.97228 11.5569 9.97228H8.19928V6.61463C8.19928 6.44205 8.05936 6.30213 7.88678 6.30213H4.21666C4.04408 6.30213 3.90416 6.44205 3.90416 6.61463V10.0401C3.90416 10.0884 3.911 10.1351 3.9226 10.1798C3.91088 10.2126 3.90412 10.2479 3.90412 10.2848V13.7103C3.90412 13.7586 3.91096 13.8053 3.92256 13.85C3.91084 13.8828 3.90412 13.9181 3.90412 13.9549V17.3804C3.90412 17.6876 4.15404 17.9376 4.46131 17.9376H7.64213C7.72998 17.9376 7.81283 17.9165 7.88682 17.8802C7.9608 17.9165 8.04365 17.9376 8.1315 17.9376H11.3123C11.4002 17.9376 11.483 17.9165 11.557 17.8802C11.631 17.9165 11.7138 17.9376 11.8017 17.9376H12.7582C13.4614 18.9536 14.6348 19.6205 15.9612 19.6205C18.1078 19.6205 19.8541 17.8742 19.8541 15.7276C19.854 14.789 19.5201 13.9269 18.9647 13.2538ZM17.2829 5.18619H2.16088C1.9883 5.18619 1.84838 5.32611 1.84838 5.49869V17.3126H1.104V4.35881L9.72186 0.942129L18.3397 4.35877V12.6482C18.1105 12.4707 17.861 12.3183 17.5953 12.1949V5.49869C17.5954 5.32611 17.4554 5.18619 17.2829 5.18619ZM5.74979 14.2674H6.35365V15.1398H5.74979V14.2674ZM4.52912 13.6424V10.5973H5.12478V11.7822C5.12478 11.9547 5.26471 12.0947 5.43729 12.0947H6.66615C6.83873 12.0947 6.97865 11.9547 6.97865 11.7822V10.5973H7.57428V13.6424H4.52912ZM6.35365 10.5973V11.4697H5.74979V10.5973H6.35365ZM8.19928 14.2674H8.79494V15.4523C8.79494 15.6249 8.93486 15.7648 9.10744 15.7648H10.3363C10.5089 15.7648 10.6488 15.6249 10.6488 15.4523V14.2674H11.2444V17.3126H8.19928V14.2674ZM10.0238 14.2674V15.1398H9.41994V14.2674H10.0238ZM11.2444 13.6424H8.19928V10.5973H8.79494V11.7822C8.79494 11.9547 8.93486 12.0947 9.10744 12.0947H10.3363C10.5089 12.0947 10.6488 11.9547 10.6488 11.7822V10.5973H11.2444V13.6424ZM9.41994 10.5973H10.0238V11.4697H9.41994V10.5973ZM5.74979 6.92713H6.35365V7.79951H5.74979V6.92713ZM5.12478 6.92713V8.11201C5.12478 8.28459 5.26471 8.42451 5.43729 8.42451H6.66615C6.83873 8.42451 6.97865 8.28459 6.97865 8.11201V6.92713H7.57428V9.97228H4.52916V6.92713H5.12478ZM4.52912 14.2674H5.12478V15.4523C5.12478 15.6249 5.26471 15.7648 5.43729 15.7648H6.66615C6.83873 15.7648 6.97865 15.6249 6.97865 15.4523V14.2674H7.57428V17.3126H4.52912V14.2674ZM11.8694 17.3126V14.2674H12.3526C12.1694 14.7186 12.0682 15.2115 12.0682 15.7276C12.0682 16.2918 12.1889 16.8281 12.4057 17.3126H11.8694ZM15.9611 18.9955C14.1592 18.9955 12.6932 17.5296 12.6932 15.7276C12.6932 13.9257 14.1592 12.4597 15.9611 12.4597C17.763 12.4597 19.229 13.9257 19.229 15.7276C19.229 17.5296 17.763 18.9955 15.9611 18.9955ZM17.0968 16.2956C17.1262 16.5372 17.0607 16.7584 16.9076 16.9354C16.7608 17.1051 16.534 17.2266 16.2736 17.2806V17.3649C16.2736 17.5375 16.1337 17.6774 15.9611 17.6774C15.7885 17.6774 15.6486 17.5375 15.6486 17.3649V17.2752C15.2385 17.1777 14.9258 16.892 14.8278 16.4992C14.7861 16.3317 14.888 16.1621 15.0554 16.1204C15.2231 16.0789 15.3925 16.1806 15.4343 16.348C15.4986 16.6061 15.7713 16.6919 15.9874 16.6865C16.1762 16.6821 16.356 16.6177 16.4349 16.5265C16.4611 16.4963 16.4864 16.4541 16.4764 16.371C16.4671 16.2941 16.4452 16.1141 15.9128 16.0267C15.067 15.8878 14.9185 15.4079 14.9053 15.1342C14.8835 14.6871 15.1804 14.3113 15.6486 14.1857V14.0904C15.6486 13.9178 15.7885 13.7779 15.9611 13.7779C16.1337 13.7779 16.2736 13.9178 16.2736 14.0904V14.1829C16.5759 14.2606 16.8597 14.4603 17.011 14.8207C17.0778 14.9798 17.0029 15.163 16.8438 15.2298C16.6849 15.2966 16.5016 15.2218 16.4347 15.0626C16.309 14.7634 15.998 14.7464 15.8341 14.7836C15.7598 14.8004 15.5183 14.8733 15.5295 15.1039C15.5325 15.1664 15.5405 15.3322 16.0141 15.41C16.6743 15.5183 17.0386 15.8163 17.0968 16.2956ZM15.9611 12.8278C14.3621 12.8278 13.0612 14.1287 13.0612 15.7276C13.0612 17.3266 14.3621 18.6275 15.9611 18.6275C17.56 18.6275 18.8609 17.3266 18.8609 15.7276C18.8609 14.1287 17.5601 12.8278 15.9611 12.8278ZM15.9611 18.0025C14.7067 18.0025 13.6862 16.982 13.6862 15.7277C13.6862 14.4733 14.7067 13.4528 15.9611 13.4528C17.2154 13.4528 18.2359 14.4733 18.2359 15.7277C18.2359 16.982 17.2155 18.0025 15.9611 18.0025ZM11.869 2.9624H7.57475C7.40217 2.9624 7.26225 3.10232 7.26225 3.2749V4.38541C7.26225 4.55799 7.40217 4.69791 7.57475 4.69791H11.869C12.0416 4.69791 12.1815 4.55799 12.1815 4.38541V3.2749C12.1815 3.10232 12.0416 2.9624 11.869 2.9624ZM11.5565 4.07291H7.88721V3.5874H11.5565V4.07291Z" fill="#E1704D"/>
</svg>
